<svg xmlns="http://www.w3.org/2000/svg" width="28" height="12" viewBox="0 0 28 12">
    <g fill="none" fill-rule="evenodd">
        <g fill="#FFF" fill-rule="nonzero">
            <path d="M25.988 81c-.26.008-.506.117-.687.303l-4.907 4.902c-.248.188-.393.48-.394.79 0 .311.143.605.39.794l.005.004 4.906 4.9c.25.26.623.366.973.275.35-.091.623-.365.714-.714.092-.35-.013-.722-.274-.972l-3.29-3.286h23.563c.36.005.695-.184.877-.495.181-.31.181-.695 0-1.006-.182-.311-.517-.5-.877-.495H23.424l3.29-3.286c.295-.287.384-.726.223-1.105-.16-.379-.537-.62-.95-.609z" transform="translate(-20.000000, -81.000000)"/>
        </g>
    </g>
</svg>
