<svg xmlns="http://www.w3.org/2000/svg" width="64" height="64" viewBox="0 0 64 64"><path d="M1.266,60.385a21.945,21.945,0,0,0,8.163-8.814A29.481,29.481,0,0,1,.012,30.155C.012,13.614,14.433.032,32.006.032S64,13.614,64,30.155,49.579,60.279,32.006,60.279a39.184,39.184,0,0,1-8.389-.956,40.955,40.955,0,0,1-20.574,4.7C1.646,64,.632,64.254.11,62.811A1.9,1.9,0,0,1,1.266,60.385ZM28.256,45.279a3.749,3.749,0,1,0,7.5,0,3.5,3.5,0,0,0-3.749-3.907A3.469,3.469,0,0,0,28.256,45.279Zm3.749-9.962A3.342,3.342,0,0,0,35.755,31.8v-14.9a3.749,3.749,0,1,0-7.5,0V31.8C28.248,35.017,31.19,35.318,32.006,35.318Z" transform="translate(0 -0.032)" fill="#8e99af"/></svg>