<svg xmlns="http://www.w3.org/2000/svg" width="17" height="21" viewBox="0 0 17 21">
    <g fill="none" fill-rule="evenodd">
        <g fill="#737AFF" fill-rule="nonzero">
            <g>
                <path d="M7.988 0c.203-.003.399.076.542.22.144.143.223.338.22.54v.75h3.5c1.234 0 2.25 1.016 2.25 2.249v4.497c0 1.233-1.016 2.25-2.25 2.25h-8.5c-1.234 0-2.25-1.017-2.25-2.25V3.76c0-1.233 1.016-2.249 2.25-2.249h3.5V.76c-.006-.413.324-.753.738-.76zM5.75 4.508c-.69 0-1.25.56-1.25 1.25s.56 1.25 1.25 1.25S7 6.447 7 5.757s-.56-1.25-1.25-1.25zm4.5 0c-.69 0-1.25.56-1.25 1.25s.56 1.25 1.25 1.25 1.25-.56 1.25-1.25-.56-1.25-1.25-1.25zm3.5 7.496c1.234 0 2.25 1.016 2.25 2.25v.38c0 1.172-.481 2.299-1.344 3.102C13.494 18.818 11.391 20 8 20c-3.391 0-5.494-1.182-6.656-2.263C.48 16.932 0 15.807 0 14.635v-.382c0-1.233 1.016-2.249 2.25-2.249z" transform="translate(-1290.000000, -429.000000) translate(1290.500000, 429.500000)"/>
            </g>
        </g>
    </g>
</svg>
