<svg xmlns="http://www.w3.org/2000/svg" width="28" height="40" viewBox="0 0 28 40">
    <g fill="none" fill-rule="evenodd">
        <g>
            <g transform="translate(-30.000000, -646.000000) translate(30.000000, 646.000000)">
                <path fill="#009AE1" fill-rule="nonzero" d="M26.48 14.103c-.032-.05-.032-.116 0-.167l1.154-1.803c.35-.547.456-1.22.288-1.848-.168-.627-.595-1.158-1.172-1.456l-1.9-.984c-.054-.028-.087-.086-.085-.147l.1-2.14c.03-.649-.216-1.284-.674-1.744-.458-.46-1.093-.707-1.741-.674l-2.138.099c-.045-.004-.117-.03-.146-.084l-.981-1.903c-.3-.578-.829-1.005-1.456-1.173-.627-.17-1.3-.063-1.844.287l-1.801 1.156c-.05.034-.116.032-.168 0l-1.8-1.155C11.57.017 10.897-.09 10.27.079c-.627.167-1.157.595-1.455 1.173l-.982 1.903c-.028.054-.083.087-.147.085L5.55 3.139c-.634-.038-1.282.216-1.74.674-.46.46-.704 1.095-.674 1.744l.099 2.141c.003.06-.031.118-.084.146l-1.9.983c-.577.3-1.004.83-1.172 1.458-.168.627-.062 1.301.287 1.846l1.154 1.805c.033.05.033.116 0 .167L.366 15.907c-.35.546-.456 1.22-.288 1.847.168.628.595 1.158 1.172 1.457l1.9.983c.054.028.087.086.085.147l-.1 2.142c-.03.649.215 1.284.673 1.744.46.46 1.1.716 1.741.674l2.138-.1c.045-.002.118.032.146.085l.982 1.903c.298.578.828 1.005 1.455 1.173.195.053.396.078.595.078.439 0 .874-.125 1.249-.366l1.802-1.156c.05-.034.115-.033.167 0l1.801 1.155c.546.35 1.218.457 1.845.288.626-.167 1.156-.595 1.454-1.173l.982-1.903c.028-.053.09-.08.147-.084l2.137.099c.63.036 1.282-.216 1.741-.675.46-.46.704-1.094.674-1.743l-.1-2.142c-.002-.06.032-.118.085-.146l1.9-.983c.577-.299 1.003-.83 1.171-1.457.168-.628.063-1.301-.287-1.846l-1.152-1.805zm-6.293-2.808c-2.517 1.846-4.859 4.192-6.957 6.97-.204.27-.522.429-.86.429h-.004c-.339-.002-.658-.163-.86-.435-1.117-1.502-2.203-2.595-3.322-3.34-.495-.33-.63-1-.3-1.496.33-.495.999-.629 1.493-.3 1.025.683 2.01 1.588 2.989 2.75 2.002-2.474 4.2-4.596 6.547-6.317.48-.353 1.153-.247 1.506.232.352.48.248 1.155-.232 1.507z"/>
                <ellipse cx="13.831" cy="38.026" fill="#4D5664" rx="13.031" ry="1.974"/>
            </g>
        </g>
    </g>
</svg>
