<svg xmlns="http://www.w3.org/2000/svg" width="50" height="46" viewBox="0 0 50 46">
    <g fill="none" fill-rule="evenodd">
        <g>
            <g transform="translate(-150.000000, -676.000000) translate(150.000000, 676.000000)">
                <ellipse cx="16.289" cy="43.536" fill="#4D5664" rx="16.289" ry="2.464"/>
                <path fill="#009AE1" fill-rule="nonzero" d="M3.702 0C1.657 0 0 1.654 0 3.696v22.179c0 2.042 1.657 3.696 3.702 3.696h24.064v-13.06c0-2.958 1.565-2.547 3.702-2.548h5.553V3.696C37.02 1.654 35.364 0 33.319 0H3.702zm1.851 5.545h5.553v5.544H5.553V5.545zm40.967 14.62c1.147 0 2.01.42 2.59 1.263.58.842.877 2.132.89 3.87v.832c0 1.705-.29 3.012-.87 3.921-.58.91-1.443 1.364-2.59 1.364-.875 0-1.577-.358-2.108-1.073v5.044H41.62V20.365h2.605l.1.993c.536-.796 1.268-1.194 2.196-1.194zm-11.364-3.55c1.465 0 2.597.382 3.396 1.148.798.765 1.198 1.853 1.198 3.264 0 1.938-.7 3.295-2.098 4.07l2.535 5.977v.14h-3.142l-2.177-5.334h-1.451v5.334h-2.923v-14.6h4.662zm10.54 5.926c-.578 0-.998.244-1.264.732v5.084c.252.467.68.701 1.283.701.557 0 .943-.237 1.158-.711.216-.475.323-1.214.323-2.217v-.711c0-1.05-.114-1.792-.343-2.226-.228-.435-.614-.652-1.158-.652zm-10.57-3.47h-1.71v4.352h1.66c.584 0 1.022-.195 1.313-.586.292-.392.438-.915.438-1.57 0-1.464-.567-2.196-1.7-2.196zm-7.36-11.678v3.696H16.659V7.393h11.107zM5.553 20.33h3.702v3.697H5.553V20.33zm7.404 0h3.702v3.697h-3.702V20.33zm7.404 0h3.702v3.697h-3.702V20.33z"/>
            </g>
        </g>
    </g>
</svg>
