<svg xmlns="http://www.w3.org/2000/svg" width="28" height="40" viewBox="0 0 28 40">
    <g fill="none" fill-rule="evenodd">
        <g>
            <g transform="translate(-30.000000, -784.000000) translate(30.000000, 784.000000)">
                <path fill="#009AE1" fill-rule="nonzero" d="M9.85 8.377c.635-.895 1.613-1.53 2.75-1.68V5.96c0-.582.47-1.052 1.05-1.052.58 0 1.05.47 1.05 1.052v.73c1.587.146 2.946 1.256 3.367 2.818.151.56-.18 1.138-.74 1.29-.563.15-1.136-.181-1.288-.741-.205-.761-.9-1.293-1.689-1.293h-1.225c-.78 0-1.451.468-1.753 1.139l2.713 2.716h.44c2.412 0 4.375 1.966 4.375 4.381 0 .142-.008.282-.021.42l5.723 5.73C26.713 20.695 28 17.509 28 14.02 28 6.29 21.72 0 14 0c-3.482 0-6.665 1.288-9.117 3.403L9.85 8.377zM3.398 4.89C1.287 7.346 0 10.533 0 14.02c0 7.73 6.28 14.02 14 14.02 3.483 0 6.665-1.288 9.117-3.403L3.397 4.89zM14.7 22.082c0 .58-.47 1.051-1.05 1.051-.58 0-1.05-.47-1.05-1.051v-.73c-1.602-.148-2.964-1.272-3.376-2.853-.146-.562.19-1.136.751-1.282.564-.146 1.135.19 1.281.752.2.77.897 1.309 1.693 1.309h1.575c.369 0 .712-.094 1.018-.25l1.523 1.525c-.672.483-1.484.783-2.365.818v.71z"/>
                <ellipse cx="14.631" cy="38.026" fill="#4D5664" rx="13.031" ry="1.974"/>
            </g>
        </g>
    </g>
</svg>
