<svg xmlns="http://www.w3.org/2000/svg" width="218" height="203" viewBox="0 0 218 203">
    <defs>
        <linearGradient id="95ogjfq4xa" x1="54.169%" x2="46.695%" y1="5.105%" y2="100.086%">
            <stop offset="0%" stop-color="#FFC444"/>
            <stop offset="100%" stop-color="#F36F56"/>
        </linearGradient>
        <linearGradient id="54dqzgqxhb" x1="32.31%" x2="81.661%" y1="18.123%" y2="135.73%">
            <stop offset="0%" stop-color="#E38DDD"/>
            <stop offset="100%" stop-color="#9571F6"/>
        </linearGradient>
        <linearGradient id="l25x7vdyhc" x1="50.14%" x2="50.046%" y1="48.664%" y2="49.396%">
            <stop offset="0%" stop-color="#444B8C"/>
            <stop offset="100%" stop-color="#26264F"/>
        </linearGradient>
        <linearGradient id="cojt4wvvrd" x1="70.165%" x2="79.961%" y1="50.329%" y2="46.884%">
            <stop offset="0%" stop-color="#444B8C"/>
            <stop offset="100%" stop-color="#26264F"/>
        </linearGradient>
        <linearGradient id="lg605zopee" x1="100%" x2="0%" y1="49.99%" y2="49.99%">
            <stop offset="0%" stop-color="#FF9085"/>
            <stop offset="100%" stop-color="#FB6FBB"/>
        </linearGradient>
        <linearGradient id="kkbxfchuff" x1="113.927%" x2="14.256%" y1="38.963%" y2="42.491%">
            <stop offset="0%" stop-color="#FF9085"/>
            <stop offset="100%" stop-color="#FB6FBB"/>
        </linearGradient>
        <linearGradient id="i7gp0ou19g" x1="294.426%" x2="295.878%" y1="48.97%" y2="58.359%">
            <stop offset="0%" stop-color="#444B8C"/>
            <stop offset="100%" stop-color="#26264F"/>
        </linearGradient>
        <linearGradient id="5bof0vdfsh" x1="578.264%" x2="580.029%" y1="51.305%" y2="63.402%">
            <stop offset="0%" stop-color="#444B8C"/>
            <stop offset="100%" stop-color="#26264F"/>
        </linearGradient>
        <linearGradient id="ab3emiiz6i" x1="1125.324%" x2="1127.632%" y1="56.601%" y2="73.967%">
            <stop offset="0%" stop-color="#444B8C"/>
            <stop offset="100%" stop-color="#26264F"/>
        </linearGradient>
        <linearGradient id="uev44vmm3j" x1="0%" x2="100%" y1="50.001%" y2="50.001%">
            <stop offset="0%" stop-color="#444B8C"/>
            <stop offset="100%" stop-color="#26264F"/>
        </linearGradient>
        <linearGradient id="evspl207rk" x1="115.461%" x2="-63.258%" y1="42.388%" y2="63.169%">
            <stop offset="0%" stop-color="#444B8C"/>
            <stop offset="100%" stop-color="#26264F"/>
        </linearGradient>
        <linearGradient id="7i5azhmvdl" x1="94.981%" x2="-65.593%" y1="70.852%" y2="23.044%">
            <stop offset="0%" stop-color="#444B8C"/>
            <stop offset="100%" stop-color="#26264F"/>
        </linearGradient>
    </defs>
    <g fill="none" fill-rule="evenodd">
        <g>
            <g transform="translate(-78.000000, -187.000000) translate(78.000000, 187.000000)">
                <path fill="#F4F7FA" fill-rule="nonzero" d="M121.536 8.875C70.561 7.39 26.406 43.914 19.735 91.84c-7.294 52.4 32.851 99.546 82.247 107.098 61.441 9.392 121.033-44.945 115.683-103.892-4.032-44.412-44.312-84.658-96.129-86.17z" opacity=".098"/>
                <path fill="url(#95ogjfq4xa)" fill-rule="nonzero" d="M64.47 180.072c-1.44 3.42-4.124 8.169-6.983 13.64h60.916c-9.305-17.226-21.477-34.97-11.992-68.598 4.45-15.781 18.208-44.387 8.48-60.723-11.082-18.614-26.106-7.705-32.447-22.44C72.53 18.925 49.749 5.208 29.587 20.29c-19.9 14.886-12.964 57.727 22.285 100.58 21.816 33.614 20.122 41.342 12.598 59.203z"/>
                <g style="mix-blend-mode:soft-light" fill="#FCFDFE" fill-rule="nonzero">
                    <path d="M70.789 190.175c-.704-7.908-1.769-15.333-2.895-23.192l-.375-2.62c-.776-3.752-1.439-7.471-2.077-11.069-1.448-8.123-2.814-15.795-5.377-23.779-.096-.474-.166-.938-.24-1.43-.263-1.754-.535-3.569-1.803-5.157l-.034-.07C47.628 80.17 28.298 38.903.545.209L.833 0c27.776 38.72 47.12 80.014 57.493 122.736 1.307 1.656 1.596 3.588 1.852 5.295.074.485.139.947.232 1.393 2.564 7.987 3.934 15.671 5.383 23.806.641 3.595 1.303 7.312 2.076 11.07l.377 2.633c1.128 7.865 2.192 15.293 2.897 23.212l-.354.03z" transform="translate(18.191301, 0.000000)"/>
                    <path d="M64.836 151.85c-3.343-20.415 3.923-46.293 10.608-64.41 7.239-19.618 15.373-34.61 15.454-34.758l.311.169c-.082.149-8.205 15.121-15.433 34.72-6.67 18.073-13.92 43.887-10.59 64.225l-.35.054zM38.242 64.876c-4.754-21.465-4.778-45.096-4.787-52.858 0-1.485 0-2.466-.036-2.652l.346-.062c.038.207.04.982.042 2.714.008 7.756.032 31.356 4.775 52.784l-.34.074zM51.054 98.444C41.038 80.81.41 69.777 0 69.668l.091-.343c.41.11 41.18 11.183 51.27 28.945l-.307.174z" transform="translate(18.191301, 0.000000)"/>
                </g>
                <path fill="url(#54dqzgqxhb)" fill-rule="nonzero" d="M54 111.981c.328 28.024 13.826 18.79 26.273 21.553 14.365 20.812 15.718 40.121-5.73 56.797l-23.898-3.58c-8.868-.413-19.272-3.127-18.686-14.95.664-13.375 3.821-21.864-11.251-28.431C5.635 136.803-.84 124.82 5.264 111.19c6.423-14.345-8.643-33.68 2.368-43.287C26.819 51.161 53.658 82.8 53.999 111.981z"/>
                <g style="mix-blend-mode:soft-light" fill="#FCFDFE" fill-rule="nonzero">
                    <path d="M59.933 101.964c-9.99-10.95-18.619-23.071-25.694-36.101-7.132-13.138-12.57-26.994-16.158-41.186-2.052-8.094-3.495-16.331-4.319-24.642l.36-.035c.822 8.292 2.263 16.511 4.309 24.589 3.582 14.161 9.007 27.99 16.125 41.1 7.062 13.005 15.673 25.103 25.645 36.031l-.268.244zM34.21 117.356l-.163-.323c4.439-2.264 9.674-4.03 15.562-5.248 2.732-.57 5.5-.951 8.284-1.138l.024.36c-2.768.187-5.52.566-8.236 1.133-5.855 1.211-11.06 2.966-15.47 5.216z" transform="translate(0.000000, 60.167400)"/>
                    <path d="M38.891 73.858C26.551 61.905.281 62.997.017 63.008L0 62.648c.266-.012 26.689-1.114 39.142 10.95l-.25.261zM23.674 42.661C19.98 23.591 34.254 1.554 34.401 1.333l.302.2c-.146.218-14.339 22.135-10.67 41.06l-.359.068z" transform="translate(0.000000, 60.167400)"/>
                </g>
                <path fill="url(#l25x7vdyhc)" fill-rule="nonzero" d="M173.176 192.354l-83.967-5.807c-.101-.009-.203-.009-.304 0L38.9 188.815c-1.196.11-1.142 3.246.216 3.417l78.57 10.534c.322.04.648.04.97 0l54.365-7.65c.725-.129.99-2.701.155-2.762z"/>
                <path fill="url(#cojt4wvvrd)" fill-rule="nonzero" d="M173.01 192.261l-83.801-7.918c-.101-.01-.203-.01-.304 0l-49.76 4.375c-.914.08-.937 1.41-.027 1.524l78.57 9.71c.322.04.648.04.97 0l54.365-7.036c.383-.057.373-.618-.014-.655z"/>
                <path fill="url(#lg605zopee)" fill-rule="nonzero" d="M116.856 199c.116-.001.231-.008.346-.023l48.727-6.306c.077-.009.135-.075.133-.152-.001-.078-.06-.142-.138-.148L91.1 185.317h-.097l-47.566 4.18c-.095.008-.167.086-.169.18-.002.096.069.176.162.188l73.092 9.113c.11.014.222.021.333.021z"/>
                <path fill="url(#kkbxfchuff)" fill-rule="nonzero" d="M144.577 195.966c.018.145.476.208 1.023.143.548-.065.978-.24.96-.385-.018-.145-.476-.208-1.023-.143-.548.065-.978.24-.96.385z"/>
                <path fill="url(#i7gp0ou19g)" fill-rule="nonzero" d="M104.952 200.458l7.543.992c.554.07 1.003-.197 1.003-.603 0-.406-.451-.788-1.003-.852l-7.543-.882c-.466-.055-.84.2-.84.568 0 .368.374.716.84.777z"/>
                <path fill="url(#5bof0vdfsh)" fill-rule="nonzero" d="M96.713 199.374l6.212.817c.45.06.818-.189.818-.554 0-.368-.368-.708-.818-.763l-6.212-.726c-.386-.045-.697.19-.697.526s.311.65.697.7z"/>
                <path fill="url(#ab3emiiz6i)" fill-rule="nonzero" d="M86.304 198.005l4.725.623c.34.045.616-.176.616-.494s-.277-.608-.616-.648l-4.725-.555c-.136-.02-.274.02-.378.11-.103.09-.161.223-.159.36.01.305.235.56.537.604z"/>
                <path fill="#FFF" fill-rule="nonzero" d="M77.559 189.228c7.302 1.302 12.151 3.95 22.63 4.165 9.078.183 9.145-1.91 19.696-2.573 13.821-.867 17.424 2.495 31.559 2.205 4.771-.1 9.527-.587 14.22-1.455l7.345.693c.387.037.396.598.01.648l-54.365 7.036c-.321.04-.647.04-.969 0l-66.502-8.217c11.411-3.81 20.149-3.612 26.376-2.502z" opacity=".6" style="mix-blend-mode:soft-light"/>
                <path fill="#FFF" fill-rule="nonzero" d="M94.866 193.076c-3.89 0-9.68-.674-9.68-2.532s5.79-2.532 9.68-2.532c3.89 0 9.68.675 9.68 2.532s-5.788 2.532-9.68 2.532zm0-4.324c-5.87 0-8.942 1.167-8.942 1.792s3.072 1.793 8.942 1.793 8.942-1.167 8.942-1.793c0-.626-3.071-1.792-8.942-1.792z"/>
                <ellipse fill="#FFF" fill-rule="nonzero" opacity=".6" style="mix-blend-mode:soft-light" cx="94.866" cy="190.545" rx="4.232" ry="1"/>
                <path fill="#FFF" fill-rule="nonzero" d="M154.617 103.807l-50.076 81.982-.457.748-.608.996-1.064 1.743-.774 1.264c0 .844-2.846 1.53-6.422 1.571h-.346c-3.738 0-6.772-.703-6.772-1.573l-.708-1.287-1.42-2.576-.484-.88-.607-1.102-2.98-5.415-5.134-9.322-5.783-10.506-.577-1.05-6.39-11.611-4.064-7.374-17.983-32.663c4.161-3.193 13.874-10.105 28.032-14.86 2.104-.708 4.304-1.367 6.601-1.959.531-.138 1.068-.272 1.61-.4.406-.098.815-.194 1.227-.284.323-.076.651-.147.98-.217h.004c5.206-1.117 10.498-1.792 15.818-2.018.678-.03 1.362-.052 2.052-.069 9.637-.205 19.25 1.06 28.507 3.75.276.077.548.158.818.24l.234.068c.869.261 1.72.532 2.555.811 2.284.758 4.433 1.567 6.45 2.398 8.506 3.51 14.597 7.418 17.76 9.595z" opacity=".56"/>
                <path fill="#97A6B7" fill-rule="nonzero" d="M137.3 115.89L134.222 114.726 137.726 111.167zM120.698 109.219L117.134 107.755 120.646 104.823zM98.942 67.747L102.389 68.939 102.651 65.98zM102.57 90.441L105.93 91.657 106.642 89.41zM145.845 134.558L143.988 134.142 143.029 135.699zM133.122 140.027L135.172 140.479 134.074 141.831z"/>
                <ellipse cx="144.596" cy="89.202" fill="#D8DEE8" fill-rule="nonzero" rx="12.135" ry="17.076"/>
                <path fill="#FFF" fill-rule="nonzero" d="M107.508 47.824H84.669c-23.42 0-42.404 19.01-42.404 42.46 0 12.514 10.13 22.657 22.627 22.657h62.393c12.497 0 22.631-10.143 22.631-22.657-.004-23.45-18.99-42.46-42.408-42.46zM103.497 159.37H88.679c-15.193 0-27.51-12.335-27.51-27.547 0-8.118 6.574-14.699 14.68-14.699h40.478c8.108 0 14.68 6.584 14.68 14.7 0 15.214-12.317 27.546-27.51 27.546z"/>
                <path fill="url(#uev44vmm3j)" fill-rule="nonzero" d="M128.24 103.783H84.824c-5.883 0-10.71-4.516-10.71-10.087v-8.542c0-5.57 4.827-9.932 10.71-9.744l43.416 1.386c5.254.168 9.466 4.499 9.466 9.676v7.937c0 5.177-4.212 9.374-9.466 9.374z"/>
                <path fill="#FFF" fill-rule="nonzero" d="M98.734 88.972c0 3.72-3.163 6.696-7.095 6.646-3.97-.05-7.212-3.156-7.212-6.937 0-3.78 3.243-6.755 7.212-6.644 3.932.113 7.095 3.215 7.095 6.935zM128.074 89.57c0 3.594-2.954 6.472-6.626 6.425-3.704-.046-6.73-3.05-6.73-6.698 0-3.648 3.026-6.527 6.73-6.423 3.672.102 6.626 3.1 6.626 6.696z"/>
                <path fill="#FFF" fill-rule="nonzero" d="M111.843 106.985c-6.457-7.596-3.587-13.671-12.029-23.966C88.2 68.854 74.65 70.457 71.546 60.85c-.86-2.662-.958-6.316 1.349-11.365-17.691 5.11-30.63 21.44-30.63 40.8 0 12.514 10.13 22.658 22.626 22.658h54.375c-3.256-1.78-5.637-3.856-7.423-5.958z" opacity=".3" style="mix-blend-mode:soft-light"/>
                <ellipse cx="48.367" cy="89.082" fill="#D8DEE8" fill-rule="nonzero" rx="12.135" ry="17.076"/>
                <ellipse cx="38.767" cy="89.082" fill="#BFC8D6" fill-rule="nonzero" rx="5.306" ry="7.467"/>
                <path fill="#D8DEE8" fill-rule="nonzero" d="M107.146 144.205c-2.033-9.56-24.52-9.329-25.131-15.578-.471-4.817 12.44-9.586 14.062-10.187 1.384-.513 2.768-.947 4.128-1.317H75.848c-8.107 0-14.68 6.584-14.68 14.7 0 15.214 12.32 27.547 27.51 27.547h14.819c1.402 0 2.802-.106 4.188-.317-1.29-1.6-2.13-3.35-2.334-5.262-.451-4.234 2.583-5.88 1.795-9.586z" opacity=".4" style="mix-blend-mode:multiply"/>
                <ellipse cx="96.453" cy="117.943" fill="#D8DEE8" fill-rule="nonzero" rx="23.402" ry="2.837"/>
                <path fill="#FFF" fill-rule="nonzero" d="M68.29 125.606c-1.739 1.427-1.993 3.996-.568 5.738l11.746 14.355 6.298-5.17-11.747-14.351c-1.424-1.742-3.989-1.998-5.729-.572z"/>
                <path fill="#FFF" fill-rule="nonzero" d="M105.11 139.185c-.121-1.075-.664-2.057-1.51-2.73-.845-.674-1.922-.983-2.995-.86l-18.413 2.095.92 8.103 18.41-2.096c1.073-.122 2.055-.665 2.728-1.512.673-.846.983-1.925.86-3z"/>
                <circle cx="82.192" cy="142.484" r="5.912" fill="url(#evspl207rk)" fill-rule="nonzero" transform="translate(82.191975, 142.484388) rotate(-45.000000) translate(-82.191975, -142.484388)"/>
                <g transform="translate(105.542075, 106.514891)">
                    <path fill="#F7902C" fill-rule="nonzero" d="M55.717 27.74c0 15.322-12.472 27.742-27.858 27.742C12.473 55.482 0 43.062 0 27.74S12.473 0 27.859 0c15.386 0 27.858 12.42 27.858 27.74z"/>
                    <path fill="#F3732D" fill-rule="nonzero" d="M4.936 33.727c-.168-.325-.33-.653-.486-.985h.287c.06.33.127.659.2.985zM4.474 30.984h-.776c-.299-.772-.564-1.56-.794-2.364H4.3c.025.796.083 1.586.174 2.364zM14.523 6.254H10.24c1.067-.869 2.2-1.66 3.389-2.364h4.282c-1.189.705-2.32 1.496-3.387 2.364zM10.418 10.375H6.135c.668-.828 1.383-1.618 2.142-2.364h4.284c-.758.746-1.474 1.536-2.143 2.364zM7.66 14.497H3.374c.445-.814.93-1.603 1.452-2.364h4.285c-.522.761-1.006 1.55-1.451 2.364zM21.416 2.132h-4.283C20.241.84 23.633.092 27.19.008c.752.014 1.498.055 2.235.123-2.813.271-5.503.959-8.009 2zM4.3 26.862H2.464c-.167-.777-.302-1.565-.403-2.364h2.413c-.09.779-.15 1.567-.174 2.364zM5.827 18.619h-3.88c.043-.505.1-1.005.17-1.502-.12.29-.236.582-.347.876.222-.59.463-1.17.724-1.739h4.285c-.352.77-.67 1.559-.952 2.365zM4.737 22.74h-2.84c-.036-.572-.054-1.15-.054-1.73 0-.212.003-.423.007-.634h3.428c-.213.775-.394 1.564-.54 2.364z"/>
                    <path fill="#009259" fill-rule="nonzero" d="M27.859 55.482C12.473 55.482 0 43.062 0 27.74c0 15.32 12.473 27.74 27.859 27.74h.021-.021z"/>
                    <path fill="#F3732D" fill-rule="nonzero" d="M27.859 55.482C12.473 55.482 0 43.062 0 27.74v-.089-.066-.022c.022-3.367.646-6.59 1.77-9.571-.078.207-.154.416-.227.626h.404c-.05.58-.083 1.167-.097 1.757H.994C.781 21.151.6 21.94.452 22.74h1.444c.037.591.092 1.177.165 1.758H.191c-.092.779-.15 1.567-.176 2.364h2.45c.127.593.274 1.18.44 1.758H.014c.025.797.085 1.585.176 2.364h3.507c.23.596.482 1.182.752 1.758H.452c.147.8.329 1.589.542 2.364h4.284c.164.594.347 1.18.55 1.757H1.542c.282.806.599 1.594.95 2.364H6.78c.273.598.567 1.184.88 1.758H3.375c.445.813.93 1.602 1.452 2.364h4.285c.413.604.85 1.19 1.308 1.758H6.135c.669.828 1.384 1.618 2.142 2.364h4.284c.626.616 1.28 1.202 1.962 1.757h-4.284c1.067.868 2.2 1.659 3.389 2.364h4.282c1.12.664 2.292 1.253 3.506 1.758h-4.282c3.107 1.292 6.499 2.04 10.056 2.123.752-.014 1.497-.054 2.234-.122.192.019.384.035.578.05-.357.027-.716.047-1.077.06h-.001l-.02.002h-.02l-.121.005H28.719l-.016.001H28.682l-.006.001h-.02l-.016.001H28.618l-.08.003h-.045l-.013.001H28.438l-.01.001h-.042l-.013.001h-.031l-.022.001h-.064l-.01.001H28.193l-.013.001H28.106l-.022.001h-.225z"/>
                    <path fill="#F15B2E" fill-rule="nonzero" d="M6.779 39.227H2.494c-.352-.77-.67-1.558-.95-2.364h4.283c.282.805.6 1.595.952 2.364zM5.278 35.106H.994C.781 34.33.6 33.542.452 32.742H4.45c.156.332.318.66.486.985.103.464.217.924.342 1.379zM9.11 43.349H4.827c-.522-.762-1.007-1.55-1.452-2.364H7.66c.445.813.93 1.602 1.45 2.364zM12.561 47.471H8.277c-.758-.746-1.473-1.536-2.142-2.364h4.284c.668.828 1.384 1.618 2.142 2.364zM17.91 51.592h-4.282c-1.19-.705-2.322-1.496-3.39-2.364h4.285c1.066.868 2.198 1.659 3.387 2.364zM3.698 30.984H.191C.1 30.205.04 29.417.015 28.62h2.89c.23.804.494 1.592.793 2.364zM27.19 55.473c-3.557-.083-6.95-.831-10.056-2.123h4.282c2.505 1.042 5.196 1.73 8.008 2.001-.737.068-1.482.108-2.234.122zM2.464 26.862H.015c.025-.797.084-1.585.176-2.364h1.87c.101.8.236 1.587.403 2.364zM1.947 18.619h-.404c.073-.21.15-.419.227-.626.111-.294.227-.586.348-.876-.07.497-.128.997-.171 1.502zM1.896 22.74H.452c.147-.8.329-1.589.542-2.364h.856c-.004.211-.007.422-.007.634 0 .58.018 1.158.053 1.73z"/>
                    <path fill="#F6B823" fill-rule="nonzero" d="M60.003 27.74c0 15.322-12.472 27.742-27.858 27.742-15.386 0-27.859-12.42-27.859-27.741S16.759 0 32.145 0C47.53 0 60.003 12.42 60.003 27.74z"/>
                    <path fill="#F7902C" fill-rule="nonzero" d="M54.515 27.74c0 12.303-10.016 22.276-22.37 22.276-12.355 0-22.37-9.973-22.37-22.275 0-12.302 10.015-22.276 22.37-22.276 12.354 0 22.37 9.974 22.37 22.276z"/>
                    <g>
                        <path fill="#F3732D" d="M13.76 3.088c6.24 0 11.298 5.004 11.298 11.176 0 1.442-.276 2.82-.779 4.085-.606.987-1.196 1.83-1.77 2.533-.573.701-1.508 1.722-2.803 3.06l-3.835-3.796 2.8-3.186c.243-.57.846-1.236.573-3.45-.284-2.302-2.578-4.07-5.548-4.07S8.32 11.82 8.32 14.76c0 1.878.909 3.22 1.739 4.055l7.619 5.503.096 1.364-4.013 3.934-8.222-7.975-.017-.017-.134-.13.011-.009c-1.105-1.26-1.821-2.296-2.147-3.11-.509-1.273-.788-2.66-.788-4.11 0-6.173 5.058-11.177 11.297-11.177z" transform="translate(18.585965, 13.090113) translate(13.760311, 16.351627) rotate(-10.000000) translate(-13.760311, -16.351627)"/>
                        <path fill="#F6B823" d="M13.428 1.761c6.24 0 11.298 5.004 11.298 11.177 0 1.441-.276 2.82-.779 4.085-.606.986-1.196 1.83-1.77 2.532-.573.702-1.508 1.722-2.803 3.061L15.54 18.82l2.8-3.187c.243-.57.846-1.235.573-3.449-.285-2.302-2.578-4.071-5.548-4.071s-5.377 2.382-5.377 5.32c0 1.9.93 3.25 1.766 4.083l7.688 6.84-4.013 3.933-8.222-7.975c-.007-.004-.012-.01-.017-.016l-.135-.13.012-.01c-1.106-1.259-1.821-2.296-2.147-3.11-.509-1.272-.788-2.659-.788-4.11C2.13 6.765 7.189 1.76 13.428 1.76z" transform="translate(18.585965, 13.090113) translate(13.428032, 15.025227) rotate(-10.000000) translate(-13.428032, -15.025227)"/>
                    </g>
                    <ellipse cx="23.096" cy="18.831" fill="#FFAF57" fill-opacity=".57" rx="6.804" ry="14.606" transform="translate(23.095792, 18.830761) rotate(47.000000) translate(-23.095792, -18.830761)"/>
                    <path fill="#F3732D" fill-rule="nonzero" d="M32.145 50.016h-.213l-.012-.001h-.082l-.037-.001h-.023l-.015-.001h-.043l-.013-.001h-.038l-.006-.001H31.627l-.014-.001h-.024l-.016-.001H31.552l-.133-.004-.018-.001H31.379l-.016-.001H31.342L31.324 50h-.019c-6.209-.229-11.77-2.976-15.685-7.247 3.777 2.901 8.51 4.628 13.65 4.628 12.354 0 22.369-9.973 22.369-22.275 0-5.785-2.215-11.054-5.845-15.014 5.19 3.986 8.573 10.188 8.716 17.185v.044l.001.019v.042l.001.02v.065l.001.04v.067l.001.014v.152c0 12.302-10.015 22.275-22.37 22.275z"/>
                    <path fill="#F7902C" fill-rule="nonzero" d="M32.382 3.038c-13.679 0-24.807 11.082-24.807 24.703 0 13.62 11.128 24.702 24.807 24.702 13.679 0 24.807-11.081 24.807-24.702 0-13.621-11.128-24.703-24.807-24.703zm0 50.14c-14.085 0-25.545-11.411-25.545-25.437 0-14.026 11.46-25.437 25.545-25.437s25.544 11.41 25.544 25.437c0 14.026-11.459 25.437-25.544 25.437z"/>
                    <path fill="#FFF" fill-rule="nonzero" d="M12.613 4.435L11.35 2.135 10.086 4.435 7.776 5.693 10.086 6.951 11.35 9.251 12.613 6.951 14.922 5.693zM8.562 11.295L7.776 9.865 6.991 11.295 5.555 12.077 6.991 12.859 7.776 14.288 8.562 12.859 9.998 12.077zM14.076 11.43L13.612 10.586 13.149 11.43 12.302 11.891 13.149 12.352 13.612 13.196 14.076 12.352 14.923 11.891z"/>
                </g>
                <path fill="url(#7i5azhmvdl)" fill-rule="nonzero" d="M101.352 136.347l3.041 7.474c.452 1.109 2.166 1.442 3.474.653 1.917-1.156 4.015-3.127 3.166-5.978-1.07-3.608-4.253-4.643-6.872-4.858-1.777-.143-3.349 1.382-2.809 2.709z"/>
            </g>
        </g>
    </g>
</svg>
