<svg xmlns="http://www.w3.org/2000/svg" width="30" height="30" viewBox="0 0 30 30">
    <g fill="none" fill-rule="evenodd">
        <g>
            <g transform="translate(-870.000000, -1464.000000) translate(870.000000, 1464.000000)">
                <rect width="30" height="30" fill="#FF936A" fill-opacity=".1" rx="15"/>
                <g fill-rule="nonzero">
                    <path fill="#ED8117" d="M2.674 12.908c.79.552 2.24-.136 3.267-1.535l.044-.055c.565-.794.37-1.892-.434-2.454-.805-.561-1.915-.373-2.48.421l-.038.06c-.984 1.43-1.15 3.012-.36 3.563" transform="translate(9.000000, 8.000000)"/>
                    <path fill="#EEBB18" d="M3.482 11.85c.55.375 1.566-.102 2.29-1.065.01-.012.021-.024.031-.038.191-.26.268-.584.213-.9-.055-.316-.238-.597-.506-.78-.56-.381-1.337-.247-1.735.299-.01.013-.018.027-.027.04-.694.984-.816 2.07-.266 2.444" transform="translate(9.000000, 8.000000)"/>
                    <g fill="#5B6A72">
                        <path d="M.066 2.205c-.083.105-.124.263.102.194.643-.197 2.1-.426 3.793.728 2.286 1.559 2.1-2.481 2.1-2.481C5.52.276 2.788-1.226.067 2.205m8.69 6.09c.01.23.146.14.218.03 2.353-3.616.01-5.608-.523-5.98 0 0-3.906 1.169-1.658 2.735 1.665 1.16 1.935 2.565 1.963 3.216" transform="translate(9.000000, 8.000000) translate(0.000000, 5.099669)"/>
                    </g>
                    <path fill="#DCF2F9" d="M6.381 10.793c.447.324.716.377 1.04-.017.325-.394 2.031-2.361 3.736-4.53 1.704-2.169.664-5.901.46-6.05l-.003.003.002-.004C11.41.047 7.652.294 6.246 2.68c-1.407 2.385-2.63 4.704-2.88 5.151-.25.447-.111.693.335 1.017l1.34.973 1.34.973" transform="translate(9.000000, 8.000000)"/>
                    <path fill="#5B6A72" d="M6.884 11.272h-.018c-.204-.005-.416-.095-.71-.3l-1.357-.944-.034-.024-.904-.628-.488-.34c-.293-.204-.45-.371-.524-.558-.115-.294.01-.562.112-.74.054-.092.153-.267.29-.509.502-.89 1.547-2.743 2.703-4.619.415-.675 1.051-1.242 1.89-1.685.442-.234 1.182-.556 2.19-.762.398-.082.807-.137 1.15-.156.526-.029.619.036.664.068l.004.003c.046.032.138.106.285.594.097.327.182.727.239 1.127.154 1.095.235 3.151-.96 4.609-1.4 1.706-2.814 3.302-3.493 4.07-.185.208-.319.359-.389.44-.102.119-.202.205-.306.263-.104.06-.223.09-.344.091M11.434.436c-.369 0-1.174.075-2.081.348-.984.296-2.306.892-3.02 2.052C5.183 4.705 4.14 6.553 3.638 7.44l-.292.515c-.12.205-.107.303-.083.365.039.098.155.213.366.36l.488.339.904.628.034.024 1.357.945c.435.303.565.275.784.02.072-.084.206-.236.393-.446.677-.765 2.087-2.357 3.481-4.056.866-1.055.989-2.487.94-3.502-.054-1.1-.32-1.974-.426-2.19-.05-.005-.1-.008-.15-.007" transform="translate(9.000000, 8.000000)"/>
                    <path fill="#FEFEFE" d="M7.757 5.444c.713.493 1.697.326 2.197-.375.501-.7.331-1.668-.381-2.161-.712-.494-1.696-.326-2.197.374-.501.7-.33 1.668.381 2.162" transform="translate(9.000000, 8.000000)"/>
                    <path fill="#5B6A72" d="M8.662 5.946c-.671-.002-1.286-.37-1.594-.957-.309-.586-.26-1.293.126-1.833.275-.384.694-.644 1.164-.724.47-.08.954.026 1.344.297.811.562 1.006 1.669.435 2.466-.274.385-.693.646-1.164.725-.102.017-.207.026-.31.026m.005-3.103c-.079 0-.157.006-.235.02-.354.059-.669.255-.875.545-.43.6-.283 1.434.328 1.857.293.204.657.284 1.011.224.354-.06.67-.257.876-.546.43-.6.283-1.433-.328-1.857-.227-.158-.499-.243-.777-.243" transform="translate(9.000000, 8.000000)"/>
                </g>
            </g>
        </g>
    </g>
</svg>
