<svg width="121" height="120" xmlns="http://www.w3.org/2000/svg" xmlns:xlink="http://www.w3.org/1999/xlink">
    <defs>
        <path d="M4.115 52.717c-1.246 0-2.845-.047-4.115 0V16.695C5.436 5.565 19.392 0 41.869 0s36.433 5.565 41.869 16.695V86.87c0 3.024-3.232 9.01-11.492 13.051-6.892 3.372-18.967 5.128-19.749 5.128.212-1.121.494-2.873.494-3.738V78.883c.024-17.172-24.567-26.166-48.876-26.166z" id="a"/>
    </defs>
    <g fill="none" fill-rule="evenodd">
        <g transform="translate(37.262)">
            <mask id="b" fill="#fff">
                <use xlink:href="#a"/>
            </mask>
            <path d="M.353 78.883v7.475c0 10.327 18.526 18.69 41.377 18.69 22.851 0 41.377-8.363 41.377-18.69v-7.475H.353z" fill="#FFC107" fill-rule="nonzero" mask="url(#b)"/>
            <ellipse fill="#FFD54F" fill-rule="nonzero" mask="url(#b)" cx="41.73" cy="78.883" rx="41.377" ry="18.69"/>
            <g mask="url(#b)" fill="#FFE082" fill-rule="nonzero">
                <path d="M68.06 93.297v7.476c2.869-1.075 5.384-2.313 7.524-3.691v-6.986h-.823c-1.951 1.192-4.185 2.267-6.7 3.201zM53.015 96.848v7.476a77.185 77.185 0 0 0 7.523-1.332v-7.476a70.74 70.74 0 0 1-7.523 1.332z"/>
            </g>
            <path d="M.353 63.93v7.477c0 10.326 18.526 18.69 41.377 18.69 22.851 0 41.377-8.364 41.377-18.69V63.93H.353z" fill="#FFC107" fill-rule="nonzero" mask="url(#b)"/>
            <ellipse fill="#FFD54F" fill-rule="nonzero" mask="url(#b)" cx="41.73" cy="63.931" rx="41.377" ry="18.69"/>
            <g mask="url(#b)" fill="#FFE082" fill-rule="nonzero">
                <path d="M68.06 78.345v7.476c2.869-1.075 5.384-2.313 7.524-3.691v-6.985h-.823c-1.951 1.191-4.185 2.266-6.7 3.2zM53.015 81.896v7.476a77.185 77.185 0 0 0 7.523-1.331v-7.476a70.74 70.74 0 0 1-7.523 1.331z"/>
            </g>
            <path d="M.353 48.979v7.476c0 10.326 18.526 18.69 41.377 18.69 22.851 0 41.377-8.364 41.377-18.69v-7.476H.353z" fill="#FFC107" fill-rule="nonzero" mask="url(#b)"/>
            <ellipse fill="#FFD54F" fill-rule="nonzero" mask="url(#b)" cx="41.73" cy="48.979" rx="41.377" ry="18.69"/>
            <g mask="url(#b)" fill="#FFE082" fill-rule="nonzero">
                <path d="M68.06 63.393v7.476c2.869-1.074 5.384-2.313 7.524-3.69v-6.986h-.823c-1.951 1.191-4.185 2.266-6.7 3.2zM53.015 66.944v7.476a77.185 77.185 0 0 0 7.523-1.331v-7.476a70.74 70.74 0 0 1-7.523 1.331z"/>
            </g>
            <path d="M.353 34.027v7.476c0 10.326 18.526 18.69 41.377 18.69 22.851 0 41.377-8.364 41.377-18.69v-7.476H.353z" fill="#FFC107" fill-rule="nonzero" mask="url(#b)"/>
            <ellipse fill="#FFD54F" fill-rule="nonzero" mask="url(#b)" cx="41.73" cy="34.027" rx="41.377" ry="18.69"/>
            <g mask="url(#b)" fill="#FFE082" fill-rule="nonzero">
                <path d="M68.06 48.442v7.476c2.869-1.075 5.384-2.313 7.524-3.692v-6.985h-.823c-1.951 1.191-4.185 2.266-6.7 3.2zM53.015 51.993v7.476a77.185 77.185 0 0 0 7.523-1.332V50.66a70.74 70.74 0 0 1-7.523 1.332z"/>
            </g>
            <path d="M.353 19.075v7.476c0 10.326 18.526 18.69 41.377 18.69 22.851 0 41.377-8.364 41.377-18.69v-7.476H.353z" fill="#FFC107" fill-rule="nonzero" mask="url(#b)"/>
            <ellipse fill="#FFD54F" fill-rule="nonzero" mask="url(#b)" cx="41.73" cy="19.075" rx="41.377" ry="18.69"/>
            <ellipse fill="#F7B900" fill-rule="nonzero" mask="url(#b)" cx="41.847" cy="17.638" rx="36.205" ry="15.302"/>
            <path d="M41.847 32.94c19.995 0 36.205-6.947 36.205-14.882S61.725 4.609 41.73 4.609 6.435 10.123 6.435 18.058 21.852 32.94 41.847 32.94z" fill="#FFC107" fill-rule="nonzero" mask="url(#b)"/>
            <g mask="url(#b)" fill="#FFE082" fill-rule="nonzero">
                <path d="M68.06 33.49v7.476c2.869-1.075 5.384-2.313 7.524-3.692V30.29h-.823c-1.951 1.192-4.185 2.266-6.7 3.2zM53.015 37.04v7.477a77.185 77.185 0 0 0 7.523-1.332V35.71a70.74 70.74 0 0 1-7.523 1.332z"/>
            </g>
        </g>
        <g transform="translate(0 60.193)" fill-rule="nonzero">
            <path d="M0 33.642v7.475c0 10.327 18.526 18.69 41.377 18.69 22.851 0 41.377-8.363 41.377-18.69v-7.475H0z" fill="#FFC107"/>
            <ellipse fill="#FFD54F" cx="41.377" cy="33.642" rx="41.377" ry="18.69"/>
            <g fill="#FFE082">
                <path d="M67.708 48.056v7.476c2.868-1.075 5.383-2.313 7.523-3.691v-6.986h-.823c-1.951 1.192-4.185 2.267-6.7 3.201zM52.661 51.607v7.476a77.185 77.185 0 0 0 7.524-1.332v-7.476a70.74 70.74 0 0 1-7.524 1.332z"/>
            </g>
            <path d="M0 18.69v7.476c0 10.326 18.526 18.69 41.377 18.69 22.851 0 41.377-8.364 41.377-18.69V18.69H0z" fill="#FFC107"/>
            <ellipse fill="#FFD54F" cx="41.377" cy="18.69" rx="41.377" ry="18.69"/>
            <ellipse fill="#F7B900" cx="41.377" cy="17.253" rx="36.205" ry="15.302"/>
            <path d="M41.377 32.555c19.995 0 36.205-7.069 36.205-14.617 0-7.548-16.21-12.717-36.205-12.717-19.995 0-35.134 5.17-35.134 12.717 0 7.548 15.139 14.617 35.134 14.617z" fill="#FFC107"/>
            <g fill="#FFE082">
                <path d="M67.708 33.104v7.476c2.868-1.075 5.383-2.313 7.523-3.691v-6.985h-.823c-1.951 1.191-4.185 2.266-6.7 3.2zM52.661 36.655v7.476a77.185 77.185 0 0 0 7.524-1.331v-7.476a70.74 70.74 0 0 1-7.524 1.331z"/>
            </g>
        </g>
        <g fill="#FFF" fill-rule="nonzero">
            <path d="M42.359 6.578 38.909.386l-3.45 6.192-6.307 3.386 6.307 3.387 3.45 6.192 3.45-6.192 6.306-3.387zM31.154 25.03l-2.12-3.852-2.119 3.851-3.876 2.107 3.876 2.106 2.119 3.85 2.12-3.85 3.875-2.106zM46.15 25.312l-1.247-2.265-1.246 2.265-2.28 1.24 2.28 1.238 1.246 2.266 1.247-2.266 2.28-1.239z"/>
        </g>
    </g>
</svg>
