<svg width="30" height="30" xmlns="http://www.w3.org/2000/svg" xmlns:xlink="http://www.w3.org/1999/xlink">
    <defs>
        <linearGradient x1="29.201%" y1="7.155%" x2="76.918%" y2="100%" id="b">
            <stop stop-color="#18A6D8" offset="0%"/>
            <stop stop-color="#02629A" offset="100%"/>
        </linearGradient>
        <path d="M18.491 9h.022c.415 0 .875.092 1.243.325a2.538 2.538 0 0 1 0 4.364c-.415.233-.921.325-1.381.325a.948.948 0 0 0-.966.975c0 .696.55.974.966.974.506 0 .966.092 1.381.325a2.538 2.538 0 0 1 0 4.364 2.393 2.393 0 0 1-2.485 0 2.533 2.533 0 0 1-1.243-2.182c0-.464.137-.927.368-1.346.229-.464.091-1.07-.368-1.347-.644-.372-1.15.047-1.335.372-.229.42-.55.789-.966 1.022a2.393 2.393 0 0 1-2.485 0A2.532 2.532 0 0 1 10 15.083v-.188a2.542 2.542 0 0 1 1.242-2.091 2.393 2.393 0 0 1 2.485 0c.415.278.737.65 1.013 1.022.275.463.875.65 1.334.372.644-.325.553-.975.369-1.347-.231-.417-.415-.883-.415-1.346 0-.883.462-1.719 1.243-2.182.354-.223.797-.319 1.199-.323h.021z" id="a"/>
    </defs>
    <g fill="none" fill-rule="evenodd">
        <rect fill-opacity=".15" fill="#009AE1" width="30" height="30" rx="15"/>
        <use fill="url(#b)" xlink:href="#a"/>
    </g>
</svg>
