<svg width="53" height="75" xmlns="http://www.w3.org/2000/svg">
    <g fill="none" fill-rule="evenodd">
        <path d="M50.124 26.444a.287.287 0 0 1 0-.314l2.183-3.381a4.313 4.313 0 0 0-1.673-6.195l-3.596-1.845a.296.296 0 0 1-.16-.275l.187-4.013a4.332 4.332 0 0 0-1.275-3.27 4.378 4.378 0 0 0-3.295-1.264l-4.048.186c-.085-.007-.221-.057-.276-.158l-1.857-3.567a4.379 4.379 0 0 0-2.755-2.2 4.4 4.4 0 0 0-3.49.539l-3.41 2.166h-.001a.293.293 0 0 1-.317 0L22.933.688a4.402 4.402 0 0 0-3.492-.54 4.368 4.368 0 0 0-2.753 2.2l-1.86 3.567a.293.293 0 0 1-.277.16l-4.047-.19c-1.2-.071-2.427.405-3.296 1.265a4.323 4.323 0 0 0-1.274 3.27l.187 4.014a.296.296 0 0 1-.159.274l-3.596 1.843a4.357 4.357 0 0 0-2.218 2.733 4.313 4.313 0 0 0 .544 3.462l2.184 3.384a.287.287 0 0 1 0 .314L.693 29.825a4.313 4.313 0 0 0 1.673 6.195l3.596 1.844c.102.053.166.16.16.275l-.188 4.017a4.332 4.332 0 0 0 1.274 3.27c.87.862 2.082 1.342 3.296 1.264l4.047-.186a.336.336 0 0 1 .276.157l1.858 3.568a4.379 4.379 0 0 0 3.881 2.346c.83 0 1.654-.235 2.364-.687l3.411-2.166a.29.29 0 0 1 .317 0l3.408 2.165a4.402 4.402 0 0 0 3.492.54 4.368 4.368 0 0 0 2.753-2.2l1.86-3.567c.052-.1.168-.152.276-.159l4.046.186c1.192.067 2.426-.404 3.296-1.265a4.325 4.325 0 0 0 1.275-3.269l-.188-4.015a.296.296 0 0 1 .16-.274l3.595-1.843a4.357 4.357 0 0 0 2.218-2.732 4.313 4.313 0 0 0-.543-3.462l-2.182-3.383zm-11.913-5.266c-4.765 3.462-9.197 7.86-13.17 13.07a2.044 2.044 0 0 1-1.626.803h-.008a2.044 2.044 0 0 1-1.627-.815c-2.115-2.817-4.17-4.865-6.29-6.263a2.014 2.014 0 0 1-.568-2.804 2.053 2.053 0 0 1 2.827-.564c1.94 1.28 3.805 2.978 5.658 5.156 3.79-4.638 7.952-8.617 12.393-11.844a2.051 2.051 0 0 1 2.85.435 2.01 2.01 0 0 1-.44 2.826z" fill="#009AE1" fill-rule="nonzero"/>
        <ellipse fill-opacity=".1" fill="#FFF" cx="26.181" cy="71.298" rx="24.666" ry="3.702"/>
    </g>
</svg>
