<svg width="30" height="30" xmlns="http://www.w3.org/2000/svg">
    <g fill="none" fill-rule="evenodd">
        <rect fill-opacity=".4" fill="#7F5CC8" width="30" height="30" rx="15"/>
        <g fill-rule="nonzero">
            <path d="M15.56 9A4.572 4.572 0 0 0 11 13.546c0 .502.081 1 .24 1.477a.653.653 0 0 0 .803.398c.32-.122.49-.47.387-.797a2.99 2.99 0 0 1-.177-1.159 3.285 3.285 0 0 1 3.387-3.179 3.284 3.284 0 0 1 3.19 3.377 3.284 3.284 0 0 1-3.09 3.174s-.64.04-.958.078a3.32 3.32 0 0 0-.348.069.042.042 0 0 1-.06 0 .042.042 0 0 1 0-.05l.099-.54.6-2.695a.625.625 0 0 0-1.223-.26c.001 0-1.429 6.597-1.429 6.656a.599.599 0 0 0 .445.731h.033a.6.6 0 0 0 .736-.446.153.153 0 0 1 0-.03c.018-.078.198-.955.198-.955a1.62 1.62 0 0 1 1.343-1.273c.138-.021.718-.06.718-.06a4.547 4.547 0 0 0 4.083-4.972A4.552 4.552 0 0 0 15.56 9z" fill="#FFE5E5"/>
            <path d="M15.837 19.482a.76.76 0 0 0-.899.587l-.002.012a.755.755 0 0 0 .58.898h.02c.401.096.804-.149.9-.547l.002-.01v-.041a.786.786 0 0 0-.601-.9z" fill="#E6007A"/>
        </g>
    </g>
</svg>
