<svg width="350" height="532" xmlns="http://www.w3.org/2000/svg" xmlns:xlink="http://www.w3.org/1999/xlink">
    <defs>
        <path d="M29.895 15h.035c.68 0 1.432.153 2.035.541A4.238 4.238 0 0 1 34 19.178a4.246 4.246 0 0 1-2.035 3.637c-.68.389-1.508.542-2.26.542-.902 0-1.581.694-1.581 1.624 0 1.161.9 1.624 1.58 1.624.83 0 1.581.153 2.26.542A4.238 4.238 0 0 1 34 30.783a4.246 4.246 0 0 1-2.035 3.637 3.855 3.855 0 0 1-4.067 0 4.238 4.238 0 0 1-2.035-3.637c0-.772.226-1.545.604-2.244.374-.773.149-1.78-.604-2.244-1.053-.62-1.882.079-2.184.62-.374.698-.9 1.314-1.58 1.703a3.856 3.856 0 0 1-4.067 0A4.234 4.234 0 0 1 16 25.138v-.313a4.25 4.25 0 0 1 2.032-3.485 3.856 3.856 0 0 1 4.067 0c.68.463 1.206 1.083 1.657 1.703.45.773 1.432 1.083 2.184.62 1.054-.542.905-1.625.603-2.244-.378-.695-.68-1.472-.68-2.245 0-1.47.756-2.864 2.035-3.636.58-.372 1.304-.53 1.962-.538h.035z" id="a"/>
    </defs>
    <g fill="none" fill-rule="evenodd">
        <rect fill-opacity=".2" fill="#009AE1" y="80" width="105" height="121" rx="6.452"/>
        <rect fill-opacity=".2" fill="#009AE1" y="354" width="105" height="121" rx="6.452"/>
        <rect fill-opacity=".2" fill="#009AE1" y="217" width="105" height="121" rx="6.452"/>
        <rect fill-opacity=".2" fill="#009AE1" x="245" y="80" width="105" height="121" rx="6.452"/>
        <rect fill-opacity=".2" fill="#009AE1" x="245" y="217" width="105" height="121" rx="6.452"/>
        <rect fill-opacity=".2" fill="#009AE1" x="245" y="354" width="105" height="121" rx="6.452"/>
        <rect fill-opacity=".2" fill="#009AE1" x="123" width="105" height="121" rx="6.452"/>
        <rect fill-opacity=".2" fill="#009AE1" x="123" y="137" width="105" height="121" rx="6.452"/>
        <g transform="translate(28 98)">
            <rect stroke="#FFF" stroke-width="1.667" fill="#000" opacity=".2" stroke-linecap="round" stroke-linejoin="round" width="50" height="50" rx="25"/>
            <path d="M21.184 16v2.235H19v14.53h2.184V35h2.183v-2.235h2.184V35h2.184v-2.34c.29-.04.606-.057.887-.105a8.213 8.213 0 0 0 1.74-.803 4.692 4.692 0 0 0 1.194-1.327c.329-.56.444-1.14.444-1.921 0-.895-.35-1.668-.785-2.34-.546-.673-1.203-1.105-2.184-1.328.764-.336 1.31-.777 1.638-1.222.329-.445.546-1.035.546-1.816 0-.673-.09-1.231-.307-1.677-.217-.445-.554-.895-.99-1.117-.434-.223-.878-.446-1.535-.56l-.648-.104V16H25.55v2.235h-2.184V16h-2.183zm1.092 4.47h3.173c.328 0 .635-.008.853.105.328 0 .567.131.785.245.217.113.435.196.546.419.11.223.204.467.204.803 0 .673-.11 1.105-.546 1.327-.435.337-.878.455-1.535.455h-3.48V20.47zm0 5.589h3.821a3.75 3.75 0 0 1 1.98.559c.545.336.75 1 .75 1.78 0 .337-.094.791-.205 1.014-.217.336-.465.55-.682.663a6.7 6.7 0 0 1-.853.35c-.329.113-.764.104-1.092.104h-3.72v-4.47z" fill="#FFF" fill-rule="nonzero"/>
        </g>
        <text font-family="Avenir-Medium, Avenir" font-size="14" font-weight="400" fill="#B7C4DE">
                    <tspan x="31.216" y="181">Bitcoin</tspan>
                </text>
        <text font-family="Avenir-Medium, Avenir" font-size="14" font-weight="400" fill="#B7C4DE">
                    <tspan x="31.216" y="318">Bitcoin</tspan>
                </text>
        <text font-family="Avenir-Medium, Avenir" font-size="14" font-weight="400" fill="#B7C4DE">
                    <tspan x="27.212" y="455">Neteller</tspan>
                </text>
        <text font-family="Avenir-Medium, Avenir" font-size="14" font-weight="400" fill="#B7C4DE">
                    <tspan x="278.043" y="181">Stellar</tspan>
                </text>
        <text font-family="Avenir-Medium, Avenir" font-size="14" font-weight="400" fill="#B7C4DE">
                    <tspan x="145.137" y="101">Ethereum</tspan>
                </text>
        <g transform="translate(151 18)">
            <rect stroke="#FFF" stroke-width="1.667" fill="#000" opacity=".2" stroke-linecap="round" stroke-linejoin="round" width="50" height="50" rx="25"/>
            <path d="M32 26.364 25.5 35 19 26.364 25.5 30l6.5-3.636zM25.5 15 32 25l-6.5 3.636L19 25l6.5-10z" fill="#FFF" fill-rule="nonzero"/>
        </g>
        <g transform="translate(273 98)">
            <rect stroke="#FFF" stroke-width="1.667" fill="#000" opacity=".2" stroke-linecap="round" stroke-linejoin="round" width="50" height="50" rx="25"/>
            <path d="M35 21.75v1.56c-.754.28-1.195.568-1.323.863-.191.441-.155.846-.155 1.324 0 4.144-3.596 7.503-8.032 7.503a8.379 8.379 0 0 1-4.728-1.437l1.508-.722c1.504.696 3.631 1.037 5.335.498 1.924-.609 3.357-2.211 3.808-3.254.526-1.219.73-2.353.614-3.4L16 32.364v-1.6l19-9.015zM25.51 18c1.767 0 3.401.533 4.728 1.437l-1.508.722c-1.504-.696-3.631-1.037-5.335-.498-1.924.609-3.357 2.211-3.808 3.254-.526 1.219-.73 2.353-.614 3.4L35 18.636v1.6L16 29.25v-1.56c.754-.28 1.195-.568 1.323-.863.191-.441.155-.846.155-1.324 0-4.144 3.596-7.503 8.032-7.503z" fill="#FFF"/>
        </g>
        <g transform="translate(28 235)">
            <rect stroke="#FFF" stroke-width="1.667" fill="#000" opacity=".2" stroke-linecap="round" stroke-linejoin="round" width="50" height="50" rx="25"/>
            <path d="M17.407 27.067v1.902h.957c.403 0 .69.077.86.232.17.154.255.41.255.77 0 .364-.087.627-.26.788-.174.16-.459.241-.855.241h-3.215c-.409 0-.702-.08-.878-.241-.177-.16-.265-.424-.265-.789 0-.327.084-.576.25-.746.168-.17.413-.255.735-.255h.158v-1.847c-.428 0-.72-.076-.873-.227-.34-.335-.27-.801-.27-.977 0-.162-.005-.514.27-.764.17-.155.46-.208.873-.16V22.05h-.158c-.316 0-.56-.088-.73-.265-.17-.176-.255-.428-.255-.755 0-.36.09-.62.27-.784.18-.164.47-.246.873-.246h3.838c1.517 0 2.665.29 3.442.872.778.581 1.166 1.437 1.166 2.569 0 1.193-.387 2.096-1.161 2.708-.775.612-1.924.918-3.447.918h-1.58zm0-5.017v2.93h1.32c.73 0 1.28-.123 1.649-.37.368-.248.553-.619.553-1.113 0-.464-.19-.821-.572-1.072-.38-.25-.924-.375-1.63-.375h-1.32zM30.1 26.25l1.774-5.259c.112-.346.267-.598.465-.755.198-.158.461-.237.79-.237h1.45c.42 0 .723.08.905.241.183.16.274.424.274.789 0 .333-.088.587-.264.76-.177.173-.432.26-.767.26h-.149l.26 6.919h.158c.335 0 .586.085.753.255.167.17.251.419.251.746 0 .365-.088.628-.265.789-.176.16-.475.241-.896.241h-2.091c-.421 0-.72-.079-.897-.237-.176-.157-.265-.422-.265-.793 0-.327.086-.576.256-.746.17-.17.423-.255.757-.255h.149l-.13-5.658-1.357 4.21c-.099.316-.24.544-.423.683-.182.139-.435.208-.757.208s-.578-.07-.767-.208c-.188-.14-.332-.367-.432-.682l-1.347-4.21-.13 5.657h.149c.334 0 .587.085.757.255.17.17.255.419.255.746 0 .365-.09.628-.269.789-.18.16-.477.241-.892.241h-2.1c-.415 0-.712-.08-.892-.241-.18-.16-.27-.424-.27-.789 0-.327.086-.576.256-.746.17-.17.423-.255.757-.255h.149l.27-6.92h-.15c-.334 0-.59-.086-.766-.259-.176-.173-.265-.427-.265-.76 0-.365.092-.628.275-.789.182-.16.484-.241.905-.241h1.45c.322 0 .58.077.776.232.195.154.355.408.478.76l1.822 5.26z" fill="#FFF" fill-rule="nonzero"/>
        </g>
        <g transform="translate(151 155)">
            <rect stroke="#FFF" stroke-width="1.667" fill="#000" opacity=".2" stroke-linecap="round" stroke-linejoin="round" width="50" height="50" rx="25"/>
            <g fill="#FFF" fill-rule="nonzero">
                <path d="M19.017 15a.929.929 0 0 0-.918.734s-2.586 11.742-3.07 14.09c-.087.478.033.736.165.91.175.217.444.353.795.353h3.289l2.59-11.82c.087-.435.484-1.224 1.712-1.224h7.098c-.613-2-2.584-3.043-4.426-3.043h-7.235z"/>
                <path d="m23.663 18.954-.7.136c-.131.086-.215.263-.26.394l-1.055 4.864c.307-.13.608-.177.96-.177h3.165c2.805 0 4.38-1.124 4.905-3.56.088-.434.137-.78.137-1.127l-.054-.49v-.04h-7.098z" opacity=".75"/>
                <path d="m31.596 19.049.042.299c.044.435-.036.824-.124 1.345-.613 2.826-2.595 4.266-5.796 4.266h-3.152c-.702 0-1.183.304-1.315.87-.175.783-1.71 7.953-1.754 8.084a.93.93 0 0 0 .178.734c.132.173.343.353.781.353h3.508c.438 0 .844-.31.932-.788.394-1.653.914-4.163.959-4.294 0-.044.041-.135.041-.135h2.33c3.42 0 6.005-2.038 6.618-5.3.438-2-.128-3.27-.699-3.967-.79-1-2.242-1.467-2.549-1.467z" opacity=".504"/>
            </g>
        </g>
        <text font-family="Avenir-Medium, Avenir" font-size="14" font-weight="400" fill="#B7C4DE">
                    <tspan x="155.252" y="238">PayPal</tspan>
                </text>
        <rect fill-opacity=".2" fill="#009AE1" x="123" y="274" width="105" height="121" rx="6.452"/>
        <rect fill-opacity=".2" fill="#009AE1" x="123" y="411" width="105" height="121" rx="6.452"/>
        <text font-family="Avenir-Medium, Avenir" font-size="14" font-weight="400" fill="#B7C4DE">
                    <tspan x="147.72" y="375">Polkadot</tspan>
                </text>
        <g transform="translate(151 292)">
            <rect stroke="#FFF" stroke-width="1.667" fill="#000" opacity=".2" stroke-linecap="round" stroke-linejoin="round" width="50" height="50" rx="25"/>
            <g fill-rule="nonzero">
                <path d="M25.6 15c-4.19.017-7.583 3.4-7.6 7.577 0 .836.135 1.667.4 2.46.199.54.786.832 1.338.665.533-.204.816-.785.646-1.328a4.985 4.985 0 0 1-.296-1.932c.092-3.017 2.619-5.39 5.646-5.298 3.027.09 5.407 2.61 5.315 5.628a5.474 5.474 0 0 1-5.148 5.29s-1.067.065-1.597.13c-.196.028-.39.066-.581.115a.07.07 0 0 1-.1 0 .07.07 0 0 1 0-.085l.165-.898 1.002-4.492a1.042 1.042 0 0 0-2.038-.435s-2.383 10.996-2.383 11.095a.998.998 0 0 0 .741 1.218h.056a1.001 1.001 0 0 0 1.226-.744.256.256 0 0 1 0-.05c.03-.129.33-1.592.33-1.592a2.7 2.7 0 0 1 2.238-2.121c.23-.035 1.197-.1 1.197-.1 4.175-.415 7.222-4.125 6.805-8.286-.38-3.796-3.534-6.718-7.361-6.817z" fill="#FFE5E5"/>
                <path d="M26.062 32.47a1.267 1.267 0 0 0-1.499.979l-.004.019a1.258 1.258 0 0 0 .965 1.496l.002.001h.035a1.241 1.241 0 0 0 1.499-.912l.004-.016v-.07a1.31 1.31 0 0 0-1.002-1.497z" fill="#E6007A"/>
            </g>
        </g>
        <g transform="translate(151 429)">
            <rect stroke="#FFF" stroke-width="1.667" fill="#000" opacity=".2" stroke-linecap="round" stroke-linejoin="round" width="50" height="50" rx="25"/>
            <use fill="#FFF" xlink:href="#a"/>
        </g>
        <text font-family="Avenir-Medium, Avenir" font-size="14" font-weight="400" fill="#B7C4DE">
                    <tspan x="155.917" y="512">Ripple</tspan>
                </text>
        <g transform="translate(273 235)">
            <rect stroke="#FFF" stroke-width="1.667" fill="#000" opacity=".2" stroke-linecap="round" stroke-linejoin="round" width="50" height="50" rx="25"/>
            <path d="M31.394 22.403c.612 0 1.108-.538 1.108-1.201 0-.664-.496-1.202-1.108-1.202-.611 0-1.107.538-1.107 1.202 0 .663.496 1.2 1.107 1.2zm-8.487.648c-.05.136-.41 1.239-1.28 2.381v-4.885l-2.32.497v8.855h2.32v-2.737c.67 1.092 1.003 2.737 1.003 2.737h2.778c-.275-1.238-1.477-3.523-1.477-3.523a11.412 11.412 0 0 0 1.628-3.325h-2.652zm6.097-.092c-2.077.072-3.132 1.083-3.132 3.092v3.848h2.266v-3.138c0-1.203.146-1.719 1.462-1.768v-2c-.221-.05-.596-.034-.596-.034zm-13.587 1.067c-.284-.02-.942-.066-.942-.708 0-.775.947-.775 1.302-.775.625 0 1.434.2 2.011.387 0 0 .322.124.597.25l.025.007v-2.122l-.035-.01c-.682-.26-1.474-.508-2.944-.508-2.533 0-3.431 1.6-3.431 2.971 0 .79.312 2.65 3.214 2.865.246.017.899.058.899.721 0 .548-.535.871-1.434.871a6.58 6.58 0 0 1-2.52-.53v2.185c.868.247 1.848.37 2.996.37 2.477 0 3.587-1.514 3.587-3.015 0-1.702-1.242-2.808-3.325-2.959zM30.271 29.9h2.248v-6.84H30.27v6.84zm6.48-8.916v8.916H39v-9.352l-2.248.436zm-3.28 0 2.246-.436v9.352h-2.246v-8.916z" fill="#FFF" fill-rule="nonzero"/>
        </g>
        <text font-family="Avenir-Medium, Avenir" font-size="14" font-weight="400" fill="#B7C4DE">
                    <tspan x="282.845" y="318">Skrill</tspan>
                </text>
        <text font-family="Avenir-Medium, Avenir" font-size="14" font-weight="400" fill="#B7C4DE">
                    <tspan x="275.604" y="435">Others</tspan>
                </text>
        <g transform="translate(28 372)">
            <rect stroke="#FFF" stroke-width="1.667" fill="#000" opacity=".2" stroke-linecap="round" stroke-linejoin="round" width="50" height="50" rx="25"/>
            <path fill="#FFF" fill-rule="nonzero" d="M35 17h-5.456l-1.89 10.418L23.889 17H18.11L15 34h5.518L22.4 23.296 26.054 34h5.82z"/>
        </g>
        <text font-family="Avenir-Black, Avenir" font-size="24" font-weight="700" fill="#FFF">
                    <tspan x="275" y="412">+50</tspan>
                </text>
    </g>
</svg>
