<svg width="36" height="36" xmlns="http://www.w3.org/2000/svg">
    <path d="M5.5 0C2.48 0 0 2.48 0 5.5v25C0 33.52 2.48 36 5.5 36h25c3.02 0 5.5-2.48 5.5-5.5v-25C36 2.48 33.52 0 30.5 0h-25zm0 3h25C31.898 3 33 4.102 33 5.5v25c0 1.398-1.102 2.5-2.5 2.5H24V23h3.625c.504 0 .93-.377.992-.877l.375-3A1 1 0 0 0 28 18h-4v-3.5c0-1.103.897-2 2-2h2a1 1 0 0 0 1-1V8.125a1 1 0 0 0-.91-.996C28.03 7.124 26.62 7 24.834 7 20.427 7 18 9.616 18 14.367V18h-4a1 1 0 0 0-1 1v3a1 1 0 0 0 1 1h4v10H5.5A2.478 2.478 0 0 1 3 30.5v-25C3 4.102 4.102 3 5.5 3z" fill="#9CA7BE" fill-rule="nonzero"/>
</svg>
