<svg width="52" height="52" xmlns="http://www.w3.org/2000/svg">
    <g transform="translate(1 1)" fill="none" fill-rule="evenodd">
        <rect stroke="#FFF" stroke-width="1.667" fill="#000" opacity=".2" stroke-linecap="round" stroke-linejoin="round" width="50" height="50" rx="25"/>
        <path d="M31.394 22.403c.612 0 1.108-.538 1.108-1.201 0-.664-.496-1.202-1.108-1.202-.611 0-1.107.538-1.107 1.202 0 .663.496 1.2 1.107 1.2zm-8.487.648c-.05.136-.41 1.239-1.28 2.381v-4.885l-2.32.497v8.855h2.32v-2.737c.67 1.092 1.003 2.737 1.003 2.737h2.778c-.275-1.238-1.477-3.523-1.477-3.523a11.412 11.412 0 0 0 1.628-3.325h-2.652zm6.097-.092c-2.077.072-3.132 1.083-3.132 3.092v3.848h2.266v-3.138c0-1.203.146-1.719 1.462-1.768v-2c-.221-.05-.596-.034-.596-.034zm-13.587 1.067c-.284-.02-.942-.066-.942-.708 0-.775.947-.775 1.302-.775.625 0 1.434.2 2.011.387 0 0 .322.124.597.25l.025.007v-2.122l-.035-.01c-.682-.26-1.474-.508-2.944-.508-2.533 0-3.431 1.6-3.431 2.971 0 .79.312 2.65 3.214 2.865.246.017.899.058.899.721 0 .548-.535.871-1.434.871a6.58 6.58 0 0 1-2.52-.53v2.185c.868.247 1.848.37 2.996.37 2.477 0 3.587-1.514 3.587-3.015 0-1.702-1.242-2.808-3.325-2.959zM30.271 29.9h2.248v-6.84H30.27v6.84zm6.48-8.916v8.916H39v-9.352l-2.248.436zm-3.28 0 2.246-.436v9.352h-2.246v-8.916z" fill="#FFF" fill-rule="nonzero"/>
    </g>
</svg>
