<svg width="52" height="52" xmlns="http://www.w3.org/2000/svg">
    <g transform="translate(1 1)" fill="none" fill-rule="evenodd">
        <rect stroke="#FFF" stroke-width="1.667" fill="#000" opacity=".2" stroke-linecap="round" stroke-linejoin="round" width="50" height="50" rx="25"/>
        <path d="M21.184 16v2.235H19v14.53h2.184V35h2.183v-2.235h2.184V35h2.184v-2.34c.29-.04.606-.057.887-.105a8.213 8.213 0 0 0 1.74-.803 4.692 4.692 0 0 0 1.194-1.327c.329-.56.444-1.14.444-1.921 0-.895-.35-1.668-.785-2.34-.546-.673-1.203-1.105-2.184-1.328.764-.336 1.31-.777 1.638-1.222.329-.445.546-1.035.546-1.816 0-.673-.09-1.231-.307-1.677-.217-.445-.554-.895-.99-1.117-.434-.223-.878-.446-1.535-.56l-.648-.104V16H25.55v2.235h-2.184V16h-2.183zm1.092 4.47h3.173c.328 0 .635-.008.853.105.328 0 .567.131.785.245.217.113.435.196.546.419.11.223.204.467.204.803 0 .673-.11 1.105-.546 1.327-.435.337-.878.455-1.535.455h-3.48V20.47zm0 5.589h3.821a3.75 3.75 0 0 1 1.98.559c.545.336.75 1 .75 1.78 0 .337-.094.791-.205 1.014-.217.336-.465.55-.682.663a6.7 6.7 0 0 1-.853.35c-.329.113-.764.104-1.092.104h-3.72v-4.47z" fill="#FFF" fill-rule="nonzero"/>
    </g>
</svg>
