<svg width="38" height="38" xmlns="http://www.w3.org/2000/svg">
    <path d="M11.5 0C5.166 0 0 5.166 0 11.5v15C0 32.833 5.166 38 11.5 38h15C32.833 38 38 32.833 38 26.5v-15C38 5.166 32.833 0 26.5 0h-15zm0 3h15c4.711 0 8.5 3.788 8.5 8.5v15c0 4.711-3.789 8.5-8.5 8.5h-15A8.478 8.478 0 0 1 3 26.5v-15C3 6.788 6.788 3 11.5 3zM29 7a2 2 0 1 0-.001 3.999A2 2 0 0 0 29 7zM19 9C13.495 9 9 13.495 9 19s4.495 10 10 10 10-4.495 10-10S24.505 9 19 9zm0 3c3.883 0 7 3.117 7 7s-3.117 7-7 7-7-3.117-7-7 3.117-7 7-7z" fill="#9CA7BE" fill-rule="nonzero"/>
</svg>
