<svg width="41" height="50" xmlns="http://www.w3.org/2000/svg">
    <g fill="#FFF" fill-rule="evenodd">
        <path d="M40.375 13.006c-.39-1.014-1.191-1.92-2.167-2.573-2.815-1.77-7.107-1.897-10.008-.296-1.583.799-2.623 2.38-2.946 4.008-.588 2.675-.436 5.857 1.645 7.862 2.427 2.107 5.959 2.572 9.1 1.707.148-.028.621-.146.947-.318l.092-.039c.976-.4 1.906-1.055 2.6-1.94 1.603-2.32 1.713-5.798.737-8.41m-5.113 6.006c-.11.507-.455 1.033-.998 1.223-.866.377-2.036.273-2.837-.168-.672-.465-.759-1.245-.845-1.982-.066-1.453-.172-2.993.24-4.321.321-.823 1.21-1.035 2.014-1.097.844 0 1.666.127 2.188.802.324.483.304 1.116.369 1.686-.023 1.2.086 2.633-.13 3.857M9.587 20.322c-.715-.043-1.517.019-2.21-.065l.022-7.402.044-.061 2.144-.02c.023-1.202.044-2.49-.022-3.585L1.4 9.166l-1.345.023a98.892 98.892 0 0 0 0 3.562c.737.023 1.43 0 2.145.066v7.168l-.021.294-2.145.044a45.124 45.124 0 0 0 0 3.478h9.554v-3.479zm24.048 5.059c-.91 1.287-2.058 2.53-3.312 3.498-.045.066-.175.041-.216-.02-.544-.336-1.128-.611-1.65-.947.695-.822 1.367-1.644 1.887-2.554h-.674c-.539.783-1.103 1.605-1.818 2.298-.954-.379-1.82-.715-2.795-.97l-.108-.08c.151-.427.432-.827.518-1.249h-.584l-.585 1.14c-1.277-.274-2.686-.424-3.986-.507-.065-.19.02-.463-.065-.633h-.564c-.044.254.066.445-.065.655a25.28 25.28 0 0 0-3.898.466l-.587-1.12c-.214 0-.455-.041-.605.022l.54 1.244-.064.062c-.971.278-1.926.609-2.86.992l-.086-.043a16.804 16.804 0 0 1-1.67-2.085c-.108-.36-.541-.15-.78-.192.518.929 1.214 1.75 1.906 2.595-.585.338-1.168.715-1.777.992-1.325-1-2.48-2.202-3.422-3.563-.26-.042-.432-.023-.694 0 1.56 2.403 3.987 4.51 6.522 5.755 0 0 0-.019.024-.019.018 0 .061.04.018.061 1.713.823 3.534 1.413 5.46 1.667 6.652.863 13-1.94 16.682-7.464a3.458 3.458 0 0 0-.692-.001m-9.033 1.897.064-.042c.934.21 1.82.506 2.644.905-.694.779-1.582 1.455-2.404 2.024-.498.294-.998.613-1.519.865l-.93-.4.064-.147a25.19 25.19 0 0 0 2.081-3.205m-4.27-.633c1.237.023 2.472.15 3.619.422l.022.064c-.605 1.137-1.365 2.236-2.187 3.267-.37.043-.715-.102-1.083-.125l-.37-.043c-.043-1.244-.066-2.34 0-3.585m-4.18.38c1.127-.211 2.296-.38 3.509-.38l.022 3.567c-.456.102-.954.102-1.388.21a18.767 18.767 0 0 1-2.251-3.314l.108-.084zm-3.49 1.139a14.363 14.363 0 0 1 2.643-.929l.088.022c.626 1.16 1.407 2.256 2.187 3.352-.3.17-.671.271-.973.443a14.591 14.591 0 0 1-3.944-2.826v-.062zm2.796 3.605c-1.82-.466-3.511-1.266-5.07-2.36v-.066c.52-.314 1.041-.652 1.603-.886 1.235 1.205 2.513 2.111 3.9 2.974-.109.127-.282.254-.433.338m8.037.272c-2.296.488-4.854.507-7.149-.04-.044-.105.108-.128.173-.19 2.015-1.287 5.155-1.287 7.129.103.064.127-.11.087-.153.127m2.08-.588-1.017.315c-.174-.084-.325-.21-.478-.338l.044-.064c1.387-.798 2.642-1.77 3.835-2.93.585.231 1.148.55 1.67.906-1.215.954-2.623 1.583-4.053 2.111M6.274 7.564a19.833 19.833 0 0 1 1.754-2.086C8.59 4.95 9.112 4.445 9.72 4.064c.564.358 1.191.656 1.733.992-.672.818-1.365 1.644-1.863 2.528.15.065.433.045.65 0 .541-.78 1.125-1.559 1.82-2.255.93.338 1.841.695 2.796.95l.084.083-.54 1.222c.24.045.391.023.628 0 .194-.357.345-.756.561-1.117 1.259.276 2.58.422 3.924.463.172.15.043.465.108.654h.585c.063-.207-.022-.442.063-.63 1.258-.065 2.579-.192 3.796-.488l.106.023.585 1.094c.195 0 .455.045.606-.044l-.542-1.22.045-.042c.995-.253 1.928-.632 2.88-1.01.674.695 1.3 1.517 1.866 2.315.237 0 .476.023.65-.043a8.527 8.527 0 0 0-.933-1.328 9.001 9.001 0 0 0-.954-1.135v-.11l1.517-.862.218-.084a15.739 15.739 0 0 1 3.421 3.519c.26 0 .477.088.695-.018C31.317 3.224 26.53.459 21.354.06l-.022.04-.044-.04a9.973 9.973 0 0 0-1.93-.025c-.237-.018-.518 0-.8.025-5.2.398-9.987 3.035-12.978 7.523.217-.02.477.066.694-.02m8.992-1.852-.086.018c-.89-.23-1.757-.506-2.58-.863l.041-.127c1.192-1.117 2.448-2.045 3.835-2.76.326.126.651.23.976.38l-.064.165c-.825 1.014-1.473 2.108-2.122 3.187m4.31.567c-.605.084-1.147-.019-1.756-.065-.582-.085-1.32-.146-1.905-.339a18.846 18.846 0 0 1 2.254-3.304l1.387.188c.064 1.094.02 2.36.02 3.52m.671.023c-.042-1.121-.02-2.363 0-3.523.435-.062.91-.127 1.344-.19.845 1.053 1.67 2.132 2.234 3.286a15.5 15.5 0 0 1-3.578.427m6.914-1.478c-.847.356-1.714.694-2.645.888a35.653 35.653 0 0 0-2.233-3.314c.304-.165.674-.292.998-.46 1.411.695 2.774 1.685 3.921 2.82l-.041.066zm-2.775-3.605a15.52 15.52 0 0 1 5.091 2.361l-.043.084-1.493.822h-.11a18.861 18.861 0 0 0-3.857-2.908c.044-.148.261-.254.412-.359m-.866-.212v.045c-1.886 1.346-4.94 1.473-6.932.229-.112-.085-.326-.125-.35-.273 2.299-.525 5.005-.567 7.282 0M10.303 3.622a15.635 15.635 0 0 1 4.486-2.234c.066-.066.107-.128.193-.128v.043c.173.042.304-.15.455-.024.13.109.284.192.39.297-1.342.82-2.664 1.792-3.878 2.97-.585-.206-1.124-.524-1.646-.883v-.041zm9.295 16.864c-2.036.549-4.247.13-5.72-1.39-.172-.211-.282-.462-.456-.672l-2.923.02c-.047 1.707-.067 3.668 0 5.356l3.248-.021.043-1.013c.37.169.739.38 1.106.568 2.254.93 5.154 1.14 7.386 0 1.626-.883 2.493-2.59 2.254-4.428-.237-1.79-1.971-3.414-3.724-3.855l-5.245-1.499-.388-.19c-.173-.147-.282-.335-.24-.57.412-.693 1.366-.482 2.081-.464 1.517.212 3.076.718 3.965 2.089.952 0 2.057.018 3.096-.022.044-1.729-.017-3.246-.043-4.996a49.509 49.509 0 0 0-3.14.022c-.044.25.041.608-.067.862l-.996-.528c-2.384-.99-5.721-1.093-7.887.446-1.409 1.01-1.84 2.825-1.472 4.426.28 1.516 1.753 2.635 3.162 3.16 1.928.674 3.942 1.162 5.895 1.815.194.085.453.276.411.508.001.187-.195.295-.346.376" fill-rule="nonzero"/>
        <text font-family="Avenir-Medium, Avenir" font-size="10.667" font-weight="400">
                    <tspan x="6" y="46">27001</tspan>
                </text>
    </g>
</svg>
