<svg width="50" height="73" xmlns="http://www.w3.org/2000/svg">
    <g transform="translate(.514)" fill="none" fill-rule="evenodd">
        <ellipse fill-opacity=".1" fill="#FFF" cx="24.666" cy="68.702" rx="24.666" ry="3.702"/>
        <path d="M25 0C13.972 0 5 8.972 5 20c0 3.275.863 6.337 2.262 9.066l-2.168 7.762c-.505 1.804 1.278 3.587 3.082 3.082l7.767-2.168C18.671 39.138 21.728 40 25 40c11.028 0 20-8.972 20-20S36.028 0 25 0zm0 9.002c2.757 0 5 2.243 5 5s-2.243 5-5 5-5-2.243-5-5 2.243-5 5-5zm-6.5 14h13c1.378 0 2.5 1.121 2.5 2.5v1c0 .446-.051.885-.152 1.303a1.498 1.498 0 0 1-.403.715A11.94 11.94 0 0 1 25 32.002a11.942 11.942 0 0 1-8.445-3.482 1.501 1.501 0 0 1-.405-.715c-.1-.418-.15-.857-.15-1.303v-1c0-1.379 1.122-2.5 2.5-2.5z" fill="#009AE1" fill-rule="nonzero"/>
    </g>
</svg>
