<svg width="50" height="75" xmlns="http://www.w3.org/2000/svg">
    <g fill="none" fill-rule="evenodd">
        <ellipse fill-opacity=".1" fill="#FFF" cx="25.181" cy="71.298" rx="24.666" ry="3.702"/>
        <path d="M11.169 0a1.972 1.972 0 0 0-1.94 2v3.635a5.928 5.928 0 0 0-3.595 3.594H2a1.972 1.972 0 1 0 0 3.943h3.285v5.257H2a1.972 1.972 0 1 0 0 3.943h3.285v5.257H2a1.972 1.972 0 1 0 0 3.943h3.285v5.257H2a1.972 1.972 0 1 0 0 3.943h3.634a5.928 5.928 0 0 0 3.594 3.594V48a1.972 1.972 0 1 0 3.943 0v-3.285h5.257V48a1.972 1.972 0 1 0 3.943 0v-3.285h5.258V48a1.972 1.972 0 1 0 3.943 0v-3.285h5.257V48a1.972 1.972 0 1 0 3.943 0v-3.634a5.928 5.928 0 0 0 3.594-3.594H48a1.972 1.972 0 1 0 0-3.943h-3.285v-5.257H48a1.972 1.972 0 1 0 0-3.943h-3.285v-5.257H48a1.972 1.972 0 1 0 0-3.943h-3.285v-5.257H48a1.972 1.972 0 1 0 0-3.943h-3.634a5.928 5.928 0 0 0-3.594-3.594V2a1.972 1.972 0 1 0-3.943 0v3.286h-5.257V2a1.972 1.972 0 1 0-3.943 0v3.286H22.37V2a1.972 1.972 0 1 0-3.943 0v3.286h-5.257V2a1.972 1.972 0 0 0-2.002-2zm7.917 17.115h11.828c1.09 0 1.972.882 1.972 1.971v11.829a1.971 1.971 0 0 1-1.972 1.971H19.086a1.971 1.971 0 0 1-1.972-1.971V19.086c0-1.089.883-1.971 1.972-1.971z" fill="#009AE1" fill-rule="nonzero"/>
    </g>
</svg>
