<svg width="42" height="36" xmlns="http://www.w3.org/2000/svg">
    <path d="M29 0c-5.431 0-9.839 4.389-9.957 9.793-4.802-.576-7.93-2.371-9.847-4.14C7.068 3.69 6.395 1.946 6.395 1.946A1.5 1.5 0 0 0 3.8 1.6s-1.8 2.4-1.8 5.9c0 2.001.631 3.482 1.384 4.736-.028-.013-.215-.078-.215-.078a1.5 1.5 0 0 0-2.164 1.479s.578 4.22 4.545 7.304l-.414.104a1.5 1.5 0 0 0-.94 2.2s.673 1.137 2.083 2.335c.835.71 2.063 1.443 3.51 2.121C8.012 28.351 5.362 29 1.5 29a1.5 1.5 0 0 0-1.129 2.488s1.147 1.263 3.413 2.362C6.049 34.948 9.54 36 14.5 36c8.72 0 14.985-4.183 18.895-9.484C37.305 21.214 39 14.86 39 10c0-.308-.019-.613-.047-.914 2.112-2.034 2.904-3.564 2.942-3.639a1 1 0 0 0-1.313-1.355l-.162.074-.418.191a8.797 8.797 0 0 0 .951-2.06 1 1 0 0 0-1.472-1.152c-1.222.742-2.394 1.262-3.613 1.61A9.954 9.954 0 0 0 29 0zm0 3c3.884 0 7 3.117 7 7 0 4.139-1.554 10.036-5.02 14.734C27.517 29.433 22.28 33 14.5 33c-3.765 0-6.27-.681-8.146-1.418 1.966-.305 3.658-.713 4.875-1.184 2.11-.816 3.248-1.76 3.248-1.76a1.5 1.5 0 0 0-.613-2.593c-2.723-.68-4.47-1.782-5.565-2.7l1.565-.39a1.5 1.5 0 0 0 .175-2.855c-3.245-1.249-4.607-3.014-5.304-4.493.848.176 1.637.393 2.765.393a1.5 1.5 0 0 0 .67-2.842S5 11.7 5 7.5c0-.754.21-1.232.362-1.803.523.703.954 1.382 1.798 2.16 2.575 2.375 6.83 4.796 13.26 5.141A1.5 1.5 0 0 0 22 11.5V10c0-3.883 3.117-7 7-7z" fill="#9CA7BE" fill-rule="nonzero"/>
</svg>
