<svg width="44" height="32" xmlns="http://www.w3.org/2000/svg">
    <path d="M21.857 0C15.505 0 9.602.453 6.234 1.156a1.45 1.45 0 0 0-.021.006c-2.538.569-4.927 2.386-5.43 5.233l-.002.011C.395 8.7 0 11.691 0 16c0 4.301.396 7.212.885 9.627.515 2.762 2.85 4.635 5.426 5.21.012.004.024.008.037.01C9.863 31.54 15.598 32 21.95 32s12.092-.46 15.608-1.152a1.53 1.53 0 0 0 .037-.01c2.537-.569 4.926-2.386 5.43-5.233l.003-.021c.38-2.34.874-5.328.971-9.645v-.033c0-4.318-.494-7.327-.977-9.71-.51-2.769-2.848-4.647-5.427-5.223a1.498 1.498 0 0 0-.12-.022C34.047.47 28.212 0 21.858 0zm0 3c6.16 0 11.87.461 15.11.912 1.592.366 2.858 1.479 3.107 2.828l.004.026c.465 2.296.918 5.027.92 9.119-.093 4.105-.547 6.86-.928 9.2-.26 1.46-1.478 2.45-3.117 2.821-3.148.618-8.81 1.094-15.002 1.094s-11.853-.478-15-1.096c-1.598-.363-2.87-1.479-3.119-2.832a1.487 1.487 0 0 0-.006-.025C3.366 22.777 3 20.129 3 16c0-4.121.365-6.878.736-9.082.259-1.462 1.48-2.455 3.123-2.826C9.774 3.484 15.66 3 21.857 3zm-3.396 4.523C16.668 7.582 15 9.025 15 10.986v9.03c0 2.614 2.966 4.31 5.238 3.027v-.002l7.99-4.514c2.289-1.292 2.289-4.762 0-6.054l-7.99-4.514a3.37 3.37 0 0 0-1.777-.436zm.012 2.957c.09.005.188.034.289.09l7.99 4.516c.406.23.406.6 0 .83l-7.99 4.514c-.402.227-.762.015-.762-.414v-9.03c0-.214.09-.374.23-.453a.441.441 0 0 1 .243-.053z" fill="#9CA7BE" fill-rule="nonzero"/>
</svg>
