<svg width="52" height="52" xmlns="http://www.w3.org/2000/svg">
    <g transform="translate(1 1)" fill="none" fill-rule="evenodd">
        <rect stroke="#FFF" stroke-width="1.667" fill="#000" opacity=".2" stroke-linecap="round" stroke-linejoin="round" width="50" height="50" rx="25"/>
        <g fill="#FFF" fill-rule="nonzero">
            <path d="M19.017 15a.929.929 0 0 0-.918.734s-2.586 11.742-3.07 14.09c-.087.478.033.736.165.91.175.217.444.353.795.353h3.289l2.59-11.82c.087-.435.484-1.224 1.712-1.224h7.098c-.613-2-2.584-3.043-4.426-3.043h-7.235z"/>
            <path d="m23.663 18.954-.7.136c-.131.086-.215.263-.26.394l-1.055 4.864c.307-.13.608-.177.96-.177h3.165c2.805 0 4.38-1.124 4.905-3.56.088-.434.137-.78.137-1.127l-.054-.49v-.04h-7.098z" opacity=".75"/>
            <path d="m31.596 19.049.042.299c.044.435-.036.824-.124 1.345-.613 2.826-2.595 4.266-5.796 4.266h-3.152c-.702 0-1.183.304-1.315.87-.175.783-1.71 7.953-1.754 8.084a.93.93 0 0 0 .178.734c.132.173.343.353.781.353h3.508c.438 0 .844-.31.932-.788.394-1.653.914-4.163.959-4.294 0-.044.041-.135.041-.135h2.33c3.42 0 6.005-2.038 6.618-5.3.438-2-.128-3.27-.699-3.967-.79-1-2.242-1.467-2.549-1.467z" opacity=".504"/>
        </g>
    </g>
</svg>
