<svg width="52" height="52" xmlns="http://www.w3.org/2000/svg">
    <g transform="translate(1 1)" fill="none" fill-rule="evenodd">
        <rect stroke="#FFF" stroke-width="1.667" fill="#000" opacity=".2" stroke-linecap="round" stroke-linejoin="round" width="50" height="50" rx="25"/>
        <path d="M35 21.75v1.56c-.754.28-1.195.568-1.323.863-.191.441-.155.846-.155 1.324 0 4.144-3.596 7.503-8.032 7.503a8.379 8.379 0 0 1-4.728-1.437l1.508-.722c1.504.696 3.631 1.037 5.335.498 1.924-.609 3.357-2.211 3.808-3.254.526-1.219.73-2.353.614-3.4L16 32.364v-1.6l19-9.015zM25.51 18c1.767 0 3.401.533 4.728 1.437l-1.508.722c-1.504-.696-3.631-1.037-5.335-.498-1.924.609-3.357 2.211-3.808 3.254-.526 1.219-.73 2.353-.614 3.4L35 18.636v1.6L16 29.25v-1.56c.754-.28 1.195-.568 1.323-.863.191-.441.155-.846.155-1.324 0-4.144 3.596-7.503 8.032-7.503z" fill="#FFF"/>
    </g>
</svg>
