<svg width="52" height="52" xmlns="http://www.w3.org/2000/svg">
    <g transform="translate(1 1)" fill="none" fill-rule="evenodd">
        <rect stroke="#FFF" stroke-width="1.667" fill="#000" opacity=".2" stroke-linecap="round" stroke-linejoin="round" width="50" height="50" rx="25"/>
        <g fill-rule="nonzero">
            <path d="M25.6 15c-4.19.017-7.583 3.4-7.6 7.577 0 .836.135 1.667.4 2.46.199.54.786.832 1.338.665.533-.204.816-.785.646-1.328a4.985 4.985 0 0 1-.296-1.932c.092-3.017 2.619-5.39 5.646-5.298 3.027.09 5.407 2.61 5.315 5.628a5.474 5.474 0 0 1-5.148 5.29s-1.067.065-1.597.13c-.196.028-.39.066-.581.115a.07.07 0 0 1-.1 0 .07.07 0 0 1 0-.085l.165-.898 1.002-4.492a1.042 1.042 0 0 0-2.038-.435s-2.383 10.996-2.383 11.095a.998.998 0 0 0 .741 1.218h.056a1.001 1.001 0 0 0 1.226-.744.256.256 0 0 1 0-.05c.03-.129.33-1.592.33-1.592a2.7 2.7 0 0 1 2.238-2.121c.23-.035 1.197-.1 1.197-.1 4.175-.415 7.222-4.125 6.805-8.286-.38-3.796-3.534-6.718-7.361-6.817z" fill="#FFE5E5"/>
            <path d="M26.062 32.47a1.267 1.267 0 0 0-1.499.979l-.004.019a1.258 1.258 0 0 0 .965 1.496l.002.001h.035a1.241 1.241 0 0 0 1.499-.912l.004-.016v-.07a1.31 1.31 0 0 0-1.002-1.497z" fill="#E6007A"/>
        </g>
    </g>
</svg>
