<svg width="52" height="52" xmlns="http://www.w3.org/2000/svg" xmlns:xlink="http://www.w3.org/1999/xlink">
    <defs>
        <path d="M29.895 15h.035c.68 0 1.432.153 2.035.541A4.238 4.238 0 0 1 34 19.178a4.246 4.246 0 0 1-2.035 3.637c-.68.389-1.508.542-2.26.542-.902 0-1.581.694-1.581 1.624 0 1.161.9 1.624 1.58 1.624.83 0 1.581.153 2.26.542A4.238 4.238 0 0 1 34 30.783a4.246 4.246 0 0 1-2.035 3.637 3.855 3.855 0 0 1-4.067 0 4.238 4.238 0 0 1-2.035-3.637c0-.772.226-1.545.604-2.244.374-.773.149-1.78-.604-2.244-1.053-.62-1.882.079-2.184.62-.374.698-.9 1.314-1.58 1.703a3.856 3.856 0 0 1-4.067 0A4.234 4.234 0 0 1 16 25.138v-.313a4.25 4.25 0 0 1 2.032-3.485 3.856 3.856 0 0 1 4.067 0c.68.463 1.206 1.083 1.657 1.703.45.773 1.432 1.083 2.184.62 1.054-.542.905-1.625.603-2.244-.378-.695-.68-1.472-.68-2.245 0-1.47.756-2.864 2.035-3.636.58-.372 1.304-.53 1.962-.538h.035z" id="a"/>
    </defs>
    <g transform="translate(1 1)" fill="none" fill-rule="evenodd">
        <rect stroke="#FFF" stroke-width="1.667" fill="#000" opacity=".2" stroke-linecap="round" stroke-linejoin="round" width="50" height="50" rx="25"/>
        <use fill="#FFF" xlink:href="#a"/>
    </g>
</svg>
