<svg width="52" height="81" xmlns="http://www.w3.org/2000/svg">
    <g transform="translate(.514)" fill="none" fill-rule="evenodd">
        <path d="M22.308 38.205a2.582 2.582 0 0 1 2.114-1.25h8.247V25.799h-1.962a2.684 2.684 0 0 1-2.302-1.505 4.421 4.421 0 0 1 .163-4.438l8.265-9.215a2.41 2.41 0 0 1 4.217 0l8.269 9.206a4.424 4.424 0 0 1 .162 4.437 2.684 2.684 0 0 1-2.302 1.506h-1.962v16.123c.434 3.944-2.342 7.52-6.275 8.088H18.456a2.678 2.678 0 0 1-2.299-1.502 4.424 4.424 0 0 1 .153-4.435l5.998-5.858z" stroke="#242B38" stroke-width="1.248" fill="#9CA7BE" opacity=".4"/>
        <path d="M.521 25.72a2.688 2.688 0 0 1 2.303-1.509h1.961V8.088C4.353 4.145 7.128.568 11.061 0h20.482a2.684 2.684 0 0 1 2.3 1.502 4.421 4.421 0 0 1-.154 4.435l-5.994 5.867a2.582 2.582 0 0 1-2.115 1.25h-8.247V24.21h1.962a2.688 2.688 0 0 1 2.302 1.509 4.424 4.424 0 0 1-.162 4.437l-8.269 9.207a2.41 2.41 0 0 1-4.217 0L.681 30.16a4.424 4.424 0 0 1-.16-4.441z" fill="#009AE1"/>
        <ellipse fill-opacity=".1" fill="#FFF" cx="24.666" cy="77.298" rx="24.666" ry="3.702"/>
    </g>
</svg>
