<svg width="51" height="81" xmlns="http://www.w3.org/2000/svg">
    <g fill="none" fill-rule="evenodd">
        <g fill-rule="nonzero">
            <path d="M48.432.404 2.372 24.31c-1.895.982-1.817 2.423.171 3.202l5.88 2.3c1.984.777 4.993.356 6.68-.95L40.64 8.931c1.679-1.31 1.86-1.116.4.43l-20.19 21.394c-1.464 1.54-1.028 3.429.962 4.196l.687.268c1.99.761 5.243 2.042 7.224 2.842l6.521 2.628c1.982.798 3.603 1.46 3.603 1.471 0 .012.012.048.021.05.01.004.479-1.662 1.038-3.704l9.946-36.173c.56-2.044-.527-2.91-2.421-1.929z" fill="#009AE1"/>
            <path d="M21.062 37.377 16.55 35.55c-1.978-.802-2.926.138-2.106 2.094.002 0 4.19 9.99 4.073 10.342-.12.35 4.018-5.928 4.018-5.928 1.17-1.773.506-3.88-1.473-4.681z" fill="#4E5665"/>
        </g>
        <ellipse fill-opacity=".1" fill="#FFF" cx="24.666" cy="77.298" rx="24.666" ry="3.702"/>
    </g>
</svg>
