<svg width="52" height="81" xmlns="http://www.w3.org/2000/svg">
    <g transform="translate(.514)" fill="none" fill-rule="evenodd">
        <path d="M50.904 17.854a3.569 3.569 0 0 0-3.565-3.572H11.7a3.566 3.566 0 0 1-3.562-3.57 3.566 3.566 0 0 1 3.562-3.569h4.442a3.563 3.563 0 0 0 3.175-1.754c.66-1.12.66-2.513 0-3.633A3.563 3.563 0 0 0 16.143.002H11.7C5.796.002 1.007 4.795 1 10.712V42.85a7.15 7.15 0 0 0 2.087 5.06A7.12 7.12 0 0 0 8.137 50H47.33a3.561 3.561 0 0 0 2.529-1.045 3.576 3.576 0 0 0 1.045-2.534V17.854zM38.38 35.892a4.683 4.683 0 0 1-4.678-4.689 4.683 4.683 0 0 1 4.678-4.688 4.683 4.683 0 0 1 4.679 4.688 4.693 4.693 0 0 1-1.374 3.319 4.674 4.674 0 0 1-3.314 1.37h.01z" fill="#009AE1"/>
        <path d="M27.296 7.143H47.33a3.563 3.563 0 0 0 3.175-1.754c.66-1.12.66-2.513 0-3.633A3.563 3.563 0 0 0 47.33.002H27.296" fill="#9CA7BE" opacity=".4"/>
        <ellipse fill-opacity=".1" fill="#FFF" cx="24.666" cy="77.298" rx="24.666" ry="3.702"/>
    </g>
</svg>
