<svg width="50" height="75" xmlns="http://www.w3.org/2000/svg">
    <g transform="translate(.514)" fill="none" fill-rule="evenodd">
        <ellipse fill-opacity=".1" fill="#FFF" cx="24.666" cy="71.298" rx="24.666" ry="3.702"/>
        <path d="M24.54 0a1.653 1.653 0 0 0-1.162.428s-8.298 7.35-18.234 7.35c-.916 0-1.658.747-1.658 1.667v13.622c0 7.42 3.414 19.629 20.356 26.802a1.65 1.65 0 0 0 1.287 0c16.942-7.173 20.357-19.382 20.357-26.802V9.445c0-.92-.743-1.667-1.658-1.667-9.937 0-18.235-7.35-18.235-7.35A1.653 1.653 0 0 0 24.54.001zm-.054 10a1.66 1.66 0 0 1 1.658 1.667v1.678c2.332.255 4.311 1.945 4.93 4.312.232.889-.299 1.8-1.183 2.033-.884.233-1.79-.3-2.023-1.19-.287-1.1-1.237-1.865-2.32-1.865h-1.781c-1.47 0-2.653 1.254-2.653 2.81 0 1.544 1.183 2.81 2.653 2.81H25.8c3.57 0 6.479 2.989 6.479 6.667 0 3.555-2.72 6.466-6.135 6.655v1.645a1.66 1.66 0 0 1-1.658 1.667 1.66 1.66 0 0 1-1.658-1.667v-1.688c-2.31-.289-4.256-1.99-4.853-4.345-.221-.9.31-1.8 1.205-2.033a1.663 1.663 0 0 1 2.012 1.21c.276 1.112 1.237 1.889 2.32 1.889H25.8c1.747 0 3.163-1.489 3.163-3.333 0-1.845-1.416-3.334-3.163-3.334h-2.033c-3.294 0-5.969-2.754-5.969-6.143 0-3.067 2.178-5.601 5.03-6.068v-1.71c0-.922.74-1.666 1.658-1.666z" fill="#009AE1" fill-rule="nonzero"/>
    </g>
</svg>
