<svg width="50" height="81" xmlns="http://www.w3.org/2000/svg">
    <g fill="none" fill-rule="evenodd">
        <g fill-rule="nonzero">
            <path d="M29.883 0a9.764 9.764 0 0 0-1.057.046c-4.825.475-8.368 4.73-8.571 9.57h3.807c.1-2.7 1.928-5.14 4.577-5.657 3.664-.715 6.883 2.1 6.883 5.657h3.826c0-5.268-4.238-9.56-9.465-9.615z" fill="#4E5665"/>
            <path d="M39.348 9.616v3.846a1.919 1.919 0 0 1-1.913 1.923 1.919 1.919 0 0 1-1.913-1.923V9.616h-11.46c-.004.077-.019.148-.019.225v3.621a1.919 1.919 0 0 1-1.913 1.923 1.919 1.919 0 0 1-1.913-1.923v-3.418c0-.146.032-.284.038-.428h-7.671c.066-1.8.06-1.8-.019 0v36.538c0 2.125 1.712 3.846 3.826 3.846h26.783C45.288 50 47 48.279 47 46.154V9.616h-7.652z" fill="#009AE1"/>
            <path d="M12.584 9.616c.1-2.7 1.927-5.14 4.577-5.657.224-.044.438-.035.658-.052A13.971 13.971 0 0 1 20.352.226a9.533 9.533 0 0 0-3-.177c-4.827.473-8.373 4.727-8.576 9.567h3.808z" fill="#4E5665"/>
            <path d="M25.957 23.077c.319 0 .608.096.874.237l9.591 5.788c.593.327 1.013.939 1.013 1.667 0 .73-.42 1.34-1.013 1.664l-9.591 5.788c-.266.143-.555.24-.874.24a1.919 1.919 0 0 1-1.914-1.922V25c0-1.061.858-1.923 1.914-1.923z" fill="#1A2029"/>
            <path d="M3 9.616v36.538C3 48.279 4.712 50 6.826 50H8.74V9.616H3z" fill="#4E5665"/>
        </g>
        <ellipse fill-opacity=".1" fill="#FFF" cx="24.666" cy="76.702" rx="24.666" ry="3.702"/>
    </g>
</svg>
