<svg width="51" height="80" xmlns="http://www.w3.org/2000/svg">
    <g fill="none" fill-rule="evenodd">
        <path d="M42.615 16.615A7.385 7.385 0 0 1 50 24v16.615A7.385 7.385 0 0 1 42.615 48H25.903a7.385 7.385 0 0 1-7.384-7.385v-3.693l7.441.001c6.02 0 10.92-4.803 11.073-10.786l.004-.29v-9.232h5.578z" stroke="#242B38" stroke-width="1.086" fill="#9CA7BE" opacity=".4"/>
        <rect fill="#009AE1" width="31.481" height="31.385" rx="7.385"/>
        <path d="M2.466 33.628A2.498 2.498 0 0 0 0 36.156v2.493c0 4.102 3.391 7.48 7.508 7.48v.415c0 .588.356 1.12.901 1.344a1.453 1.453 0 0 0 1.589-.314l2.92-2.91c.57-.569.57-1.488 0-2.055l-2.92-2.91a1.455 1.455 0 0 0-1.589-.314 1.456 1.456 0 0 0-.901 1.344v.414c-1.412 0-2.503-1.087-2.503-2.494v-2.493a2.49 2.49 0 0 0-.733-1.798 2.507 2.507 0 0 0-1.806-.73z" fill="#009AE1"/>
        <ellipse fill-opacity=".1" fill="#FFF" cx="24.666" cy="76.298" rx="24.666" ry="3.702"/>
    </g>
</svg>
