<svg width="102" height="28" xmlns="http://www.w3.org/2000/svg">
    <g fill="none" fill-rule="evenodd">
        <path d="M11.942 17.301a6.222 6.222 0 0 0-1.884-4.82 7.705 7.705 0 0 0-5.406-1.733H0v13.237h1.043a1.87 1.87 0 0 0 1.342-.548c.356-.356.555-.84.553-1.345v-8.769h1.639A4.612 4.612 0 0 1 7.9 14.374a3.992 3.992 0 0 1 1.088 2.999 3.896 3.896 0 0 1-1.083 2.974c-.02.018-.042.033-.062.052a4.389 4.389 0 0 1-3.036.97h-1.53v.319a2.386 2.386 0 0 0 2.402 2.233c.078 0 .152 0 .227-.01.035 0 .068-.008.102-.012a6.752 6.752 0 0 0 4.097-1.717 6.527 6.527 0 0 0 1.836-4.881z" fill="#FFF" fill-rule="nonzero"/>
        <g fill="#FFF" fill-rule="nonzero">
            <path d="M22.55 12.5a1.699 1.699 0 0 1-.23-2.138 1.678 1.678 0 0 1 2.043-.638 1.694 1.694 0 0 1-.636 3.259 1.596 1.596 0 0 1-1.177-.483zM22.312 13.797h2.825v10.188h-2.825z"/>
        </g>
        <path fill="#FFF" fill-rule="nonzero" d="M29.077 23.985h-2.825V9.935h2.825z"/>
        <path d="M31.961 28a4.098 4.098 0 0 1-2.807-1.212l1.281-2.103c.378.422.907.674 1.47.702a.822.822 0 0 0 .678-.389c.18-.235.279-.523.282-.82 0-.29-1.306-3.75-3.918-10.378h3.014l2.468 6.345 2.467-6.345h3.009l-4.71 12.006a3.38 3.38 0 0 1-1.29 1.62 3.466 3.466 0 0 1-1.944.574z" fill="#FFF" fill-rule="nonzero"/>
        <path d="M43.159 13.39a1.146 1.146 0 0 0-.425.923c-.006.379.192.732.519.923a9.42 9.42 0 0 0 2.392.805 6.717 6.717 0 0 1 2.91 1.391 3.449 3.449 0 0 1 1.037 2.709 3.582 3.582 0 0 1-1.326 2.887 5.274 5.274 0 0 1-3.495 1.109 8.062 8.062 0 0 1-5.631-2.33l1.751-2.159a6.22 6.22 0 0 0 3.937 1.875c.451.026.898-.097 1.272-.35.3-.22.474-.574.462-.947.01-.38-.175-.737-.49-.947a6.385 6.385 0 0 0-1.937-.71 8.41 8.41 0 0 1-3.366-1.429 3.385 3.385 0 0 1-1.065-2.769 3.433 3.433 0 0 1 1.346-2.906 5.397 5.397 0 0 1 3.366-1.026c.899.004 1.79.157 2.638.455.84.28 1.619.718 2.298 1.288l-1.488 2.16a5.778 5.778 0 0 0-3.54-1.308 1.766 1.766 0 0 0-1.165.356z" fill="#FFF" fill-rule="nonzero"/>
        <path d="M60.332 18.891a5.049 5.049 0 0 1-1.53 3.731 5.605 5.605 0 0 1-7.666 0 5.335 5.335 0 0 1 0-7.47 5.58 5.58 0 0 1 7.666 0 5.08 5.08 0 0 1 1.53 3.74zm-7.873 0a2.932 2.932 0 0 0 .706 2.036 2.476 2.476 0 0 0 3.617 0 2.931 2.931 0 0 0 .706-2.036 2.967 2.967 0 0 0-.706-2.044 2.456 2.456 0 0 0-3.617 0 2.967 2.967 0 0 0-.706 2.044z" fill="#FFF" fill-rule="nonzero"/>
        <path d="M65.759 21.618a3.235 3.235 0 0 0 2.542-1.42l1.676 1.893a5.815 5.815 0 0 1-4.238 2.046 5.478 5.478 0 0 1-3.851-1.45 5.342 5.342 0 0 1-1.573-3.8 5.342 5.342 0 0 1 1.591-3.793 5.39 5.39 0 0 1 3.774-1.467c.76.006 1.512.16 2.213.454.745.301 1.416.76 1.969 1.345l-1.469 1.932a3.495 3.495 0 0 0-2.6-1.23 2.746 2.746 0 0 0-1.911.729 2.602 2.602 0 0 0-.8 2.026 2.57 2.57 0 0 0 .8 2.016 2.712 2.712 0 0 0 1.877.72zM70.553 12.5a1.698 1.698 0 0 1-.23-2.137 1.677 1.677 0 0 1 2.042-.637 1.693 1.693 0 0 1-.635 3.257 1.594 1.594 0 0 1-1.177-.483zm2.59 11.485h-2.826V13.797h2.825v10.188zM86.736 23.985H83.91V9.935h2.826zM81.712 14.555a4.7 4.7 0 0 0-3.014-.923 7.528 7.528 0 0 0-4.558 1.458l1.262 1.837c.42-.314.888-.56 1.384-.73a4.62 4.62 0 0 1 1.553-.293c1.143 0 1.715.543 1.715 1.629v.056h-2.11a5.383 5.383 0 0 0-3.09.776 2.647 2.647 0 0 0-1.13 2.34 3.126 3.126 0 0 0 1.093 2.499 4.004 4.004 0 0 0 2.703.937c1.056.003 2.05-.5 2.679-1.354l.024-.03v.11c.228.676.863 1.129 1.574 1.121h1.083v-6.495a3.524 3.524 0 0 0-1.168-2.938zm-1.677 5.548c.017.482-.196.943-.574 1.24-.374.307-.843.471-1.326.465a1.951 1.951 0 0 1-1.159-.293.975.975 0 0 1-.408-.843c0-.707.566-1.06 1.696-1.06h1.77l.001.49zM20.106 14.555a4.697 4.697 0 0 0-3.014-.923 7.526 7.526 0 0 0-4.558 1.458l1.261 1.837c.421-.314.888-.56 1.384-.73a4.615 4.615 0 0 1 1.554-.293c1.142 0 1.713.543 1.713 1.629v.056h-2.109a5.383 5.383 0 0 0-3.09.776 2.649 2.649 0 0 0-1.13 2.34 3.128 3.128 0 0 0 1.093 2.499 4.004 4.004 0 0 0 2.703.937 3.321 3.321 0 0 0 2.695-1.372c0 .013.005.025.009.038.209.707.858 1.19 1.592 1.182h1.063v-6.495a3.524 3.524 0 0 0-1.166-2.94zm-1.677 5.548c.017.482-.196.943-.574 1.24-.374.307-.844.471-1.326.465a1.95 1.95 0 0 1-1.159-.293.976.976 0 0 1-.408-.843c0-.707.565-1.06 1.695-1.06h1.77l.002.49z" fill="#FFF" fill-rule="nonzero"/>
        <g fill="#FFF" fill-rule="nonzero">
            <path d="M99.754 11.622h-.035a1.017 1.017 0 0 1-.8-.382 3.432 3.432 0 0 1-1.821.48h-.177a3.4 3.4 0 0 1-1.53-.41 3.279 3.279 0 0 1-.729-.55 3.207 3.207 0 0 1-.969-2.368 3.25 3.25 0 0 1 .97-2.377 3.301 3.301 0 0 1 2.435-.969c.116 0 .228 0 .34.015.437.031.864.148 1.257.344V2.616h1.812v8.466a6.84 6.84 0 0 0-.716-9.299 6.75 6.75 0 0 0-9.276.132 6.84 6.84 0 0 0-.453 9.316l.828-4.178h2.522l-1.167 5.887a6.75 6.75 0 0 0 7.78-1.312l-.271-.006zm-7.234-5.32a1.397 1.397 0 0 1-.514-2.687 1.384 1.384 0 0 1 1.682.517 1.401 1.401 0 0 1-.172 1.76 1.35 1.35 0 0 1-.996.41z"/>
            <path d="M97.096 6.583c-.19-.002-.38.03-.56.096-.227.085-.43.226-.589.41-.308.36-.469.825-.45 1.3-.02.473.141.936.45 1.293.29.33.711.512 1.149.499.12 0 .24-.012.359-.037.306-.063.583-.226.79-.462.308-.357.47-.82.45-1.293.018-.475-.142-.94-.45-1.3a1.465 1.465 0 0 0-1.15-.506z"/>
        </g>
        <ellipse cx="95.222" cy="6.813" rx="6.777" ry="6.813"/>
    </g>
</svg>
