<svg xmlns="http://www.w3.org/2000/svg" width="17" height="21" viewBox="0 0 17 21">
    <g fill="none" fill-rule="evenodd">
        <g fill="#737AFF" fill-rule="nonzero">
            <g>
                <path d="M7.988 0c-.414.007-.744.347-.738.76v.75h-3.5C2.516 1.51 1.5 2.526 1.5 3.76v4.497c0 1.233 1.016 2.25 2.25 2.25h8.5c1.234 0 2.25-1.017 2.25-2.25V3.76c0-1.233-1.016-2.249-2.25-2.249h-3.5V.76c.003-.202-.076-.397-.22-.54-.143-.144-.339-.223-.542-.22zM3.75 3.01h8.5c.423 0 .75.326.75.749v4.497c0 .423-.327.75-.75.75h-8.5c-.423 0-.75-.327-.75-.75V3.76c0-.423.327-.75.75-.75zm2 1.498c-.69 0-1.25.56-1.25 1.25s.56 1.25 1.25 1.25S7 6.447 7 5.757s-.56-1.25-1.25-1.25zm4.5 0c-.69 0-1.25.56-1.25 1.25s.56 1.25 1.25 1.25 1.25-.56 1.25-1.25-.56-1.25-1.25-1.25zm-8 7.496c-1.234 0-2.25 1.016-2.25 2.25v.38c0 1.173.481 2.298 1.344 3.102C2.506 18.819 4.609 20 8 20c3.391 0 5.494-1.182 6.656-2.264.863-.803 1.344-1.93 1.344-3.102v-.38c0-1.234-1.016-2.25-2.25-2.25H2.25zm0 1.5h11.5c.423 0 .75.326.75.75v.38c0 .763-.31 1.488-.865 2.005-.913.85-2.584 1.862-5.635 1.862-3.05 0-4.722-1.013-5.635-1.862-.554-.517-.865-1.241-.865-2.004v-.382c0-.423.327-.75.75-.75z" transform="translate(-1290.000000, -429.000000) translate(1290.500000, 429.500000)"/>
            </g>
        </g>
    </g>
</svg>
