<svg xmlns="http://www.w3.org/2000/svg" xmlns:xlink="http://www.w3.org/1999/xlink" width="121" height="120" viewBox="0 0 121 120">
    <defs>
        <path id="7peltu70ya" d="M4.115 52.717c-1.246 0-2.845-.047-4.115 0V16.695C5.436 5.565 19.392 0 41.869 0s36.433 5.565 41.869 16.695V86.87c0 3.024-3.232 9.01-11.492 13.051-6.892 3.372-18.967 5.128-19.749 5.128.212-1.121.494-2.873.494-3.738V78.883c.024-17.172-24.567-26.166-48.876-26.166z"/>
    </defs>
    <g fill="none" fill-rule="evenodd">
        <g>
            <g>
                <g transform="translate(-421.000000, -2333.000000) translate(421.000000, 2333.000000) translate(37.262233, 0.000000)">
                    <mask id="kd2u439exb" fill="#fff">
                        <use xlink:href="#7peltu70ya"/>
                    </mask>
                    <path fill="#FFC107" fill-rule="nonzero" d="M.353 78.883v7.475c0 10.327 18.526 18.69 41.377 18.69 22.851 0 41.377-8.363 41.377-18.69v-7.475H.353z" mask="url(#kd2u439exb)"/>
                    <ellipse cx="41.73" cy="78.883" fill="#FFD54F" fill-rule="nonzero" mask="url(#kd2u439exb)" rx="41.377" ry="18.69"/>
                    <g fill="#FFE082" fill-rule="nonzero" mask="url(#kd2u439exb)">
                        <g>
                            <path d="M15.046 3.2v7.477c2.868-1.075 5.384-2.313 7.523-3.692V0h-.823c-1.95 1.191-4.184 2.266-6.7 3.2zM0 6.752v7.476c2.633-.327 5.149-.795 7.523-1.332V5.42C5.15 5.98 2.633 6.425 0 6.752z" transform="translate(53.014606, 90.096397)"/>
                        </g>
                    </g>
                    <path fill="#FFC107" fill-rule="nonzero" d="M.353 63.93v7.477c0 10.326 18.526 18.69 41.377 18.69 22.851 0 41.377-8.364 41.377-18.69V63.93H.353z" mask="url(#kd2u439exb)"/>
                    <ellipse cx="41.73" cy="63.931" fill="#FFD54F" fill-rule="nonzero" mask="url(#kd2u439exb)" rx="41.377" ry="18.69"/>
                    <g fill="#FFE082" fill-rule="nonzero" mask="url(#kd2u439exb)">
                        <g>
                            <path d="M15.046 3.2v7.477c2.868-1.075 5.384-2.313 7.523-3.692V0h-.823c-1.95 1.191-4.184 2.266-6.7 3.2zM0 6.752v7.476c2.633-.327 5.149-.795 7.523-1.332V5.42C5.15 5.98 2.633 6.425 0 6.752z" transform="translate(53.014606, 75.144596)"/>
                        </g>
                    </g>
                    <path fill="#FFC107" fill-rule="nonzero" d="M.353 48.979v7.476c0 10.326 18.526 18.69 41.377 18.69 22.851 0 41.377-8.364 41.377-18.69v-7.476H.353z" mask="url(#kd2u439exb)"/>
                    <ellipse cx="41.73" cy="48.979" fill="#FFD54F" fill-rule="nonzero" mask="url(#kd2u439exb)" rx="41.377" ry="18.69"/>
                    <g fill="#FFE082" fill-rule="nonzero" mask="url(#kd2u439exb)">
                        <g>
                            <path d="M15.046 3.2v7.477c2.868-1.075 5.384-2.313 7.523-3.692V0h-.823c-1.95 1.191-4.184 2.266-6.7 3.2zM0 6.752v7.476c2.633-.327 5.149-.795 7.523-1.332V5.42C5.15 5.98 2.633 6.425 0 6.752z" transform="translate(53.014606, 60.192795)"/>
                        </g>
                    </g>
                    <path fill="#FFC107" fill-rule="nonzero" d="M.353 34.027v7.476c0 10.326 18.526 18.69 41.377 18.69 22.851 0 41.377-8.364 41.377-18.69v-7.476H.353z" mask="url(#kd2u439exb)"/>
                    <ellipse cx="41.73" cy="34.027" fill="#FFD54F" fill-rule="nonzero" mask="url(#kd2u439exb)" rx="41.377" ry="18.69"/>
                    <g fill="#FFE082" fill-rule="nonzero" mask="url(#kd2u439exb)">
                        <g>
                            <path d="M15.046 3.2v7.477c2.868-1.075 5.384-2.313 7.523-3.692V0h-.823c-1.95 1.191-4.184 2.266-6.7 3.2zM0 6.752v7.476c2.633-.327 5.149-.795 7.523-1.332V5.42C5.15 5.98 2.633 6.425 0 6.752z" transform="translate(53.014606, 45.240993)"/>
                        </g>
                    </g>
                    <path fill="#FFC107" fill-rule="nonzero" d="M.353 19.075v7.476c0 10.326 18.526 18.69 41.377 18.69 22.851 0 41.377-8.364 41.377-18.69v-7.476H.353z" mask="url(#kd2u439exb)"/>
                    <ellipse cx="41.73" cy="19.075" fill="#FFD54F" fill-rule="nonzero" mask="url(#kd2u439exb)" rx="41.377" ry="18.69"/>
                    <ellipse cx="41.847" cy="17.638" fill="#F7B900" fill-rule="nonzero" mask="url(#kd2u439exb)" rx="36.205" ry="15.302"/>
                    <path fill="#FFC107" fill-rule="nonzero" d="M41.847 32.94c19.995 0 36.205-6.947 36.205-14.882S61.725 4.609 41.73 4.609 6.435 10.123 6.435 18.058 21.852 32.94 41.847 32.94z" mask="url(#kd2u439exb)"/>
                    <g fill="#FFE082" fill-rule="nonzero" mask="url(#kd2u439exb)">
                        <g>
                            <path d="M15.046 3.2v7.477c2.868-1.075 5.384-2.313 7.523-3.692V0h-.823c-1.95 1.191-4.184 2.266-6.7 3.2zM0 6.752v7.476c2.633-.327 5.149-.795 7.523-1.332V5.42C5.15 5.98 2.633 6.425 0 6.752z" transform="translate(53.014606, 30.289192)"/>
                        </g>
                    </g>
                </g>
                <g fill-rule="nonzero" transform="translate(-421.000000, -2333.000000) translate(421.000000, 2333.000000) translate(0.000000, 60.192795)">
                    <path fill="#FFC107" d="M0 33.642v7.475c0 10.327 18.526 18.69 41.377 18.69 22.851 0 41.377-8.363 41.377-18.69v-7.475H0z"/>
                    <ellipse cx="41.377" cy="33.642" fill="#FFD54F" rx="41.377" ry="18.69"/>
                    <g fill="#FFE082">
                        <path d="M15.046 3.2v7.477c2.868-1.075 5.384-2.313 7.523-3.692V0h-.823c-1.95 1.191-4.184 2.266-6.7 3.2zM0 6.752v7.476c2.633-.327 5.149-.795 7.523-1.332V5.42C5.15 5.98 2.633 6.425 0 6.752z" transform="translate(52.661489, 44.855404)"/>
                    </g>
                    <path fill="#FFC107" d="M0 18.69v7.476c0 10.326 18.526 18.69 41.377 18.69 22.851 0 41.377-8.364 41.377-18.69V18.69H0z"/>
                    <ellipse cx="41.377" cy="18.69" fill="#FFD54F" rx="41.377" ry="18.69"/>
                    <ellipse cx="41.377" cy="17.253" fill="#F7B900" rx="36.205" ry="15.302"/>
                    <path fill="#FFC107" d="M41.377 32.555c19.995 0 36.205-7.069 36.205-14.617 0-7.548-16.21-12.717-36.205-12.717-19.995 0-35.134 5.17-35.134 12.717 0 7.548 15.139 14.617 35.134 14.617z"/>
                    <g fill="#FFE082">
                        <path d="M15.046 3.2v7.477c2.868-1.075 5.384-2.313 7.523-3.692V0h-.823c-1.95 1.191-4.184 2.266-6.7 3.2zM0 6.752v7.476c2.633-.327 5.149-.795 7.523-1.332V5.42C5.15 5.98 2.633 6.425 0 6.752z" transform="translate(52.661489, 29.903603)"/>
                    </g>
                </g>
                <g fill="#FFF" fill-rule="nonzero">
                    <path d="M19.319 6.193L15.87 0 12.42 6.193 6.112 9.579 12.42 12.965 15.87 19.157 19.319 12.965 25.625 9.579zM8.115 24.644L5.995 20.792 3.876 24.644 0 26.75 3.876 28.856 5.995 32.707 8.115 28.856 11.99 26.75zM23.11 24.927L21.864 22.661 20.618 24.927 18.337 26.166 20.618 27.405 21.864 29.67 23.11 27.405 25.39 26.166z" transform="translate(-421.000000, -2333.000000) translate(421.000000, 2333.000000) translate(23.039402, 0.385590)"/>
                </g>
            </g>
        </g>
    </g>
</svg>
