<svg xmlns="http://www.w3.org/2000/svg" width="62" height="56" viewBox="0 0 62 56">
    <g fill="none" fill-rule="evenodd">
        <g>
            <g transform="translate(-336.000000, -1266.000000) translate(336.000000, 1266.000000)">
                <ellipse cx="20" cy="53" fill="#252C3A" rx="20" ry="3"/>
                <path fill="#737AFF" fill-rule="nonzero" d="M4.545 0C2.035 0 0 2.014 0 4.5v27C0 33.986 2.034 36 4.545 36h29.546V20.1c0-3.6 1.923-3.1 4.545-3.102h6.819V4.5c0-2.486-2.035-4.5-4.546-4.5H4.545zm2.273 6.75h6.818v6.75H6.818V6.75zm50.3 17.798c1.408 0 2.468.513 3.18 1.538.712 1.025 1.076 2.596 1.093 4.712v1.013c0 2.075-.356 3.666-1.068 4.773-.713 1.107-1.773 1.66-3.18 1.66-1.075 0-1.937-.435-2.588-1.306v6.14H51.1V24.792h3.198L54.42 26c.66-.968 1.559-1.452 2.698-1.452zm-13.952-4.321c1.798 0 3.188.465 4.168 1.397.98.932 1.471 2.257 1.471 3.974 0 2.36-.858 4.012-2.576 4.956l3.113 7.275V38h-3.857l-2.673-6.494h-1.783V38H37.44V20.227h5.726zm12.939 7.214c-.708 0-1.225.297-1.55.891v6.189c.309.57.834.854 1.574.854.684 0 1.158-.288 1.423-.866.264-.578.396-1.477.396-2.698v-.867c0-1.277-.14-2.18-.42-2.71-.282-.529-.756-.793-1.423-.793zm-12.976-4.224h-2.1v5.298h2.039c.716 0 1.253-.238 1.611-.714.358-.476.537-1.113.537-1.91 0-1.783-.695-2.674-2.087-2.674zM34.09 9v4.5H20.455V9H34.09zM6.818 24.75h4.546v4.5H6.818v-4.5zm9.091 0h4.546v4.5h-4.546v-4.5zm9.091 0h4.545v4.5H25v-4.5z"/>
            </g>
        </g>
    </g>
</svg>
