<svg xmlns="http://www.w3.org/2000/svg" width="15" height="16" viewBox="0 0 15 16">
    <g fill="none" fill-rule="evenodd">
        <g fill="#737AFF" fill-rule="nonzero">
            <g>
                <path d="M813.667 102c-.921 0-1.667.716-1.667 1.6v11.2c0 .883.746 1.6 1.667 1.6h3.764l-.014.014 1.346 1.293c.406.39 1.068.39 1.474 0l1.346-1.293-.014-.015h3.764c.921 0 1.667-.716 1.667-1.6v-11.2c0-.883-.746-1.599-1.667-1.599h-11.666zm5.416 3.2h.834c.23 0 .416.18.416.4v.8c0 .22-.186.4-.416.4h-.834c-.23 0-.416-.18-.416-.4v-.8c0-.22.186-.4.416-.4zm.417 3.2c.46 0 .833.358.833.8v3.2c0 .441-.373.8-.833.8-.46 0-.833-.359-.833-.8v-3.2c0-.442.373-.8.833-.8z" transform="translate(-1148.000000, -404.000000) translate(336.000000, 302.000000)"/>
            </g>
        </g>
    </g>
</svg>
