<svg xmlns="http://www.w3.org/2000/svg" width="41" height="61" viewBox="0 0 41 61">
    <g fill="none" fill-rule="evenodd">
        <g>
            <g transform="translate(-347.000000, -1466.000000) translate(347.000000, 1466.000000)">
                <path fill="#737AFF" fill-rule="nonzero" d="M20.5 0C11.924 0 3.003 1.945 3.003 1.945l-.007.007C1.256 2.302.002 3.839 0 5.625v11.25C0 36.371 18.676 44.52 18.676 44.52c.557.315 1.185.48 1.824.48.636-.001 1.261-.166 1.816-.48h.008C22.325 44.52 41 36.371 41 16.875V5.625c0-1.79-1.257-3.332-3.003-3.68 0 0-8.92-1.945-17.497-1.945zm0 7.5c3.084 0 5.59 2.522 5.59 5.625v3.75h1.865c1.028 0 1.863.84 1.863 1.875v9.375c0 1.035-.835 1.875-1.863 1.875h-14.91c-1.028 0-1.863-.84-1.863-1.875V18.75c0-1.035.835-1.875 1.863-1.875h1.864v-3.75c0-3.103 2.507-5.625 5.591-5.625zm0 3.75c-1.027 0-1.864.842-1.864 1.875v3.75h3.728v-3.75c0-1.033-.837-1.875-1.864-1.875z"/>
                <ellipse cx="21" cy="58" fill="#252C3A" rx="20" ry="3"/>
            </g>
        </g>
    </g>
</svg>
