<svg xmlns="http://www.w3.org/2000/svg" width="20" height="20" viewBox="0 0 20 20">
    <g fill="none" fill-rule="evenodd">
        <g fill="#8E99AF" fill-rule="nonzero">
            <path d="M340.798 109c-.31.008-.606.138-.82.362L332 117.34l-7.978-7.978c-.222-.228-.526-.356-.843-.356-.478 0-.908.29-1.087.733-.18.443-.073.95.27 1.283l7.977 7.978-7.978 7.978c-.307.295-.43.732-.323 1.144.107.411.429.733.84.84.412.107.85-.016 1.144-.323L332 120.66l7.978 7.978c.294.307.732.43 1.143.323.412-.107.733-.429.84-.84.108-.412-.016-.85-.323-1.144L333.66 119l7.978-7.978c.35-.335.458-.85.272-1.298-.186-.448-.628-.735-1.112-.724z" transform="translate(-322.000000, -109.000000)"/>
        </g>
    </g>
</svg>
