<svg id="Wallet_Icon" xmlns="http://www.w3.org/2000/svg" width="16" height="16" viewBox="0 0 16 16">
  <metadata><?xpacket begin="﻿" id="W5M0MpCehiHzreSzNTczkc9d"?>
<x:xmpmeta xmlns:x="adobe:ns:meta/" x:xmptk="Adobe XMP Core 5.6-c142 79.160924, 2017/07/13-01:06:39        ">
   <rdf:RDF xmlns:rdf="http://www.w3.org/1999/02/22-rdf-syntax-ns#">
      <rdf:Description rdf:about=""/>
   </rdf:RDF>
</x:xmpmeta>
                                                                                                    
                                                                                                    
                                                                                                    
                                                                                                    
                                                                                                    
                                                                                                    
                                                                                                    
                                                                                                    
                                                                                                    
                                                                                                    
                                                                                                    
                                                                                                    
                                                                                                    
                                                                                                    
                                                                                                    
                                                                                                    
                                                                                                    
                                                                                                    
                                                                                                    
                                                                                                    
                           
<?xpacket end="w"?></metadata>
<defs>
    <style>
      .cls-1 {
        fill: #9ca7be;
        opacity: 0.4;
      }

      .cls-1, .cls-2 {
        fill-rule: evenodd;
      }

      .cls-2 {
        fill: #737aff;
      }
    </style>
  </defs>
  <path id="_02" data-name="02" class="cls-1" d="M56,445.715a1.143,1.143,0,0,0-1.143-1.143H43.431a1.142,1.142,0,1,1,0-2.284h1.424a1.143,1.143,0,1,0,0-2.285H43.431A3.431,3.431,0,0,0,40,443.43v10.282A2.285,2.285,0,0,0,42.288,456H54.854A1.143,1.143,0,0,0,56,454.855v-9.14Zm-4.015,5.771a1.5,1.5,0,1,1,1.5-1.5A1.5,1.5,0,0,1,51.982,451.486Z" transform="translate(-40 -440)"/>
  <path id="_01" data-name="01" class="cls-2" d="M48.431,442.288h6.423a1.143,1.143,0,1,0,0-2.285H48.431" transform="translate(-40 -440)"/>
</svg>
