<svg xmlns="http://www.w3.org/2000/svg" width="18" height="18" viewBox="0 0 18 18">
    <g fill="none" fill-rule="evenodd">
        <g fill="#9CA7BE" fill-rule="nonzero">
            <path d="M307.495 313c-4.13 0-7.495 3.365-7.495 7.495 0 4.131 3.365 7.496 7.495 7.496 1.797 0 3.446-.638 4.74-1.697l4.475 4.476c.188.195.467.274.73.206.262-.069.467-.274.536-.537.068-.262-.01-.541-.206-.73l-4.476-4.475c1.06-1.293 1.697-2.942 1.697-4.739 0-4.13-3.365-7.495-7.496-7.495zm0 1.5c3.321 0 5.997 2.675 5.997 5.995 0 3.321-2.676 5.997-5.997 5.997-3.32 0-5.996-2.676-5.996-5.997 0-3.32 2.676-5.996 5.996-5.996z" transform="translate(-300.000000, -313.000000)"/>
        </g>
    </g>
</svg>
