<svg xmlns="http://www.w3.org/2000/svg" width="13" height="13" viewBox="0 0 13 13">
    <g fill="none" fill-rule="evenodd">
        <g fill="#737AFF" fill-rule="nonzero">
            <g>
                <path d="M40.413 29C37.43 29 35 31.43 35 34.413c0 2.984 2.43 5.414 5.413 5.414 1.298 0 2.49-.46 3.423-1.226l3.232 3.233c.136.141.337.198.527.148.19-.049.338-.197.387-.387.05-.19-.007-.391-.148-.527L44.6 37.836c.765-.934 1.226-2.125 1.226-3.423 0-2.983-2.43-5.413-5.414-5.413zm0 1.083c2.399 0 4.331 1.932 4.331 4.33 0 2.399-1.932 4.331-4.33 4.331-2.399 0-4.331-1.932-4.331-4.33 0-2.399 1.932-4.331 4.33-4.331z" transform="translate(-371.000000, -331.000000) translate(336.000000, 302.000000)"/>
            </g>
        </g>
    </g>
</svg>
