<svg xmlns="http://www.w3.org/2000/svg" width="22" height="15" viewBox="0 0 22 15">
    <g fill="none" fill-rule="evenodd">
        <g fill="#FFF">
            <g>
                <path d="M882.608 107.51c2.973 0 5.392 2.353 5.392 5.245S885.581 118 882.608 118c-2.973 0-5.392-2.353-5.392-5.245s2.419-5.245 5.392-5.245zm-15.167 6.606l.014.02c.163.213 1.594 1.886 6.58 1.886.763 0 1.467-.029 2.11-.085.183.392.4.764.648 1.113-.794.157-1.71.249-2.745.249-4.497 0-6.61-1.805-6.61-3.186l.003.003zm15.167-3.983c-.399 0-.723.32-.723.713v1.932h-1.468c-.257 0-.387.308-.204.488l1.96 1.934c.24.237.63.237.87 0l1.96-1.934c.182-.18.053-.488-.205-.488h-1.468v-1.932c0-.394-.324-.713-.722-.713zm-14.883 2.175l.001.004.006.014c.062.15.643 1.073 5.542 1.073.803 0 1.547-.051 2.231-.154.015.464.077.917.18 1.356-.453.045-.926.069-1.416.069-4.496 0-6.544-.982-6.544-2.362zM866 108.95s1.415 1.826 6.74 1.826c1.221 0 2.288-.072 3.2-.216-.148.391-.26.8-.334 1.222-.819.171-1.77.27-2.852.27-4.497 0-6.754-1.721-6.754-3.102zm6.74-5.951c3.724 0 6.74 1.432 6.74 3.2 0 .18-.031.358-.092.532-.935.465-1.751 1.133-2.392 1.947-1.158.45-2.64.72-4.256.72-3.724 0-6.74-1.432-6.74-3.2 0-1.767 3.016-3.199 6.74-3.199z" transform="translate(-1202.000000, -405.000000) translate(336.000000, 302.000000)"/>
            </g>
        </g>
    </g>
</svg>
