<svg id="Buy_sell_Icon" data-name="Buy / sell_Icon" xmlns="http://www.w3.org/2000/svg" width="16.4" height="16.4" viewBox="0 0 16.4 16.4">
  <metadata><?xpacket begin="﻿" id="W5M0MpCehiHzreSzNTczkc9d"?>
<x:xmpmeta xmlns:x="adobe:ns:meta/" x:xmptk="Adobe XMP Core 5.6-c142 79.160924, 2017/07/13-01:06:39        ">
   <rdf:RDF xmlns:rdf="http://www.w3.org/1999/02/22-rdf-syntax-ns#">
      <rdf:Description rdf:about=""/>
   </rdf:RDF>
</x:xmpmeta>
                                                                                                    
                                                                                                    
                                                                                                    
                                                                                                    
                                                                                                    
                                                                                                    
                                                                                                    
                                                                                                    
                                                                                                    
                                                                                                    
                                                                                                    
                                                                                                    
                                                                                                    
                                                                                                    
                                                                                                    
                                                                                                    
                                                                                                    
                                                                                                    
                                                                                                    
                                                                                                    
                           
<?xpacket end="w"?></metadata>
<defs>
    <style>
      .cls-1 {
        fill: #9ca7be;
        opacity: 0.4;
      }

      .cls-1, .cls-2 {
        stroke: #242b38;
        stroke-width: 0.4px;
        fill-rule: evenodd;
      }

      .cls-2 {
        fill: #7279fe;
      }
    </style>
  </defs>
  <path id="_02" data-name="02" class="cls-1" d="M48.861,235.773a0.825,0.825,0,0,1-.676.4H45.549v3.573h0.627a0.858,0.858,0,0,1,.736.482,1.418,1.418,0,0,1-.052,1.421L44.218,244.6a0.77,0.77,0,0,1-1.348,0l-2.643-2.948a1.419,1.419,0,0,1-.052-1.421,0.858,0.858,0,0,1,.736-0.482h0.627v-5.163a2.357,2.357,0,0,1,2.006-2.59h6.548a0.856,0.856,0,0,1,.735.481,1.419,1.419,0,0,1-.049,1.42Z" transform="translate(-39.8 -231.8)"/>
  <path id="_01" data-name="01" class="cls-2" d="M55.825,239.771a0.859,0.859,0,0,1-.736.483H54.462v5.163a2.358,2.358,0,0,1-2.006,2.59H45.909a0.858,0.858,0,0,1-.735-0.481,1.418,1.418,0,0,1,.049-1.42l1.916-1.879a0.825,0.825,0,0,1,.676-0.4h2.636v-3.573H49.824a0.859,0.859,0,0,1-.736-0.483,1.419,1.419,0,0,1,.052-1.421l2.643-2.948a0.77,0.77,0,0,1,1.348,0l2.643,2.947A1.419,1.419,0,0,1,55.825,239.771Z" transform="translate(-39.8 -231.8)"/>
</svg>
