<svg xmlns="http://www.w3.org/2000/svg" width="17" height="18" viewBox="0 0 17 18">
    <g fill="none" fill-rule="evenodd">
        <g fill="#9CA7BE" fill-rule="nonzero">
            <path d="M346.5 313c-.698 0-1.37.09-2.013.242-.275.065-.479.3-.51.584l-.14 1.306c-.046.428-.29.807-.656 1.022-.367.215-.811.24-1.199.066l-1.18-.528c-.258-.115-.56-.053-.752.157-.918.994-1.622 2.198-2.021 3.542-.082.274.015.57.242.74l1.047.78c.342.256.543.658.543 1.089 0 .431-.2.834-.543 1.089l-1.047.78c-.227.169-.324.465-.242.74.4 1.343 1.103 2.548 2.02 3.542.193.21.495.272.753.156l1.18-.528c.387-.174.832-.149 1.199.067.366.215.61.594.656 1.022l.14 1.306c.031.284.235.518.509.583.643.153 1.316.243 2.014.243.698 0 1.37-.09 2.013-.242.275-.065.479-.3.51-.584l.14-1.306c.046-.428.29-.807.656-1.022.367-.215.811-.24 1.199-.067l1.18.528c.258.116.56.053.752-.156.918-.994 1.622-2.199 2.021-3.542.082-.274-.015-.571-.242-.74l-1.047-.78c-.342-.255-.543-.658-.543-1.089 0-.431.2-.834.543-1.089l1.047-.78c.227-.169.324-.465.242-.74-.4-1.343-1.103-2.548-2.02-3.542-.193-.21-.495-.272-.753-.156l-1.18.528c-.388.173-.832.148-1.199-.067-.366-.215-.61-.594-.656-1.022l-.14-1.306c-.031-.284-.235-.518-.509-.583-.643-.153-1.316-.243-2.014-.243zm0 1.35c.431 0 .845.079 1.26.153l.083.776c.092.855.58 1.615 1.313 2.044.732.43 1.623.48 2.397.134l.702-.314c.539.658.965 1.402 1.263 2.216l-.622.464c-.681.508-1.085 1.317-1.085 2.177 0 .86.404 1.669 1.085 2.177l.622.464c-.298.814-.724 1.558-1.263 2.216l-.702-.314c-.774-.346-1.665-.296-2.397.134-.732.43-1.22 1.19-1.313 2.044l-.083.776c-.415.074-.829.153-1.26.153-.431 0-.845-.079-1.26-.153l-.083-.776c-.092-.855-.58-1.615-1.313-2.044-.732-.43-1.623-.48-2.397-.134l-.702.314c-.539-.658-.965-1.401-1.263-2.216l.622-.464c.681-.508 1.085-1.317 1.085-2.177 0-.86-.404-1.67-1.085-2.178l-.622-.464c.298-.815.725-1.557 1.264-2.216l.701.314c.774.346 1.665.297 2.397-.133.732-.43 1.22-1.19 1.313-2.044l.083-.776c.415-.074.829-.153 1.26-.153zm0 4.05c-1.948 0-3.54 1.62-3.54 3.6s1.592 3.6 3.54 3.6 3.54-1.62 3.54-3.6-1.592-3.6-3.54-3.6zm0 1.35c1.23 0 2.213 1 2.213 2.25s-.983 2.25-2.213 2.25-2.213-1-2.213-2.25.983-2.25 2.213-2.25z" transform="translate(-338.000000, -313.000000)"/>
        </g>
    </g>
</svg>
