<svg xmlns="http://www.w3.org/2000/svg" width="22" height="15" viewBox="0 0 22 15">
    <g fill="none" fill-rule="evenodd">
        <g fill="#FF6D87">
            <g>
                <path d="M928.608 268.51c2.973 0 5.392 2.353 5.392 5.245S931.581 279 928.608 279c-2.973 0-5.392-2.353-5.392-5.245s2.419-5.245 5.392-5.245zm-15.167 6.606l.014.02c.163.213 1.594 1.886 6.58 1.886.763 0 1.467-.029 2.11-.085.183.392.4.764.648 1.113-.794.157-1.71.249-2.745.249-4.497 0-6.61-1.805-6.61-3.186l.003.003zm14.732-3.805l-1.96 1.934c-.183.18-.053.488.204.488h1.468v1.932c0 .393.324.713.723.713.398 0 .722-.32.722-.713v-1.932h1.468c.258 0 .387-.308.205-.488l-1.96-1.934c-.24-.237-.63-.237-.87 0zm-14.448 1.997l.001.004.006.014c.062.15.643 1.073 5.542 1.073.803 0 1.547-.051 2.231-.154.015.464.077.917.18 1.356-.453.045-.926.069-1.416.069-4.496 0-6.544-.982-6.544-2.362zM912 269.95s1.415 1.826 6.74 1.826c1.221 0 2.288-.072 3.2-.216-.148.391-.26.8-.334 1.222-.819.171-1.77.27-2.852.27-4.497 0-6.754-1.721-6.754-3.102zm6.74-5.951c3.724 0 6.74 1.432 6.74 3.2 0 .18-.031.358-.092.532-.935.465-1.751 1.133-2.392 1.947-1.158.45-2.64.72-4.256.72-3.724 0-6.74-1.432-6.74-3.2 0-1.767 3.016-3.199 6.74-3.199z" transform="translate(-1248.000000, -566.000000) translate(336.000000, 302.000000)"/>
            </g>
        </g>
    </g>
</svg>
