<svg xmlns="http://www.w3.org/2000/svg" width="41" height="61" viewBox="0 0 41 61">
    <g fill="none" fill-rule="evenodd">
        <g>
            <g transform="translate(-347.000000, -1129.000000) translate(347.000000, 1129.000000)">
                <ellipse cx="20" cy="58" fill="#252C3A" rx="20" ry="3"/>
                <path fill="#737AFF" fill-rule="nonzero" d="M17.924 0c-.85 0-1.539.681-1.539 1.52v6.92l-3.317 5.95c-.281-.441-.771-.709-1.298-.71H2.54c-.428 0-.836.175-1.127.483-.29.309-.44.723-.41 1.144l1.54 21.28C2.598 37.383 3.27 38 4.077 38h7.692c.85 0 1.538-.68 1.538-1.52h2.536c.547.918 1.522 1.52 2.623 1.52h14.84c1.7 0 3.078-1.361 3.078-3.04-.001-.541-.149-1.072-.427-1.538 1.982-.175 3.502-1.816 3.504-3.782-.002-.93-.348-1.826-.974-2.52 1.508-.552 2.51-1.971 2.512-3.56-.001-1.197-.574-2.324-1.544-3.04.97-.716 1.543-1.843 1.544-3.04 0-1.008-.405-1.974-1.126-2.687-.722-.713-1.7-1.113-2.72-1.113H23.32c.402-1.773.757-3.663.757-4.56 0-3.482-2.79-9.12-4.684-9.12h-1.47zM4.192 16.72h6.04v18.24H5.51L4.19 16.72z"/>
            </g>
        </g>
    </g>
</svg>
