<svg xmlns="http://www.w3.org/2000/svg" width="21" height="15" viewBox="0 0 21 15">
    <g fill="none" fill-rule="evenodd">
        <g fill="#737AFF" fill-rule="nonzero">
            <g>
                <path d="M10.432 0c3.032 0 5.817.22 7.455.446.019.002.038.006.056.01 1.232.27 2.347 1.15 2.59 2.448.231 1.117.467 2.528.467 4.552v.016c-.046 2.023-.282 3.423-.463 4.52l-.002.01c-.24 1.335-1.38 2.187-2.592 2.453l-.017.005c-1.678.325-4.417.54-7.45.54-3.031 0-5.769-.215-7.446-.54l-.018-.005c-1.23-.27-2.344-1.148-2.59-2.442C.19 10.88 0 9.516 0 7.5c0-2.02.188-3.422.373-4.497v-.006C.614 1.663 1.755.811 2.966.545l.01-.003C4.583.212 7.4 0 10.432 0zM8.484 4c-.516.012-.984.454-.984 1.069V9.93c0 .82.833 1.334 1.5.928l3.995-2.43c.673-.41.673-1.445 0-1.855L9 4.142c-.167-.102-.345-.146-.517-.142z" transform="translate(-885.000000, -244.000000) translate(885.000000, 244.000000)"/>
            </g>
        </g>
    </g>
</svg>
