<svg xmlns="http://www.w3.org/2000/svg" width="364" height="358" viewBox="0 0 364 358">
    <g fill="none" fill-rule="evenodd">
        <g>
            <g>
                <g>
                    <g>
                        <path fill="#A8B7B8" d="M77.332 201.703H33.307c-.774 0-1.4-.627-1.4-1.401v-.77c0-.774.626-1.401 1.4-1.401h44.025c.773 0 1.4.627 1.4 1.401v.77c0 .774-.627 1.401-1.4 1.401" transform="translate(-966.000000, -753.000000) translate(840.000000, 741.000000) translate(308.000000, 191.000000) rotate(-10.000000) translate(-308.000000, -191.000000) translate(151.000000, 37.000000) translate(0.000000, 36.094405)"/>
                        <path fill="#132529" d="M92.088 1.65s-4.65-3.165-11.45-.727c-6.8 2.438-8.328 11.6-6.653 19.037 1.675 7.436-7.689 32.825-7.689 32.825s4.867 6.847 21.876 4.226c0 0 12.682-23.058 11.74-39.612C98.97.846 92.088 1.65 92.088 1.65" transform="translate(-966.000000, -753.000000) translate(840.000000, 741.000000) translate(308.000000, 191.000000) rotate(-10.000000) translate(-308.000000, -191.000000) translate(151.000000, 37.000000) translate(0.000000, 36.094405)"/>
                        <path fill="#E0674B" d="M97.457 30.253c6.392-2.045 10.304 3.28 13.966 13.19 3.662 9.91 4.894 10.904 4.894 10.904l14.136 9.087-1.174 5.296s-13.454-5.27-16.707-8.622c-3.252-3.353-12.61-20.333-12.61-20.333l-2.505-9.522" transform="translate(-966.000000, -753.000000) translate(840.000000, 741.000000) translate(308.000000, 191.000000) rotate(-10.000000) translate(-308.000000, -191.000000) translate(151.000000, 37.000000) translate(0.000000, 36.094405)"/>
                        <path fill="#E88465" d="M66.304 94.276s-2.774 14.052-2.317 35.203c0 0-10.928 16.123-1.91 62.124h4.732s3.864-39.138 6.821-49.743c2.957-10.605 13.876-13.86 14.467-46.104l-21.793-1.48M44.682 135.594c-2.749-9.063-9.814-24.244-27.94-44.82 0 0-1.08-.558-2.542.335-1.543.943-1.543 2.052-1.543 2.052s9.089 19.816 14.885 34.334c1.951 4.888 6.67 8.1 11.932 8.1h5.208" transform="translate(-966.000000, -753.000000) translate(840.000000, 741.000000) translate(308.000000, 191.000000) rotate(-10.000000) translate(-308.000000, -191.000000) translate(151.000000, 37.000000) translate(0.000000, 36.094405)"/>
                        <path fill="#1C3A44" d="M77.681 153.12s.062 6.763-4.374 6.878c-6.262.169-6.493-6.656-13.59-6.434-7.096.222-21.732 1.997-26.39-9.096-2.404-5.734.887-13.091-6.874-18.638-7.762-5.546-3.992-11.759 0-15.086 3.992-3.32-1.72-6.959 2.44-8.653.993-.4 1.968-.355 2.873-.054.533.186 1.03.444 1.508.763 2.2 1.465 3.744 4.012 3.744 4.012 11.753-32.207 32.679-36.458 32.679-36.458L90.393 77.5c.496 50.107-12.712 75.622-12.712 75.622" transform="translate(-966.000000, -753.000000) translate(840.000000, 741.000000) translate(308.000000, 191.000000) rotate(-10.000000) translate(-308.000000, -191.000000) translate(151.000000, 37.000000) translate(0.000000, 36.094405)"/>
                        <path fill="#E0674B" d="M85.195 18.218s.803 6.788-1.707 12.962c0 0 3.583 5.293 7.002 1.81 0 0 .313-6.22 4.154-13.258 2.573-4.713-9.45-1.514-9.45-1.514" transform="translate(-966.000000, -753.000000) translate(840.000000, 741.000000) translate(308.000000, 191.000000) rotate(-10.000000) translate(-308.000000, -191.000000) translate(151.000000, 37.000000) translate(0.000000, 36.094405)"/>
                        <path fill="#E88465" d="M79.703 18.449s-3.022-1.913-2.681 1.038c.395 3.42 3.729 4.087 4.084 2.89.355-1.194-1.403-3.928-1.403-3.928M97.043 14.747s1.919-3.02 2.868-.204c1.1 3.262-1.632 5.286-2.463 4.357-.83-.93-.405-4.153-.405-4.153" transform="translate(-966.000000, -753.000000) translate(840.000000, 741.000000) translate(308.000000, 191.000000) rotate(-10.000000) translate(-308.000000, -191.000000) translate(151.000000, 37.000000) translate(0.000000, 36.094405)"/>
                        <path fill="#E88465" d="M90.802 28.67c-5.483 1.228-9.379-1.66-11.783-12.406-1.24-5.542.818-9.573 6.958-10.948 6.14-1.376 9.487 1.444 10.728 6.987 2.584 11.545-.24 15.099-5.903 16.367" transform="translate(-966.000000, -753.000000) translate(840.000000, 741.000000) translate(308.000000, 191.000000) rotate(-10.000000) translate(-308.000000, -191.000000) translate(151.000000, 37.000000) translate(0.000000, 36.094405)"/>
                        <path fill="#1E3F43" d="M87.015 22.634s3.522-.287 5.073-1.598c0 0-.427 2.753-2.342 2.944-1.916.19-2.73-1.346-2.73-1.346" transform="translate(-966.000000, -753.000000) translate(840.000000, 741.000000) translate(308.000000, 191.000000) rotate(-10.000000) translate(-308.000000, -191.000000) translate(151.000000, 37.000000) translate(0.000000, 36.094405)"/>
                        <path fill="#CC5B4B" d="M88.792 19.457l-.282-.536c.456-.24.494-.565.447-.794-.067-.325-.332-.582-.523-.597-.109-.006-.203.088-.277.283l-.567-.211c.243-.654.703-.69.89-.676.483.036.952.51 1.07 1.077.124.595-.16 1.138-.758 1.454" transform="translate(-966.000000, -753.000000) translate(840.000000, 741.000000) translate(308.000000, 191.000000) rotate(-10.000000) translate(-308.000000, -191.000000) translate(151.000000, 37.000000) translate(0.000000, 36.094405)"/>
                        <path fill="#15282C" d="M80.137 20.383s-1.69-6.223-.687-10.625c0 0 4.77-6.644 13.974-3.36 0 0 2.73 4.399 4.083 10.554 0 0 .343-2.211-.572-7.135-.917-4.924-5.283-7.983-11.27-6.998-5.988.985-12.396 6.945-5.528 17.564" transform="translate(-966.000000, -753.000000) translate(840.000000, 741.000000) translate(308.000000, 191.000000) rotate(-10.000000) translate(-308.000000, -191.000000) translate(151.000000, 37.000000) translate(0.000000, 36.094405)"/>
                        <path fill="#15282C" d="M89.789 5.018s.365 1.625-1.215 5.808c0 0-1.136-1.188-2.466 0-1.33 1.187-4.033.79-4.955 1.433-.922.642-.922 2.11-.922 2.11s-.799-1.828 0-4.02c0 0-1.795 2.283-1.557 5.103 0 0-2.434-.394-2.324-4.412C76.461 7.022 82.17.52 88.574.943c6.405.42 7.93 10.566 7.93 10.566s-.585-.46-1.499-.255c0 0-.141-2.149-1.581-4.855 0 0 .664 1.953 0 4.061 0 0-1.784-.936-3.19-.643 0 0 .868-1.7-.445-4.799" transform="translate(-966.000000, -753.000000) translate(840.000000, 741.000000) translate(308.000000, 191.000000) rotate(-10.000000) translate(-308.000000, -191.000000) translate(151.000000, 37.000000) translate(0.000000, 36.094405)"/>
                        <path fill="#E88465" d="M70.207 29.541c3.118-2.458 5.545.669 6.14 4.994.594 4.324-5.042 29.84-9.388 28.899-1.678-.363-2.363-7.047-2.363-7.047s1.7-7.174 2.8-17.971c.506-4.963 1.186-7.593 2.811-8.875" transform="translate(-966.000000, -753.000000) translate(840.000000, 741.000000) translate(308.000000, 191.000000) rotate(-10.000000) translate(-308.000000, -191.000000) translate(151.000000, 37.000000) translate(0.000000, 36.094405)"/>
                        <path fill="#E88465" d="M61.138 59.828c-4.195-4.002-11.72-17.275-13.631-24.037l3.186-1.282s9.589 13.725 13.96 17.186c4.371 3.46 5.908 7.315 3.956 10.616-1.952 3.3-6.587-1.642-7.47-2.483" transform="translate(-966.000000, -753.000000) translate(840.000000, 741.000000) translate(308.000000, 191.000000) rotate(-10.000000) translate(-308.000000, -191.000000) translate(151.000000, 37.000000) translate(0.000000, 36.094405)"/>
                        <path fill="#E88465" d="M48.815 26.937c-.22 4.34 3.316 5.37 1.747 8.701-.323.688-.815 1.054-1.328 1.235-.971.344-2.051.02-2.776-.714-1.68-1.7-4.279-3.5-5.662-4.29-1.573-.907-.682-1.155-.682-1.155-.153-.072-.3-.132-.449-.192-1.122-.47-2.019-.647-1.205-1.146.915-.57 4.161.616 4.161.616-4.225-2.814-5.371-2.128-4.6-2.726 1.053-.819 5.07 1.064 5.19 1.121-2.232-2.112-3.851-2.59-2.965-2.908.896-.323 5.313 2.877 6.925 4.078.362.269.585.442.585.442-.056-3.548 1.059-3.062 1.059-3.062" transform="translate(-966.000000, -753.000000) translate(840.000000, 741.000000) translate(308.000000, 191.000000) rotate(-10.000000) translate(-308.000000, -191.000000) translate(151.000000, 37.000000) translate(0.000000, 36.094405)"/>
                        <path fill="#E0674B" d="M47.17 29.557c.363.269.586.442.586.442s-.756 1.272.223 2.921c0 0-1.798-1.18-.808-3.363M43.467 32.049c-.374-.205-2.505-1.406-3.353-1.335-.153-.072-.3-.132-.449-.192.57-.751 3.378 1.22 3.802 1.527" transform="translate(-966.000000, -753.000000) translate(840.000000, 741.000000) translate(308.000000, 191.000000) rotate(-10.000000) translate(-308.000000, -191.000000) translate(151.000000, 37.000000) translate(0.000000, 36.094405)"/>
                        <path fill="#5F8EA2" d="M60.216 96.456c0 .472-.382.854-.852.854-.472 0-.854-.382-.854-.854 0-.47.382-.853.854-.853.47 0 .852.382.852.853M75.429 102.328c0 .47-.382.853-.853.853s-.853-.382-.853-.853c0-.472.382-.854.853-.854.47 0 .853.382.853.854M88.391 105.476c0 .471-.382.854-.852.854-.472 0-.853-.383-.853-.854 0-.47.381-.853.853-.853.47 0 .852.382.852.853M68.474 85.317c0 .471-.381.853-.852.853s-.853-.382-.853-.853.382-.853.853-.853c.47 0 .852.382.852.853M71.346 93.423c0 .471-.382.853-.853.853-.47 0-.853-.382-.853-.853s.382-.853.853-.853.853.382.853.853M84.835 98.044c0 .471-.382.852-.852.852-.472 0-.854-.38-.854-.852 0-.471.382-.853.854-.853.47 0 .852.382.852.853M86.686 84.06c0 .471-.382.854-.853.854-.47 0-.853-.383-.853-.853 0-.472.382-.854.853-.854s.853.382.853.854M77.847 81.15c0 .471-.38.853-.852.853-.47 0-.853-.382-.853-.853s.382-.853.853-.853.852.382.852.853M52.67 113.098c0 .471-.381.853-.852.853s-.853-.382-.853-.853.382-.853.853-.853c.47 0 .853.382.853.853M40.518 109.471c0 .47-.382.853-.853.853-.47 0-.852-.382-.852-.853 0-.472.381-.854.852-.854s.853.382.853.854M33.274 102.8c-.15.231-.417.382-.718.382-.47 0-.852-.382-.852-.852 0-.107.018-.204.062-.293.533.186 1.03.444 1.508.763M57.025 124.224c0 .471-.382.853-.853.853-.47 0-.853-.382-.853-.853s.382-.853.853-.853.853.382.853.853M35.214 136.316c0 .471-.382.853-.853.853-.47 0-.853-.382-.853-.853s.382-.853.853-.853.853.382.853.853M44.124 128.986c0 .472-.382.854-.852.854-.472 0-.853-.382-.853-.854 0-.47.381-.853.853-.853.47 0 .852.382.852.853M30.854 122.501c0 .472-.382.854-.853.854-.47 0-.853-.382-.853-.854 0-.47.382-.853.853-.853s.853.382.853.853M41.566 148.038c0 .471-.382.853-.853.853s-.853-.382-.853-.853.382-.853.853-.853c.47 0 .853.382.853.853M49.685 103.181c0 .47-.382.853-.853.853-.47 0-.853-.382-.853-.853 0-.472.382-.853.853-.853s.853.381.853.853M57.878 88.813c0 .471-.382.853-.853.853s-.853-.382-.853-.853.382-.853.853-.853c.47 0 .853.382.853.853M67.15 76.855c0 .471-.382.853-.854.853-.47 0-.852-.382-.852-.853s.382-.853.852-.853c.472 0 .854.382.854.853M48.36 94.276c0 .472-.382.853-.853.853-.47 0-.853-.381-.853-.853 0-.47.382-.853.853-.853s.853.382.853.853M58.731 80.297c0 .471-.382.853-.853.853-.47 0-.853-.382-.853-.853s.382-.853.853-.853.853.382.853.853M42.42 118.711c0 .472-.383.854-.854.854-.47 0-.853-.382-.853-.854 0-.47.382-.852.853-.852s.853.382.853.852M31.706 111.177c0 .471-.381.853-.852.853s-.853-.382-.853-.853.382-.853.853-.853c.47 0 .852.382.852.853M62.775 108.617c0 .472-.382.854-.853.854s-.852-.382-.852-.854c0-.47.38-.853.852-.853.47 0 .853.382.853.853M80.406 113.098c0 .471-.382.853-.853.853-.47 0-.852-.382-.852-.853s.381-.853.852-.853.853.382.853.853M79.553 88.813c0 .471-.382.853-.852.853-.472 0-.854-.382-.854-.853s.382-.853.854-.853c.47 0 .852.382.852.853M89.803 90.602c0 .471-.382.853-.852.853-.472 0-.854-.382-.854-.853s.382-.853.854-.853c.47 0 .852.382.852.853M69.327 119.565c0 .47-.382.853-.853.853-.47 0-.852-.382-.852-.853 0-.472.381-.854.852-.854s.853.382.853.854M61.922 134.741c0 .471-.382.853-.852.853-.472 0-.854-.382-.854-.853s.382-.853.854-.853c.47 0 .852.382.852.853M48.832 137.169c0 .472-.382.854-.853.854s-.852-.382-.852-.854c0-.47.38-.853.852-.853.47 0 .853.382.853.853M84.835 124.224c0 .471-.382.853-.852.853-.472 0-.854-.382-.854-.853s.382-.853.854-.853c.47 0 .852.382.852.853M73.052 130.693c0 .47-.382.853-.853.853s-.853-.382-.853-.853c0-.472.382-.853.853-.853.47 0 .853.381.853.853M55.32 149.744c0 .472-.383.854-.853.854-.472 0-.853-.382-.853-.854 0-.47.381-.853.853-.853.47 0 .852.383.852.853M68.474 145.302c0 .471-.381.853-.852.853s-.853-.382-.853-.853.382-.853.853-.853c.47 0 .852.382.852.853M81.147 140.275c0 .472-.382.854-.853.854-.47 0-.853-.382-.853-.854 0-.47.382-.853.853-.853s.853.382.853.853M75.429 154.953c0 .471-.382.854-.853.854s-.853-.383-.853-.854.382-.853.853-.853c.47 0 .853.382.853.853" transform="translate(-966.000000, -753.000000) translate(840.000000, 741.000000) translate(308.000000, 191.000000) rotate(-10.000000) translate(-308.000000, -191.000000) translate(151.000000, 37.000000) translate(0.000000, 36.094405)"/>
                        <path fill="#1C3A44" d="M74.496 199.882H60.49c-.915-2.61.771-5.227.488-7.526-.488-3.887 1.773-1.74 1.773-1.74.4-4.18 6.272-4.97 6.21-3.106-.097 2.743.435 4.437 1.215 5.573 1.58 2.281 4.17 2.264 4.613 3.896.045.16.08.32.106.462.435 2.04-.399 2.44-.399 2.44" transform="translate(-966.000000, -753.000000) translate(840.000000, 741.000000) translate(308.000000, 191.000000) rotate(-10.000000) translate(-308.000000, -191.000000) translate(151.000000, 37.000000) translate(0.000000, 36.094405)"/>
                        <path fill="#244952" d="M74.895 197.441c-2.9.675-9.588-.204-9.855-1.89-.257-1.633 3.344-2.397 5.136-2.468 1.58 2.281 4.17 2.264 4.613 3.896.045.16.08.32.106.462" transform="translate(-966.000000, -753.000000) translate(840.000000, 741.000000) translate(308.000000, 191.000000) rotate(-10.000000) translate(-308.000000, -191.000000) translate(151.000000, 37.000000) translate(0.000000, 36.094405)"/>
                        <path fill="#1C3A44" d="M16.917 91.335c-1.49-1.358-3.912.887-3.912.887s1.304 1.934.46 2.715c-.841.781-1.818-1.002-3.476-.221-.134.061-.275.141-.409.23-1.295.772-2.643 2.397-3.734 3.63-.221.249-.435.48-.63.683-1.268 1.332-4.542 2.113-5.154-1.437-.612-3.55 3.38-7.713 7.762-11.538 4.383-3.824 7.212-1.553 7.212-1.553s.994 1.607.994 2.61c0 .994.887 1.49 1.384 2.44.497.94-.497 1.554-.497 1.554" transform="translate(-966.000000, -753.000000) translate(840.000000, 741.000000) translate(308.000000, 191.000000) rotate(-10.000000) translate(-308.000000, -191.000000) translate(151.000000, 37.000000) translate(0.000000, 36.094405)"/>
                        <path fill="#244952" d="M9.58 94.946c-1.295.772-2.643 2.397-3.734 3.63-1.641.39-3.114.275-3.344-1.269-.559-3.728 6.875-8.466 6.28-5.848-.3 1.313.214 2.565.798 3.487" transform="translate(-966.000000, -753.000000) translate(840.000000, 741.000000) translate(308.000000, 191.000000) rotate(-10.000000) translate(-308.000000, -191.000000) translate(151.000000, 37.000000) translate(0.000000, 36.094405)"/>
                        <path fill="#CCD4D3" d="M97.457 30.253s-4.828 1.63-11.696.587c-6.867-1.044-9.1-5.358-13.928-2.58-7.247 4.167-3.855 18.515-2.036 25.976.679 2.78 1.539 10.089-.098 16.12 0 0 9.65 7.511 20.695 7.139l6.025-13.113s13.105-15.687 1.038-34.13" transform="translate(-966.000000, -753.000000) translate(840.000000, 741.000000) translate(308.000000, 191.000000) rotate(-10.000000) translate(-308.000000, -191.000000) translate(151.000000, 37.000000) translate(0.000000, 36.094405)"/>
                    </g>
                    <path fill="#A8B7B8" d="M133.815 254.584H89.791c-.773 0-1.4-.628-1.4-1.401v-.77c0-.774.627-1.401 1.4-1.401h44.024c.774 0 1.401.627 1.401 1.4v.77c0 .774-.627 1.402-1.4 1.402M198.459 254.584h-44.025c-.774 0-1.4-.628-1.4-1.401v-.77c0-.774.626-1.401 1.4-1.401h44.025c.773 0 1.4.627 1.4 1.4v.77c0 .774-.627 1.402-1.4 1.402" transform="translate(-966.000000, -753.000000) translate(840.000000, 741.000000) translate(308.000000, 191.000000) rotate(-10.000000) translate(-308.000000, -191.000000) translate(151.000000, 37.000000)"/>
                    <path fill="#E88465" d="M72.287 11.13c.969.015 3.774 1.132 3.774 1.132 2.06 1.269 3.205 1.96 4.574 2.074 1.362.121 1.921 2.463 1.921 2.463s5.373 1.176 5.677-2.213c0 0-3.004-4.254-3.214-4.827-.428-1.141.348-2.857-.858-4.777C82.948 3.057 82.373.057 82.373.057s-1.193-.375-1.323.8c-.13 1.188.754 2.815.534 3.323-.045.102-.097.199-.161.284 0 0-.007.007-.012.026-.229.332-.568.575-.913.598-.018.007-.05.015-.08.01-1.346-.034-3.705-1.896-4.674-2.822-1.345-1.291-3.3-2.967-3.74-1.832-.44 1.133 1.026 1.061 3.48 4.47l-.245.352c.163.256-2.426-1.036-4.49-2.655-1.424-1.111-1.723.21-1.476.782.243.58 1.839 1.486 2.86 2.303.678.532 1.39 1.081 1.814 1.406l-.13.553c-3.517-.769-4.066-2.092-4.814-1.358-.743.728 1.46 2.22 2.578 2.48.482.114 1.308.551 2.09 1.009-2.804-.063-3.488-.959-3.956-.244-.478.74 1.605 1.572 2.572 1.587" transform="translate(-966.000000, -753.000000) translate(840.000000, 741.000000) translate(308.000000, 191.000000) rotate(-10.000000) translate(-308.000000, -191.000000) translate(151.000000, 37.000000)"/>
                    <path fill="#E0674B" d="M81.234 8.532c-.852-1.61.058-3.779.177-4.042-.229.332-.568.575-.913.598-.736 2.267.736 3.444.736 3.444" transform="translate(-966.000000, -753.000000) translate(840.000000, 741.000000) translate(308.000000, 191.000000) rotate(-10.000000) translate(-308.000000, -191.000000) translate(151.000000, 37.000000)"/>
                    <path fill="#E88465" d="M230.369 11.13c-.968.015-3.774 1.132-3.774 1.132-2.06 1.269-3.206 1.96-4.574 2.074-1.363.121-1.921 2.463-1.921 2.463s-5.373 1.176-5.677-2.213c0 0 3.004-4.254 3.214-4.827.427-1.141-.348-2.857.858-4.777 1.213-1.925 1.789-4.925 1.789-4.925s1.192-.375 1.323.8c.13 1.188-.755 2.815-.535 3.323.045.102.097.199.162.284 0 0 .006.007.01.026.23.332.57.575.913.598.02.007.05.015.082.01 1.345-.034 3.704-1.896 4.674-2.822 1.344-1.291 3.299-2.967 3.739-1.832.44 1.133-1.026 1.061-3.48 4.47l.246.352c-.163.256 2.424-1.036 4.489-2.655 1.425-1.111 1.723.21 1.475.782-.242.58-1.838 1.486-2.858 2.303-.68.532-1.391 1.081-1.815 1.406l.13.553c3.516-.769 4.066-2.092 4.815-1.358.742.728-1.461 2.22-2.579 2.48-.482.114-1.308.551-2.09 1.009 2.804-.063 3.488-.959 3.955-.244.479.74-1.603 1.572-2.571 1.587" transform="translate(-966.000000, -753.000000) translate(840.000000, 741.000000) translate(308.000000, 191.000000) rotate(-10.000000) translate(-308.000000, -191.000000) translate(151.000000, 37.000000)"/>
                    <path fill="#E0674B" d="M221.422 8.532c.852-1.61-.058-3.779-.177-4.042.228.332.569.575.912.598.736 2.267-.735 3.444-.735 3.444" transform="translate(-966.000000, -753.000000) translate(840.000000, 741.000000) translate(308.000000, 191.000000) rotate(-10.000000) translate(-308.000000, -191.000000) translate(151.000000, 37.000000)"/>
                    <path fill="#173137" d="M183.151 174.072l-10.322-63.94-20.668 2.31-20.668-2.31-10.322 63.94-4.958 62.014s1.577 5.14 11.887 1.59c0 0 7.649-57.52 8.832-58.787 1.183-1.267 13.33-38.837 13.33-38.837h3.799s12.146 37.57 13.329 38.837c1.182 1.267 8.832 58.786 8.832 58.786 10.31 3.55 11.886-1.589 11.886-1.589l-4.957-62.014" transform="translate(-966.000000, -753.000000) translate(840.000000, 741.000000) translate(308.000000, 191.000000) rotate(-10.000000) translate(-308.000000, -191.000000) translate(151.000000, 37.000000)"/>
                    <path fill="#1A3F5A" d="M145.65 48.213c1.305 1.271 7.728 3.565 11.12 0l2.3 2.26s-2.622 6.17-7.224 6.385c-4.601.216-7.928-5.489-7.928-5.489l1.732-3.156M163.84 47.517c7.688-3.312 32.525-12.114 32.525-12.114s16.697-20.928 20.103-24.035c0 0 3.696.666 4.777 5.27 0 0-10.751 23.033-16.596 29.627-5.844 6.593-35.444 20.854-35.444 20.854l-5.365-19.602" transform="translate(-966.000000, -753.000000) translate(840.000000, 741.000000) translate(308.000000, 191.000000) rotate(-10.000000) translate(-308.000000, -191.000000) translate(151.000000, 37.000000)"/>
                    <path fill="#F2B276" d="M136.932 47.042c2.287-1.447 13.77 6.238 13.77 6.238s14.928-7.93 18.431-6.394c0 0 3.157 4.226 4.426 15.092 1.269 10.867 1.352 55.583 1.352 55.583s-10.036 3.552-23.612 3.552c-15.476 0-23.802-4.44-23.802-4.44s-2.762-61.913 9.435-69.63" transform="translate(-966.000000, -753.000000) translate(840.000000, 741.000000) translate(308.000000, 191.000000) rotate(-10.000000) translate(-308.000000, -191.000000) translate(151.000000, 37.000000)"/>
                    <path fill="#E0674B" d="M146.256 45.88s1.653 5.203 0 7.208c0 0 1.717 3.605 4.804 3.764 3.565.184 4.802-3.764 4.802-3.764s-1.885-5.025 0-6.791l-9.606-.416" transform="translate(-966.000000, -753.000000) translate(840.000000, 741.000000) translate(308.000000, 191.000000) rotate(-10.000000) translate(-308.000000, -191.000000) translate(151.000000, 37.000000)"/>
                    <path fill="#7A3539" d="M142.134 40.76s-3.48-6.701-2.79-13.861c.689-7.16 11.472-8.802 18.74-5.285 0 0-2.158-2.11-1.314-2.697.844-.586 2.3 3.167 2.3 3.167s2.296-.704 2.647 0c.352.704-2.352 1.088-2.352 1.088s4.69 2.602.308 16.45l-17.539 1.137" transform="translate(-966.000000, -753.000000) translate(840.000000, 741.000000) translate(308.000000, 191.000000) rotate(-10.000000) translate(-308.000000, -191.000000) translate(151.000000, 37.000000)"/>
                    <path fill="#E88465" d="M141.611 36.516s-2.594-2.59-2.914.438c-.37 3.508 2.815 4.921 3.437 3.805.623-1.116-.523-4.243-.523-4.243M159.778 36.699s2.595-2.59 2.914.437c.37 3.508-2.815 4.922-3.437 3.806-.623-1.116.523-4.243.523-4.243" transform="translate(-966.000000, -753.000000) translate(840.000000, 741.000000) translate(308.000000, 191.000000) rotate(-10.000000) translate(-308.000000, -191.000000) translate(151.000000, 37.000000)"/>
                    <path fill="#E88465" d="M150.421 49.223c-5.756 0-9.005-3.762-9.005-15.045 0-5.82 2.96-9.39 9.407-9.39 6.448 0 9.164 3.57 9.164 9.39 0 12.124-3.619 15.045-9.566 15.045" transform="translate(-966.000000, -753.000000) translate(840.000000, 741.000000) translate(308.000000, 191.000000) rotate(-10.000000) translate(-308.000000, -191.000000) translate(151.000000, 37.000000)"/>
                    <path fill="#1E3F43" d="M147.263 43.056s5.076.653 7.687-.6c0 0-1.476 3.458-4.25 3.147-2.772-.31-3.437-2.547-3.437-2.547" transform="translate(-966.000000, -753.000000) translate(840.000000, 741.000000) translate(308.000000, 191.000000) rotate(-10.000000) translate(-308.000000, -191.000000) translate(151.000000, 37.000000)"/>
                    <path fill="#7A3539" d="M159.387 37.977s-.18-6.264-2.617-11.078c0 0-4.297 1.986-5.242 1.517-.946-.468.901-1.517.901-1.517s-7.09 2.338-7.516 1.87c-.427-.47 2.35-1.87 2.35-1.87l-4.417 1.517s-1.361 5.636-.798 9.56c0 0-1.898-3.276-2.132-5.538-.235-2.263.759-8.713 7.412-9.181 6.653-.47 10.389 1.04 12.037 4.097 1.648 3.056 1.444 6.816.022 10.623" transform="translate(-966.000000, -753.000000) translate(840.000000, 741.000000) translate(308.000000, 191.000000) rotate(-10.000000) translate(-308.000000, -191.000000) translate(151.000000, 37.000000)"/>
                    <path fill="#215586" d="M157.794 49.862s10.419 32.357 11.411 58.685c0 0 3.76 1.036 7.995-4.733 4.233-5.769 1.715-51.46-6.397-59.069 0 0-3.68-.84-13.009 5.117" transform="translate(-966.000000, -753.000000) translate(840.000000, 741.000000) translate(308.000000, 191.000000) rotate(-10.000000) translate(-308.000000, -191.000000) translate(151.000000, 37.000000)"/>
                    <path fill="#1A3F5A" d="M159.492 55.52s1.865-4.335 1.036-7.307c-.828-2.972-3.758 0-3.758 0s1.184 4.868 2.722 7.308M138.58 47.517c-7.687-3.312-32.526-12.114-32.526-12.114S89.316 13.865 85.91 10.758c0 0-4.213 2.386-4.5 7.322 0 0 10.517 21.59 16.36 28.185 5.845 6.593 35.445 20.854 35.445 20.854l5.365-19.602" transform="translate(-966.000000, -753.000000) translate(840.000000, 741.000000) translate(308.000000, 191.000000) rotate(-10.000000) translate(-308.000000, -191.000000) translate(151.000000, 37.000000)"/>
                    <path fill="#215586" d="M144.626 49.862s-10.418 32.357-11.41 58.685c0 0-3.761 1.036-7.995-4.733s-1.716-51.46 6.396-59.069c0 0 3.68-.84 13.01 5.117" transform="translate(-966.000000, -753.000000) translate(840.000000, 741.000000) translate(308.000000, 191.000000) rotate(-10.000000) translate(-308.000000, -191.000000) translate(151.000000, 37.000000)"/>
                    <path fill="#1A3F5A" d="M142.928 55.52s-1.865-4.335-1.037-7.307c.829-2.972 3.759 0 3.759 0s-1.184 4.868-2.722 7.308" transform="translate(-966.000000, -753.000000) translate(840.000000, 741.000000) translate(308.000000, 191.000000) rotate(-10.000000) translate(-308.000000, -191.000000) translate(151.000000, 37.000000)"/>
                    <path fill="#552A2E" d="M197.299 252.762h-20.687c-1.445-8.227.86-16.462.86-16.462l9.458-1.625c.86 5.2 1.898 7.251 3.334 8.307h.01c1.046.764 2.297 1.012 3.858 1.553 1.783.621 2.723 1.748 3.194 2.973.931 2.432-.027 5.254-.027 5.254" transform="translate(-966.000000, -753.000000) translate(840.000000, 741.000000) translate(308.000000, 191.000000) rotate(-10.000000) translate(-308.000000, -191.000000) translate(151.000000, 37.000000)"/>
                    <path fill="#7A3539" d="M197.326 247.508c-5.1.64-16.305 1.73-15.622-1.225.568-2.466 5.296-3.132 8.56-3.3h.01c1.046.763 2.297 1.011 3.858 1.552 1.783.621 2.723 1.748 3.194 2.973" transform="translate(-966.000000, -753.000000) translate(840.000000, 741.000000) translate(308.000000, 191.000000) rotate(-10.000000) translate(-308.000000, -191.000000) translate(151.000000, 37.000000)"/>
                    <path fill="#552A2E" d="M128.019 252.762h-20.686s-.656-1.934-.355-3.985c.248-1.668 1.135-3.417 3.522-4.242 1.792-.62 3.167-.852 4.293-1.908 1.224-1.154 2.138-3.283 2.91-7.952l9.456 1.625s2.297 8.235.86 16.462" transform="translate(-966.000000, -753.000000) translate(840.000000, 741.000000) translate(308.000000, 191.000000) rotate(-10.000000) translate(-308.000000, -191.000000) translate(151.000000, 37.000000)"/>
                    <path fill="#7A3539" d="M106.978 248.777c.248-1.668 1.135-3.417 3.522-4.242 1.792-.62 3.167-.852 4.293-1.908 2.617.808 6.28 2.29 7.416 4.535 1.58 3.08-10.512 2.591-15.231 1.615" transform="translate(-966.000000, -753.000000) translate(840.000000, 741.000000) translate(308.000000, 191.000000) rotate(-10.000000) translate(-308.000000, -191.000000) translate(151.000000, 37.000000)"/>
                    <path fill="#3E5D67" d="M86.945 134.728c1.516 3.882 7.725 10.538 7.725 10.538s15.167-9.096 22.165-5.269c6.997 3.827 12.558 6.162 17.096 4.496 4.538-1.667-14.921-37.074-14.921-37.074l-25.231-9.632s-.55 6.384-3.433 7.519c-2.883 1.134-5.957 11.672-5.75 13.67.206 1.996 2.35 15.752 2.35 15.752" transform="translate(-966.000000, -753.000000) translate(840.000000, 741.000000) translate(308.000000, 191.000000) rotate(-10.000000) translate(-308.000000, -191.000000) translate(151.000000, 37.000000)"/>
                    <path fill="#E0674B" d="M115.333 145.498s-6.506 12.759-19.938 29.099c0 0-1.377 19.431-36.896 50.003l-3.718-2.926s21.153-33.15 25.383-43.313c4.232-10.164-2.338-19.476 17.126-45.184l18.043 12.321" transform="translate(-966.000000, -753.000000) translate(840.000000, 741.000000) translate(308.000000, 191.000000) rotate(-10.000000) translate(-308.000000, -191.000000) translate(151.000000, 37.000000)"/>
                    <path fill="#552A2E" d="M94.626 122.92c-5.601 10.734-7.48 24.454-7.48 24.454l-2.55 6.437s9.045 4.881 19.491 6.657l4.19-11.094-13.651-26.454" transform="translate(-966.000000, -753.000000) translate(840.000000, 741.000000) translate(308.000000, 191.000000) rotate(-10.000000) translate(-308.000000, -191.000000) translate(151.000000, 37.000000)"/>
                    <path fill="#E88465" d="M123.835 144.493s2.774 14.051 2.317 35.203c0 0 10.928 16.123 1.91 62.123h-4.732s-3.864-39.137-6.821-49.743c-2.957-10.605-13.876-13.859-14.467-46.104l21.793-1.48" transform="translate(-966.000000, -753.000000) translate(840.000000, 741.000000) translate(308.000000, 191.000000) rotate(-10.000000) translate(-308.000000, -191.000000) translate(151.000000, 37.000000)"/>
                    <path fill="#7A3539" d="M126.609 159.577s-8.898 1.598-24.572.861l-.249-1.766-.061-.453-1.624-11.43s-1.508-1.864-3.06-4.899c-.187-.355-.364-.72-.541-1.1-2.111-4.5-3.983-11.041-1.881-17.865l3.31.15.46.027 11.07.505.47.028 3.638.168.568.027 2.359.106s11.993 10.8 9.855 30.77l.151 2.777.018.452.089 1.642" transform="translate(-966.000000, -753.000000) translate(840.000000, 741.000000) translate(308.000000, 191.000000) rotate(-10.000000) translate(-308.000000, -191.000000) translate(151.000000, 37.000000)"/>
                    <path fill="#552A2E" d="M98.391 123.102c-.31.914-2.404 7.695-1.348 18.788-.187-.355-.364-.72-.541-1.1-.79-10.144 1.029-16.472 1.428-17.715.053-.15.08-.221.08-.23l.416.15c0 .009-.017.045-.035.107M126.52 157.935c-3.149.808-8.49 1.03-13.563 1.03-4.55 0-8.87-.186-11.169-.293l-.061-.453c3.983.196 14.468.604 21.227-.133l-.435-7.144c.107-8.333-2.412-15.45-4.843-20.367-6.156-1.119-7.85-5.68-8.214-6.968-.054-.203-.08-.327-.08-.336l.435-.071c0 .009.035.168.115.435.4 1.33 2.049 5.298 7.487 6.434-1.641-3.204-3.194-5.396-3.85-6.266-.195-.266-.32-.417-.328-.426l.337-.284c.018.018.221.267.559.737 2.058 2.795 9.003 13.312 8.826 27.094l.435 7.109c1.18-.142 2.235-.32 3.104-.55l.018.452" transform="translate(-966.000000, -753.000000) translate(840.000000, 741.000000) translate(308.000000, 191.000000) rotate(-10.000000) translate(-308.000000, -191.000000) translate(151.000000, 37.000000)"/>
                    <path fill="#89B6CD" d="M103.855 74.772c-3.53-1.945-28.972 8.036-28.972 8.036s-3.764 6.718-1.418 9.35c2.346 2.635 10.671 1.473 13.221 0 2.55-1.472 9.306-2.585 9.306-2.585l7.863-14.801" transform="translate(-966.000000, -753.000000) translate(840.000000, 741.000000) translate(308.000000, 191.000000) rotate(-10.000000) translate(-308.000000, -191.000000) translate(151.000000, 37.000000)"/>
                    <path fill="#DC3F4E" d="M126.354 53.582s5.255 2.03 7.178 8.087c1.922 6.057-3.825 21.393-1.839 28.443 1.987 7.05 1.678 20.36-4.525 23.171-6.203 2.81-18.925-2.218-21.656-9.91-2.732-7.691-1.553-36.83 3.697-46.74 5.25-9.91 15.88-4.919 17.145-3.051" transform="translate(-966.000000, -753.000000) translate(840.000000, 741.000000) translate(308.000000, 191.000000) rotate(-10.000000) translate(-308.000000, -191.000000) translate(151.000000, 37.000000)"/>
                    <path fill="#89B6CD" d="M120.314 79.717c1.387 1.495 4.95-1.17 4.95-1.17s-.073 13.22-3.913 14.232c-3.839 1.014-13.626-10.412-13.223-13.518.402-3.107 9.113-2.86 12.186.456" transform="translate(-966.000000, -753.000000) translate(840.000000, 741.000000) translate(308.000000, 191.000000) rotate(-10.000000) translate(-308.000000, -191.000000) translate(151.000000, 37.000000)"/>
                    <path fill="#173137" d="M105.512 76.411s3.884 3.3 10.65 4.87c6.768 1.569 10.435-1.614 13.897 2.75 5.194 6.553-3.257 18.632-7.704 24.892-1.657 2.333-5.156 8.805-5.862 15.015 0 0-11.742 3.413-21.867-1.018l-.756-14.411s-6.383-19.422 11.642-32.098" transform="translate(-966.000000, -753.000000) translate(840.000000, 741.000000) translate(308.000000, 191.000000) rotate(-10.000000) translate(-308.000000, -191.000000) translate(151.000000, 37.000000)"/>
                    <path fill="#89B6CD" d="M117.651 90.432s5.365-12.792 6.919-13.609c1.554-.816 5.493 1.144 6.285 2.894.791 1.75 0 5.567 0 5.567s-4.231-4.832-13.204 5.148" transform="translate(-966.000000, -753.000000) translate(840.000000, 741.000000) translate(308.000000, 191.000000) rotate(-10.000000) translate(-308.000000, -191.000000) translate(151.000000, 37.000000)"/>
                    <path fill="#5F8EA2" d="M143.348 144.49c-2.44 4.996-8.428 6.434-8.428 6.434s-.452-.692-1.215-1.934c-.08-.125-.168-.266-.248-.409-4.71-7.64-19.108-32.09-18.823-44.808.328-15.194 10.236-23.536 10.236-23.536 5.03 1.198 6.618 2.574 6.618 2.574s1.694 8.644.141 19.045c-1.552 10.392-4.372 13.143-2.953 13.924 1.41.772 0 2.326 0 2.326s8.347 11.634 9.908 15.255l3.806 8.875c.07.178.141.355.212.515l.746 1.74" transform="translate(-966.000000, -753.000000) translate(840.000000, 741.000000) translate(308.000000, 191.000000) rotate(-10.000000) translate(-308.000000, -191.000000) translate(151.000000, 37.000000)"/>
                    <path fill="#E88465" d="M128.849 82.808s-5.977 4.432-2.495 11.205l16.566 17.157c-9.093 9.694-9.994 13.673-16.566 18.142l2.495 3.865s23.018-17.698 23.053-22.007c.014-1.844-14.06-24.15-23.053-28.362" transform="translate(-966.000000, -753.000000) translate(840.000000, 741.000000) translate(308.000000, 191.000000) rotate(-10.000000) translate(-308.000000, -191.000000) translate(151.000000, 37.000000)"/>
                    <path fill="#E88465" d="M125.991 129.313s-3.158.351-5.146.848c-1.989.497-4.64.995-4.723 1.41-.082.414 4.391 0 4.391 0s-3.645 1.497-3.728 2.075c-.083.577 4.64-.418 4.64-.418s-2.983 1.824-2.817 2.32c.166.498 3.84-.745 3.84-.745s-.684 1.74-1.392 2.57c0 0 .712.39 2.155-1.214 1.445-1.605 3.75-1.09 5.576-2.513 1.824-1.425-1.134-4.547-2.796-4.333" transform="translate(-966.000000, -753.000000) translate(840.000000, 741.000000) translate(308.000000, 191.000000) rotate(-10.000000) translate(-308.000000, -191.000000) translate(151.000000, 37.000000)"/>
                    <path fill="#5F8EA2" d="M109.063 78.54s-4.547 2.94-7.418 10.04c-2.873 7.1-11.933 20.46-14.056 23.911-2.122 3.452-.644 22.237-.644 22.237s-2.661-11.39-3.844-15.827c-1.183-4.437 3.82-15.402 4.571-15.984.751-.582 4.595.483 3.856-3.97-.739-4.452 9.575-23.635 12.327-24.175 0 0 4.41.828 5.208 3.768M95.003 79.5c-.08.15-.169.302-.275.444-1.03 1.482-2.945 2.663-2.945 2.663s-3.47 4.863-3.504 5.422c-.036.48-6.024 4.828-8.684 4.739h-.01c-.364-.009-.665-.106-.878-.301-1.579-1.492 5.376-14.005 6.91-16.703.098-.178.178-.31.231-.4.035-.07.062-.114.062-.114s-1.224-4.562 3.886-3.71c4.249.7 5.091 4.082 5.535 6.345.106.541-.045 1.092-.328 1.615" transform="translate(-966.000000, -753.000000) translate(840.000000, 741.000000) translate(308.000000, 191.000000) rotate(-10.000000) translate(-308.000000, -191.000000) translate(151.000000, 37.000000)"/>
                    <path fill="#E88465" d="M77.162 84.23c3.51-4.617 15.86-13.57 22.365-16.22l1.627 3.025S88.584 82.09 85.63 86.822c-2.953 4.73-6.611 6.685-10.106 5.11-3.496-1.575.9-6.731 1.638-7.703" transform="translate(-966.000000, -753.000000) translate(840.000000, 741.000000) translate(308.000000, 191.000000) rotate(-10.000000) translate(-308.000000, -191.000000) translate(151.000000, 37.000000)"/>
                    <path fill="#89B6CD" d="M93.779 78.55l-.666.764-.337.39-1.1 1.26s-2.768 3.355-2.66 4.704c.078.967-5.252 5.298-9.421 7.1-1.695.737-3.203 1.056-4.082.55-3.015-1.74-2.341-6.966-.63-10.507 1.49-3.09 8.082-7.074 9.776-8.05.214-.133.346-.212.391-.23l.009-.01.63-2.449s2.297-1.384 4.107-.532c0 0-3.993.168-3.336 1.722.675 1.561 6.21 5.235 7.319 5.289" transform="translate(-966.000000, -753.000000) translate(840.000000, 741.000000) translate(308.000000, 191.000000) rotate(-10.000000) translate(-308.000000, -191.000000) translate(151.000000, 37.000000)"/>
                    <path fill="#E88465" d="M108.273 65.745c-4.018 1.65-3.442 5.289-7.123 5.289-2.28 0-2.581-2.61-2.581-2.61 1.029-2.227 1.685-6.026 1.827-7.836.15-1.81.754-1.11.754-1.11 0-.168-.009-.327-.017-.487-.054-1.216-.276-2.104.523-1.58.904.586 1.215 4.03 1.215 4.03.745-5.024-.363-5.77.506-5.326 1.188.604 1.197 5.041 1.197 5.174.958-2.92.701-4.588 1.366-3.922.674.674-.337 6.035-.736 8.005-.089.444-.15.719-.15.719 3.184-1.562 3.219-.346 3.219-.346" transform="translate(-966.000000, -753.000000) translate(840.000000, 741.000000) translate(308.000000, 191.000000) rotate(-10.000000) translate(-308.000000, -191.000000) translate(151.000000, 37.000000)"/>
                    <path fill="#E0674B" d="M105.204 65.372c-.089.444-.15.719-.15.719s-1.473-.143-2.546 1.446c0 0 .3-2.13 2.696-2.165M101.371 63.082c.028-.426.205-2.867-.22-3.604 0-.168-.01-.327-.018-.487.922.195.337 3.576.238 4.09" transform="translate(-966.000000, -753.000000) translate(840.000000, 741.000000) translate(308.000000, 191.000000) rotate(-10.000000) translate(-308.000000, -191.000000) translate(151.000000, 37.000000)"/>
                    <path fill="#89B6CD" d="M103.865 84.254s2.716-7.363 3.58-9.007c.864-1.644 5.363-1.362 8.768-.726 3.405.635 4.101 5.196 4.101 5.196s-10.36-4.89-16.449 4.537" transform="translate(-966.000000, -753.000000) translate(840.000000, 741.000000) translate(308.000000, 191.000000) rotate(-10.000000) translate(-308.000000, -191.000000) translate(151.000000, 37.000000)"/>
                    <path fill="#E0674B" d="M121.351 69.762s-3.253 6.01-3.201 12.675c0 0-5.285 3.593-7.176-.907 0 0 2.007-5.896 1.037-13.855-.65-5.33 9.34 2.087 9.34 2.087" transform="translate(-966.000000, -753.000000) translate(840.000000, 741.000000) translate(308.000000, 191.000000) rotate(-10.000000) translate(-308.000000, -191.000000) translate(151.000000, 37.000000)"/>
                    <path fill="#E88465" d="M110.974 61.422s-.966-3.445-2.687-1.023c-1.994 2.806.038 5.533 1.101 4.883 1.064-.65 1.586-3.86 1.586-3.86M126.335 70.282s3.446-.96 2.269 1.768c-1.365 3.16-4.75 2.836-4.745 1.589.005-1.247 2.476-3.357 2.476-3.357" transform="translate(-966.000000, -753.000000) translate(840.000000, 741.000000) translate(308.000000, 191.000000) rotate(-10.000000) translate(-308.000000, -191.000000) translate(151.000000, 37.000000)"/>
                    <path fill="#E88465" d="M112.384 76.449c-4.895-2.758-5.857-7.513-.457-17.108 2.786-4.949 7.011-6.566 12.494-3.477s6.083 7.425 3.297 12.374c-5.802 10.309-10.277 11.06-15.334 8.21" transform="translate(-966.000000, -753.000000) translate(840.000000, 741.000000) translate(308.000000, 191.000000) rotate(-10.000000) translate(-308.000000, -191.000000) translate(151.000000, 37.000000)"/>
                    <path fill="#1E3F43" d="M113.609 69.429s2.808 2.144 4.837 2.21c0 0-2.158 1.758-3.71.617-1.55-1.14-1.127-2.827-1.127-2.827" transform="translate(-966.000000, -753.000000) translate(840.000000, 741.000000) translate(308.000000, 191.000000) rotate(-10.000000) translate(-308.000000, -191.000000) translate(151.000000, 37.000000)"/>
                    <path fill="#DC3F4E" d="M125.721 57.915s-1.754-2.438-4.175-.502c-2.422 1.935-7.885 5.033-10.572 4.01-2.687-1.024 5.88-12.478 13.317-9.124 7.437 3.355 6.768 14.274 3.674 17.745-3.093 3.472-1.63.238-1.63.238s.207-4.926 1.24-8.19c1.034-3.264-1.854-4.177-1.854-4.177" transform="translate(-966.000000, -753.000000) translate(840.000000, 741.000000) translate(308.000000, 191.000000) rotate(-10.000000) translate(-308.000000, -191.000000) translate(151.000000, 37.000000)"/>
                    <path fill="#CC5B4B" d="M117.477 68.312c-.136 0-.278-.018-.424-.055l.149-.588c.5.127.746-.088.864-.29.167-.286.143-.654.011-.793-.077-.08-.21-.072-.395.025l-.28-.538c.616-.323.984-.041 1.114.095.333.35.365 1.015.073 1.517-.238.407-.637.627-1.112.627" transform="translate(-966.000000, -753.000000) translate(840.000000, 741.000000) translate(308.000000, 191.000000) rotate(-10.000000) translate(-308.000000, -191.000000) translate(151.000000, 37.000000)"/>
                    <path fill="#89B6CD" d="M153.327 110.491c-.292 4.304-10.937 18.317-12.712 18.814-.46.125-.931.382-1.375.684-.186.133-.372.275-.55.417-1.01.816-1.774 1.757-1.774 1.757-3.105-.204-11.824-4.242-9.021-5.13.169-.053.355-.15.56-.292.114-.08.238-.169.363-.285 3.3-2.769 9.722-14.004 9.766-14.856.036-.932 1.145-1.109 1.145-1.109s-6.059-8.901-9.572-9.975c-3.512-1.074-5.287-5.325-5.287-5.325-3.468-14.688 6.618-12.38 6.618-12.38 7.434 4.428 22.132 23.367 21.84 27.68" transform="translate(-966.000000, -753.000000) translate(840.000000, 741.000000) translate(308.000000, 191.000000) rotate(-10.000000) translate(-308.000000, -191.000000) translate(151.000000, 37.000000)"/>
                    <path fill="#3E5D67" d="M139.24 129.989c-.186.133-.372.275-.55.417-4.763-.329-8.754-2.672-10.236-3.665.115-.08.24-.169.364-.285 1.587 1.039 5.65 3.355 10.422 3.533M95.003 79.5c-.08.15-.169.302-.275.444-.683-.026-1.331-.106-1.952-.24-3.149-.638-5.57-2.405-7.159-3.94-.363-.355-.683-.692-.958-1.003.214-.133.346-.212.391-.23.23.257.496.541.798.834 1.579 1.553 4.037 3.363 7.265 3.95.603.114 1.233.177 1.89.185M142.602 142.75c-1.463 2.476-4.169 5.468-8.897 6.24-.08-.125-.168-.266-.248-.409 4.852-.727 7.54-3.878 8.933-6.345.07.178.141.355.212.515" transform="translate(-966.000000, -753.000000) translate(840.000000, 741.000000) translate(308.000000, 191.000000) rotate(-10.000000) translate(-308.000000, -191.000000) translate(151.000000, 37.000000)"/>
                    <path fill="#CCD4D3" d="M61.871 223.502s-1.109 1.091-2.262 3.098c-1.154 2.005.115 3.85-5.465 8.501 0 0-11.257-6.593-16.339-15.069 0 0 .089-2.423 2.546-2.99 1.321-.302 4.958 1.401 8.454 2.058.496.089.993.169 1.48.204.613.054 1.216.062 1.792-.009.533-.053 1.039-.168 1.509-.363h.008c1.19-.489 2.13-1.456 2.617-3.15 0 0 2.99 1.703.994 4.588 0 0 3.548-1.554 4.666 3.132" transform="translate(-966.000000, -753.000000) translate(840.000000, 741.000000) translate(308.000000, 191.000000) rotate(-10.000000) translate(-308.000000, -191.000000) translate(151.000000, 37.000000)"/>
                    <path fill="#A8B7B8" d="M54.144 235.101s-11.257-6.593-16.339-15.069c0 0 1.889-.4 3.45 2.405 1.561 2.813 13.803 9.195 12.89 12.664M54.189 221.772c-.914 1.446-.896-1.225-2.112-2.477.533-.053 1.039-.168 1.509-.363h.008c.541.585 1.313 1.713.595 2.84M50.65 221.852c-.967.913-1.278-1.474-1.845-2.752.496.089.993.169 1.48.204.568.772 1.101 1.847.364 2.548" transform="translate(-966.000000, -753.000000) translate(840.000000, 741.000000) translate(308.000000, 191.000000) rotate(-10.000000) translate(-308.000000, -191.000000) translate(151.000000, 37.000000)"/>
                    <path fill="#CCD4D3" d="M131.124 252.762H115.2s-.665-2.219 0-4.66c.284-1.055 1.934-2.04 3.468-3.416.426-.382.834-.78 1.215-1.234.302-.355.577-.745.808-1.162.293-.506.524-1.056.656-1.66.257-1.206.16-2.627-.532-4.33 0 0 5.42-1.136 7.354 1.819 0 0 .186-1.367 1.907-.453 0 0-.249 2.742.089 5.041.337 2.29 2.475 2.955.958 10.055" transform="translate(-966.000000, -753.000000) translate(840.000000, 741.000000) translate(308.000000, 191.000000) rotate(-10.000000) translate(-308.000000, -191.000000) translate(151.000000, 37.000000)"/>
                    <path fill="#A8B7B8" d="M126.98 243.168c-.14.16-.335.24-.531.24-.169 0-.328-.053-.47-.16-.825-.657-2.644-1.677-5.287-.958.293-.506.524-1.056.656-1.66 1.065-.39 3.07-.62 5.544 1.491.32.266.365.736.089 1.047M125.642 245.813l-.089.133c-.212.329-.638.435-.975.24-1.083-.639-3.513-1.846-5.909-1.5.426-.382.834-.78 1.215-1.234 1.18-.275 3.407-.426 5.598 1.393.284.24.364.658.16.968" transform="translate(-966.000000, -753.000000) translate(840.000000, 741.000000) translate(308.000000, 191.000000) rotate(-10.000000) translate(-308.000000, -191.000000) translate(151.000000, 37.000000)"/>
                    <path fill="#9DAEB7" d="M160.218 307.122c.129.059.34.094.48.094.386 0 .644-.129.843-.597l.374-.855-2.364-5.714h.949l1.883 4.637 1.873-4.637h.96l-2.833 6.803c-.34.82-.912 1.136-1.661 1.147-.187 0-.48-.035-.644-.082l.14-.796" transform="translate(-966.000000, -753.000000) translate(840.000000, 741.000000) translate(308.000000, 191.000000) rotate(-10.000000) translate(-308.000000, -191.000000) translate(151.000000, 37.000000)"/>
                    <g>
                        <path fill="#A8B7B8" d="M137.1 254.754h-12.046c-.774 0-1.4-.628-1.4-1.401v-.77c0-.774.626-1.401 1.4-1.401H137.1c.773 0 1.4.627 1.4 1.4v.77c0 .774-.627 1.402-1.4 1.402" transform="translate(-966.000000, -753.000000) translate(840.000000, 741.000000) translate(308.000000, 191.000000) rotate(-10.000000) translate(-308.000000, -191.000000) translate(151.000000, 37.000000) translate(156.077966, 6.224752)"/>
                        <path fill="#CCD4D3" d="M49.756 246.872c-.69-.363-1.327-1.16-1.899-2.17 0 0-.492-2.983 0-6.117.493-3.135-.872-5.695-5.307-6.656-4.312-.935-6.87 1.143-5.875 9.816l.001.004c-.656 3.602-.792 7.716.704 11.183h13.273s2.094-4.489-.897-6.06" transform="translate(-966.000000, -753.000000) translate(840.000000, 741.000000) translate(308.000000, 191.000000) rotate(-10.000000) translate(-308.000000, -191.000000) translate(151.000000, 37.000000) translate(156.077966, 6.224752)"/>
                        <path fill="#E88465" d="M61.4 200.128s0 8.652-4.879 17.527c-4.968 9.037-11.11 21.44-11.11 21.44s-4.092 3.995-6.693-2.621c0 0 1.836-23.034 6.05-31.466 4.213-8.43 16.632-4.88 16.632-4.88M125.047 171.95s7.905 33.26 12.934 42.034c0 0-1.157 3.67-6.602 4.78 0 0-17.198-25.293-18.307-35.942-1.11-10.65 11.975-10.872 11.975-10.872" transform="translate(-966.000000, -753.000000) translate(840.000000, 741.000000) translate(308.000000, 191.000000) rotate(-10.000000) translate(-308.000000, -191.000000) translate(151.000000, 37.000000) translate(156.077966, 6.224752)"/>
                        <path fill="#7A3539" d="M128.87 179.768c-2.102 5.068-18.344 5.343-18.344 5.343l-1.242-1.828-.329-.479-2.536-3.746s-26.914-26.41-32.157-24.192h-.009c-.15.07-.3.15-.443.258-3.6 2.573-3.938 16.675-8.197 40.344-.407 2.246-1.312 4.863-1.995 6.674-.08.195-.15.381-.222.559-.39 1.003-.665 1.641-.665 1.641-16.429 6.657-21.85-6.496-21.85-6.496s.197-.381.48-.993c.063-.134.134-.284.204-.444.86-1.9 2.236-5.192 2.218-6.931-.018-1.908-.035-3.746-.044-5.512 0-.16 0-.31-.01-.46-.026-5.69-.017-10.633.019-14.929v-.452c.017-1.873.044-3.621.08-5.254v-.461c.141-7.482.38-12.478.638-15.807.009-.15.026-.31.035-.452.453-5.6.932-6.15.932-6.15l-3.291-22.889H78.05s5.393 5.406 12.392 12.54c.151.143.294.285.435.435 2.537 2.583 5.278 5.388 8.028 8.237.116.115.222.221.32.328l3.237 3.346c.133.132.257.275.39.408 3.603 3.736 7.097 7.419 10.087 10.641.106.106.204.213.301.319 4.09 4.43 7.203 7.97 8.277 9.62 2.847 4.358 5.064 10.029 6.289 13.535v.008c.062.16.115.302.168.453.577 1.704.897 2.786.897 2.786" transform="translate(-966.000000, -753.000000) translate(840.000000, 741.000000) translate(308.000000, 191.000000) rotate(-10.000000) translate(-308.000000, -191.000000) translate(151.000000, 37.000000) translate(156.077966, 6.224752)"/>
                        <path fill="#552A2E" d="M50.808 143.426c-1.463 1.73-3.592 2.796-6.342 3.177.009-.15.026-.31.035-.452 2.59-.372 4.595-1.384 5.97-3.017 2.467-2.912 2.067-6.843 2.058-6.878l.444-.054c.017.17.426 4.163-2.165 7.224M90.877 130.087c-.141.01-.275.019-.416.019-3.992 0-8.162-4.367-8.374-4.588l.32-.311c.052.062 4.203 4.41 8.035 4.446.151.142.294.284.435.434M63.618 202.142c-.08.195-.15.381-.222.559-2.661.976-5.1 1.375-7.327 1.375-7.097 0-12.011-4.108-14.708-7.223.063-.134.134-.284.204-.444 3.45 4.047 10.823 10.02 22.053 5.733M73.26 146.621c.595 2.548.976 5.325.993 8.245-.15.07-.3.15-.443.258-.018-13.401-7.77-23.856-7.86-23.971l.355-.266c.071.089 4.666 6.3 6.84 15.273.905-.595 1.517-1.447 1.774-2.547 1.118-4.704-3.965-12.39-4.01-12.469l.364-.248c.213.327 5.234 7.924 4.08 12.815-.3 1.278-1.01 2.245-2.093 2.91M113.24 153.366c-1.321 1.438-2.564 2.663-2.679 2.769l-.24.24-.114-.32c-1.74-4.552-12.916-14.421-13.032-14.519l-.132-.124 1.862-3.088c.116.115.222.221.32.328l-1.562 2.591c2.174.755 3.717.887 4.799.755.133.132.257.275.39.408-.363.062-.753.098-1.162.098-1.002 0-2.146-.205-3.432-.595 2.537 2.29 10.422 9.602 12.232 13.676.7-.692 1.589-1.607 2.449-2.538.106.106.204.213.301.319M51.909 183.886l-.178.036c-.168.044-2.182.462-4.497.462-1.163 0-2.387-.107-3.495-.418 0-.16 0-.31-.01-.46 2.928.842 6.84.194 7.727.026l-.745-18.468c-.417 1.01-1.242 2.395-2.785 3.159-.737.372-1.562.55-2.467.55-.54 0-1.108-.062-1.711-.196v-.452c1.534.355 2.865.257 3.974-.302 1.88-.931 2.625-2.928 2.856-3.719-1.482.223-4.47-.532-6.75-1.233v-.461c2.457.745 5.783 1.606 6.98 1.19l.285-.1.816 20.386M127.974 176.982c-2.58 2.547-7.868 6.443-16.003 6.443-.86 0-1.756-.045-2.687-.142l-.329-.479c9.892 1.136 16.092-3.506 18.85-6.275.063.16.116.302.17.453" transform="translate(-966.000000, -753.000000) translate(840.000000, 741.000000) translate(308.000000, 191.000000) rotate(-10.000000) translate(-308.000000, -191.000000) translate(151.000000, 37.000000) translate(156.077966, 6.224752)"/>
                        <path fill="#BC3648" d="M84.686 19.804s-.988-2.274-5.156-2.275c-3.213 0-4.442 1.775-4.442 1.775-1.923 5.621-3.988 27.142-4.728 27.908-.375.388-24.205 16.445-24.205 16.445 12.932.243 21.001 16.19 21.001 16.19.418-5.24 15.023-26.007 15.18-27.859.296-3.493 6.474-19.094 2.35-32.184M43.315 132.33s-.12 4.49 1.332 4.787c1.451.296 13.279 3.793 26.88-2.393 13.602-6.186 15.968-10.772 11.976-14.174-3.992-3.402-40.188 11.78-40.188 11.78" transform="translate(-966.000000, -753.000000) translate(840.000000, 741.000000) translate(308.000000, 191.000000) rotate(-10.000000) translate(-308.000000, -191.000000) translate(151.000000, 37.000000) translate(156.077966, 6.224752)"/>
                        <path fill="#DC3F4E" d="M37.865 66.765s-12.375-1.467-19.472 1.606c0 0-1.979 8.786 7.77 28.449 9.75 19.663 7.488 32.047 18.484 36.709 9.747 4.132 38.486-8.166 39.39-12.246 2.271-10.268-15.303-28.29-16.412-38.732-1.109-10.442-11.31-26.142-29.76-15.786" transform="translate(-966.000000, -753.000000) translate(840.000000, 741.000000) translate(308.000000, 191.000000) rotate(-10.000000) translate(-308.000000, -191.000000) translate(151.000000, 37.000000) translate(156.077966, 6.224752)"/>
                        <path fill="#BC3648" d="M18.393 68.37C9.744 71.445.014 81.16 0 85.842c-.014 4.683 8.115 6.488 8.115 6.488l13.328-6.488s3.813-2.663 1.385-10.424c-2.426-7.761-4.435-7.046-4.435-7.046" transform="translate(-966.000000, -753.000000) translate(840.000000, 741.000000) translate(308.000000, 191.000000) rotate(-10.000000) translate(-308.000000, -191.000000) translate(151.000000, 37.000000) translate(156.077966, 6.224752)"/>
                        <path fill="#CCD4D3" d="M53.93 77.03c-2.584 0-5.79-.932-7.78-2.352-1.098-.783-1.753-1.665-1.894-2.553-.489-3.074 2.502-4.636 2.63-4.7l.404.79c-.105.053-2.544 1.34-2.158 3.77.103.648.632 1.328 1.532 1.97 2.23 1.59 6.087 2.524 8.598 2.08 1.131-.199 1.872-.607 2.2-1.21.402-.737.059-1.572.055-1.58l.815-.35c.023.049.518 1.224-.085 2.344-.462.858-1.414 1.42-2.83 1.67-.46.081-.961.12-1.487.12M42.962 86.393c-1.913 0-5.09-.798-5.536-3.942-.227-1.6-.08-2.933.047-4.11.19-1.733.34-3.101-.669-4.742-1.667-2.708-3.936-2.89-4.032-2.896l.054-.886c.113.006 2.813.197 4.733 3.316 1.169 1.9.988 3.554.797 5.305-.13 1.18-.263 2.4-.052 3.889.481 3.391 4.802 3.179 4.985 3.17l.053.885c-.12.007-.247.01-.38.01" transform="translate(-966.000000, -753.000000) translate(840.000000, 741.000000) translate(308.000000, 191.000000) rotate(-10.000000) translate(-308.000000, -191.000000) translate(151.000000, 37.000000) translate(156.077966, 6.224752)"/>
                        <path fill="#BC3648" d="M45.655 70.465s6.542-4.458 4.99-9.283c-1.553-4.826-22.621-4.493-28.054 1.275-5.433 5.77 11.754 9.598 11.754 9.598 1.33-2.683 9.831-2.978 11.31-1.59" transform="translate(-966.000000, -753.000000) translate(840.000000, 741.000000) translate(308.000000, 191.000000) rotate(-10.000000) translate(-308.000000, -191.000000) translate(151.000000, 37.000000) translate(156.077966, 6.224752)"/>
                        <path fill="#8F2E3F" d="M33.892 69.71c-3.104-1.055-4.944-3.296-4.278-5.884.665-2.588 14.01-2.657 16.541-.59 2.53 2.069-1.035 10.288-12.263 6.475" transform="translate(-966.000000, -753.000000) translate(840.000000, 741.000000) translate(308.000000, 191.000000) rotate(-10.000000) translate(-308.000000, -191.000000) translate(151.000000, 37.000000) translate(156.077966, 6.224752)"/>
                        <path fill="#E0674B" d="M32.415 62.435s2.746 4.695 1.477 7.276c0 0 9.423 3.254 9.423-2.02 0 0-1.776-3.954-1.107-6.51l-9.793 1.254" transform="translate(-966.000000, -753.000000) translate(840.000000, 741.000000) translate(308.000000, 191.000000) rotate(-10.000000) translate(-308.000000, -191.000000) translate(151.000000, 37.000000) translate(156.077966, 6.224752)"/>
                        <path fill="#F2B276" d="M29.274 58.336s-4.63-7.418-4.2-14.503c.214-3.542 2.035-4.93 2.035-4.93s-1.47-2.045.106-5.17c0 0 2.18 2.524 9.833 1.728 7.379-.767 8.115 4.496 8.115 4.496 5.274.784 1.716 16.748-1.965 18.379H29.274" transform="translate(-966.000000, -753.000000) translate(840.000000, 741.000000) translate(308.000000, 191.000000) rotate(-10.000000) translate(-308.000000, -191.000000) translate(151.000000, 37.000000) translate(156.077966, 6.224752)"/>
                        <path fill="#E88465" d="M27.31 51.486s-2.66-2.656-2.988.45c-.38 3.597 2.885 5.047 3.525 3.902.637-1.144-.537-4.352-.537-4.352M45.941 51.674s2.66-2.657 2.988.449c.38 3.598-2.887 5.047-3.525 3.903-.638-1.145.537-4.352.537-4.352" transform="translate(-966.000000, -753.000000) translate(840.000000, 741.000000) translate(308.000000, 191.000000) rotate(-10.000000) translate(-308.000000, -191.000000) translate(151.000000, 37.000000) translate(156.077966, 6.224752)"/>
                        <path fill="#E88465" d="M36.345 64.518c-5.904 0-9.236-3.858-9.236-15.429 0-5.969 3.036-9.63 9.648-9.63 6.613 0 9.398 3.66 9.398 9.63 0 12.433-3.711 15.43-9.81 15.43" transform="translate(-966.000000, -753.000000) translate(840.000000, 741.000000) translate(308.000000, 191.000000) rotate(-10.000000) translate(-308.000000, -191.000000) translate(151.000000, 37.000000) translate(156.077966, 6.224752)"/>
                        <path fill="#F2B276" d="M28.92 40.74s6.292 2.305 15.312 1.657c0 0 1.923 2.399 1.69 10.86 0 0 5.281-15.243-10.138-15.243-15.418 0-8.472 14.906-8.472 14.906s-1.26-9.323 1.608-12.18" transform="translate(-966.000000, -753.000000) translate(840.000000, 741.000000) translate(308.000000, 191.000000) rotate(-10.000000) translate(-308.000000, -191.000000) translate(151.000000, 37.000000) translate(156.077966, 6.224752)"/>
                        <path fill="#1E3F43" d="M32.8 56.222s5.81.245 8.744-.531c0 0 .519 4.227-3.984 4.437-4.76.222-4.76-3.906-4.76-3.906" transform="translate(-966.000000, -753.000000) translate(840.000000, 741.000000) translate(308.000000, 191.000000) rotate(-10.000000) translate(-308.000000, -191.000000) translate(151.000000, 37.000000) translate(156.077966, 6.224752)"/>
                        <path fill="#CCD4D3" d="M57.63 72.204c1.109-.206.998 2.697 0 1.856-.998-.842-1.109-1.65 0-1.856M44.258 86.271c-.169 1.116-2.874.06-1.752-.608 1.121-.667 1.921-.507 1.752.608" transform="translate(-966.000000, -753.000000) translate(840.000000, 741.000000) translate(308.000000, 191.000000) rotate(-10.000000) translate(-308.000000, -191.000000) translate(151.000000, 37.000000) translate(156.077966, 6.224752)"/>
                        <path fill="#E0674B" d="M32.356 92.329s-1.76 4.518-1.66 7.07c.1 2.552.935 2.218.935 2.218s-1.335.526-1.589 1.997c-.252 1.472 3.46 2.551 3.715 2.551.255 0 2.875-.998 2.875-.998l.55-8.347-2.32-1.458-2.506-3.033" transform="translate(-966.000000, -753.000000) translate(840.000000, 741.000000) translate(308.000000, 191.000000) rotate(-10.000000) translate(-308.000000, -191.000000) translate(151.000000, 37.000000) translate(156.077966, 6.224752)"/>
                        <path fill="#E88465" d="M33.757 91.745s3.205 1.996 4.447 3.216c1.241 1.22.533 10.65 0 11.094-.533.444-4.62 1.358-5.404.846-.784-.513.306-3.287.306-3.287s2.052-.444 1.756.333c-.296.776 0 1.442 0 1.442l.843-.332s-.413-2.108 0-3.661-2.89-3.191-3.29-6.034c-.4-2.841 1.342-3.617 1.342-3.617" transform="translate(-966.000000, -753.000000) translate(840.000000, 741.000000) translate(308.000000, 191.000000) rotate(-10.000000) translate(-308.000000, -191.000000) translate(151.000000, 37.000000) translate(156.077966, 6.224752)"/>
                        <path fill="#BC3648" d="M.533 87.15c-1.027-4.434 3.372-6.002 9.49-5.246 7.097.877 21.672 2.734 24.84 10.425 0 0 1.034 3.033-1.644 4.49-7.486 4.074-30.759-1.34-32.686-9.668" transform="translate(-966.000000, -753.000000) translate(840.000000, 741.000000) translate(308.000000, 191.000000) rotate(-10.000000) translate(-308.000000, -191.000000) translate(151.000000, 37.000000) translate(156.077966, 6.224752)"/>
                        <path fill="#8F2E3F" d="M22.732 84.212s-8.458-3.515-12.67-3.87c-4.214-.357 5.826 3.327 12.67 3.87" transform="translate(-966.000000, -753.000000) translate(840.000000, 741.000000) translate(308.000000, 191.000000) rotate(-10.000000) translate(-308.000000, -191.000000) translate(151.000000, 37.000000) translate(156.077966, 6.224752)"/>
                        <path fill="#E88465" d="M86.132 8.033c-.64.728-1.695 3.559-1.695 3.559-.443 2.378-.7 3.692-1.535 4.783-.824 1.092-.39 3.018-.39 3.018s-3.229 1.66-5.943-.39c0 0 .284-1.908 0-2.45-.559-1.083-2.35-1.66-2.963-3.843-.612-2.192-2.449-4.633-2.449-4.633s.525-1.136 1.483-.443c.966.7 1.578 2.45 2.102 2.627.106.035.212.062.32.071 0 0 .008 0 .026.009.4.053.807-.036 1.055-.276.018-.009.045-.026.062-.053.878-1.02 1.082-4.02 1.047-5.36-.054-1.864.018-4.437 1.153-4.002 1.135.435.097 1.473.976 5.582l.425.053c.08.293.86-2.494 1.048-5.112.132-1.801 1.313-1.136 1.57-.568.266.568-.134 2.36-.214 3.665-.061.86-.132 1.758-.177 2.29l.497.275c1.792-3.124 1.18-4.42 2.227-4.482 1.038-.062.665 2.574.106 3.577-.24.435-.47 1.34-.657 2.227 1.837-2.12 1.633-3.23 2.476-3.096.869.141.088 2.244-.55 2.972" transform="translate(-966.000000, -753.000000) translate(840.000000, 741.000000) translate(308.000000, 191.000000) rotate(-10.000000) translate(-308.000000, -191.000000) translate(151.000000, 37.000000) translate(156.077966, 6.224752)"/>
                        <path fill="#E0674B" d="M78.201 12.923c-.62-1.712-2.839-2.493-3.113-2.582.4.053.807-.036 1.055-.276 2.173.977 2.058 2.858 2.058 2.858" transform="translate(-966.000000, -753.000000) translate(840.000000, 741.000000) translate(308.000000, 191.000000) rotate(-10.000000) translate(-308.000000, -191.000000) translate(151.000000, 37.000000) translate(156.077966, 6.224752)"/>
                        <path fill="#CCD4D3" d="M39.667 239.915s-1.228-2.506-.133-3.583c1.094-1.077 2.383.92 4.251.477 1.87-.444 2.303-1.773 2.789.037.486 1.811-.106 7.506-6.907 3.069" transform="translate(-966.000000, -753.000000) translate(840.000000, 741.000000) translate(308.000000, 191.000000) rotate(-10.000000) translate(-308.000000, -191.000000) translate(151.000000, 37.000000) translate(156.077966, 6.224752)"/>
                        <path fill="#A8B7B8" d="M46.703 239.804s-5.02 1.78-7.624 0l.662 2.174s5.457.579 6.21-.798l.752-1.376M46.635 242.506s-4.596-.64-6.814.503v1.078s5.993-1.4 7.93 0l-1.116-1.581" transform="translate(-966.000000, -753.000000) translate(840.000000, 741.000000) translate(308.000000, 191.000000) rotate(-10.000000) translate(-308.000000, -191.000000) translate(151.000000, 37.000000) translate(156.077966, 6.224752)"/>
                        <path fill="#A8B7B8" d="M39.6 246.326s.892-2.174 3.688-2.33c2.797-.156 4.684 1.385 4.684 1.385s-4.435-1.828-8.372.945" transform="translate(-966.000000, -753.000000) translate(840.000000, 741.000000) translate(308.000000, 191.000000) rotate(-10.000000) translate(-308.000000, -191.000000) translate(151.000000, 37.000000) translate(156.077966, 6.224752)"/>
                        <path fill="#CCD4D3" d="M157.922 216.129c-8.826 11.785-20.837 14.048-20.837 14.048-3.487-2.786-3.576-6.088-3.576-6.088s-3.362-3-3.805-4.438c-.444-1.437 2.883-5.768 4.88-5.324 1.374.301 2.172 1.402 2.536 2.05-1.65-3.718-.328-5.014 2.013-4.695 2.44.329.134.906 1.881 2.866.125.143.266.258.417.365.32.221.7.372 1.136.452.38.072.807.09 1.25.063.23-.01.47-.036.71-.071.452-.072.913-.187 1.393-.338.736-.23 1.499-.56 2.244-.967 3.051-1.669 4.338-2.236 6.662-1.642 2.315.585 2.28 2.343 2.28 2.343l.816 1.376" transform="translate(-966.000000, -753.000000) translate(840.000000, 741.000000) translate(308.000000, 191.000000) rotate(-10.000000) translate(-308.000000, -191.000000) translate(151.000000, 37.000000) translate(156.077966, 6.224752)"/>
                        <path fill="#A8B7B8" d="M157.922 216.129c-8.826 11.785-20.837 14.048-20.837 14.048 6.13-2.635 11.762-6.088 15.612-10.34 3.841-4.25 5.225-3.708 5.225-3.708M141.431 214.913c.32.221.7.372 1.136.452-2.333.47-2.502 2.556-2.502 2.556l-.993-.319c.212-2.503 2.19-2.68 2.36-2.689" transform="translate(-966.000000, -753.000000) translate(840.000000, 741.000000) translate(308.000000, 191.000000) rotate(-10.000000) translate(-308.000000, -191.000000) translate(151.000000, 37.000000) translate(156.077966, 6.224752)"/>
                        <path fill="#A8B7B8" d="M143.001 218.17l-1.038.035c-.39-1.473.115-2.352.604-2.84.38.072.807.09 1.25.063-1.233 1.216-.816 2.742-.816 2.742M145.565 217.602l-1.029.133c-.4-1.047-.284-1.828-.009-2.378.452-.072.913-.187 1.393-.338-.852 1.269-.355 2.583-.355 2.583" transform="translate(-966.000000, -753.000000) translate(840.000000, 741.000000) translate(308.000000, 191.000000) rotate(-10.000000) translate(-308.000000, -191.000000) translate(151.000000, 37.000000) translate(156.077966, 6.224752)"/>
                        <path fill="#BC3648" d="M46.794 108.163s2.278 12.299-2.328 17.2-1.56.873-.185-5.446c1.374-6.318.327-12.974 2.513-11.754M68.053 102.674s7.262 2.387 11.06 9.096c0 0-5.072-10.923-11.06-9.096" transform="translate(-966.000000, -753.000000) translate(840.000000, 741.000000) translate(308.000000, 191.000000) rotate(-10.000000) translate(-308.000000, -191.000000) translate(151.000000, 37.000000) translate(156.077966, 6.224752)"/>
                        <path fill="#A8B7B8" d="M.533 87.15s10.148-1.633 15.233 1.61c5.085 3.243 11.761 11.707 11.761 11.707s-7.927 1.047-8.824 6.434c0 0-5.757-13.72-18.17-19.75" transform="translate(-966.000000, -753.000000) translate(840.000000, 741.000000) translate(308.000000, 191.000000) rotate(-10.000000) translate(-308.000000, -191.000000) translate(151.000000, 37.000000) translate(156.077966, 6.224752)"/>
                    </g>
                    <g>
                        <path fill="#A8B7B8" d="M114.773 197.733H54.758c-.773 0-1.4-.627-1.4-1.401v-.77c0-.774.627-1.401 1.4-1.401h60.015c.773 0 1.4.627 1.4 1.401v.77c0 .774-.627 1.401-1.4 1.401" transform="translate(-966.000000, -753.000000) translate(840.000000, 741.000000) translate(308.000000, 191.000000) rotate(-10.000000) translate(-308.000000, -191.000000) translate(151.000000, 37.000000) translate(146.876259, 56.850833)"/>
                        <path fill="#1C3A44" d="M113.676 194.43c0 .869-.09 1.481-.09 1.481h-25.13c0-.497.01-.994.036-1.482.284-6.576 2.36-12.282 2.36-12.282l6.28-2.698c.54 3.239 1.934 5.307 3.682 6.656.46.364.94.665 1.436.922.231.125.462.24.7.347.525.24 1.066.434 1.607.594 2.218.675 4.462.817 6.032 1.056 2.68.417 3.087 3.515 3.087 5.405" transform="translate(-966.000000, -753.000000) translate(840.000000, 741.000000) translate(308.000000, 191.000000) rotate(-10.000000) translate(-308.000000, -191.000000) translate(151.000000, 37.000000) translate(146.876259, 56.850833)"/>
                        <path fill="#264F58" d="M113.676 194.43c0 .869-.09 1.481-.09 1.481h-25.13c0-.497.01-.994.036-1.482h25.184M102.25 187.027l-3.486 1.119-.736-1.278 2.786-.763c.46.364.94.665 1.436.922M104.557 187.968l-2.35 1.562-1.447-.567 2.19-1.59c.525.24 1.066.435 1.607.595" transform="translate(-966.000000, -753.000000) translate(840.000000, 741.000000) translate(308.000000, 191.000000) rotate(-10.000000) translate(-308.000000, -191.000000) translate(151.000000, 37.000000) translate(146.876259, 56.850833)"/>
                        <path fill="#1C3A44" d="M17.66 194.43c-.062.851-.284 1.481-.284 1.481H.638c-.214-.488-.365-.976-.471-1.482-1.65-8.014 9.474-17.82 9.474-17.82l3.53 4.712s-.407 7.544 2.582 9.115c1.792.94 2.023 2.715 1.907 3.993" transform="translate(-966.000000, -753.000000) translate(840.000000, 741.000000) translate(308.000000, 191.000000) rotate(-10.000000) translate(-308.000000, -191.000000) translate(151.000000, 37.000000) translate(146.876259, 56.850833)"/>
                        <path fill="#264F58" d="M.167 194.43H17.66c-.062.851-.284 1.481-.284 1.481H.638c-.214-.488-.365-.976-.471-1.482M14.988 189.835s-7.053-1.609-10.268.474v-1.165s5.932-2.884 10.268.69" transform="translate(-966.000000, -753.000000) translate(840.000000, 741.000000) translate(308.000000, 191.000000) rotate(-10.000000) translate(-308.000000, -191.000000) translate(151.000000, 37.000000) translate(146.876259, 56.850833)"/>
                        <path fill="#264F58" d="M13.59 188.045s-4.503-2.06-8.87 0l.499-1.175s5.216-1.974 8.371 1.175" transform="translate(-966.000000, -753.000000) translate(840.000000, 741.000000) translate(308.000000, 191.000000) rotate(-10.000000) translate(-308.000000, -191.000000) translate(151.000000, 37.000000) translate(146.876259, 56.850833)"/>
                        <path fill="#89B6CD" d="M106.092 123.182c.008 6.736-5.97 61.654-5.97 61.654-5.979.594-10.77-.604-10.77-.604-1.64-27.831-1.8-51.766-1.8-51.766L58.9 110.979l-.072-.052s-.106.487-.3 1.358c-1.42 6.3-7.426 32.694-9.927 38.738-2.848 6.887-33.981 35.847-33.981 35.847-5.784-.799-10.692-4.99-10.692-4.99 11.177-18.548 26.417-37.15 26.417-37.15 1.189-6.682 2.04-21.548 2.546-32.659.01-.168.018-.346.027-.514.337-7.526.505-13.206.505-13.206l-5.251-10.774 33.363-12.265 7.477 9.576s1.712 1.588 4.409 4.127l.372.346c10.015 9.452 32.299 30.805 32.299 33.821" transform="translate(-966.000000, -753.000000) translate(840.000000, 741.000000) translate(308.000000, 191.000000) rotate(-10.000000) translate(-308.000000, -191.000000) translate(151.000000, 37.000000) translate(146.876259, 56.850833)"/>
                        <path fill="#5F8EA2" d="M32.891 112.071c.01-.168.018-.346.027-.514 7.025-3.816 5.845-9.904 5.827-9.967l.435-.088c.018.062 1.278 6.602-6.289 10.57M58.385 106.676c.24 1.33.417 2.769.515 4.303l-.072-.052s-.106.487-.3 1.358c-.312-10.437-4.613-16.605-4.667-16.676l.364-.257c.044.052 2.759 3.975 4.071 10.818 5.075-4.508.107-13.747.054-13.836l.39-.213c.053.098 5.314 9.878-.355 14.555M73.793 89.361c-.009.009-.026.009-.035.018-.204.08-.443.115-.692.115-2.457 0-6.582-3.444-6.777-3.612l.293-.337c1.34 1.136 5.074 3.86 6.839 3.47l.372.346" transform="translate(-966.000000, -753.000000) translate(840.000000, 741.000000) translate(308.000000, 191.000000) rotate(-10.000000) translate(-308.000000, -191.000000) translate(151.000000, 37.000000) translate(146.876259, 56.850833)"/>
                        <path fill="#CCD4D3" d="M15.241 35.426c-4.293 2.32-11.47 11.038-11.793 16.399-.316 5.228 3.555 10.037 6.165 14.125 8.144 12.758 16.719 24.028 20.362 38.99.023.096 18.628 7.482 40.463-18.777 0 0-12.337-16.608-16.6-30.747-1.735-5.756-3.5-11.87-6.833-16.943-3.671-5.587-9.957-8.874-16.497-8.343-5.534.448-11.038 3.008-15.267 5.296" transform="translate(-966.000000, -753.000000) translate(840.000000, 741.000000) translate(308.000000, 191.000000) rotate(-10.000000) translate(-308.000000, -191.000000) translate(151.000000, 37.000000) translate(146.876259, 56.850833)"/>
                        <path fill="#E0674B" d="M13.44 30.074s2.746 4.694 1.477 7.275c0 0 9.421 3.254 9.421-2.02 0 0-1.775-3.953-1.106-6.508l-9.793 1.253M34.376 62.215s-5.24 1.49-6.564 3.346c-1.322 1.856-2.499 6.02-2.499 6.02h9.063l1.704-3.138 1.995-4.18-3.7-2.048" transform="translate(-966.000000, -753.000000) translate(840.000000, 741.000000) translate(308.000000, 191.000000) rotate(-10.000000) translate(-308.000000, -191.000000) translate(151.000000, 37.000000) translate(146.876259, 56.850833)"/>
                        <path fill="#1C3A44" d="M25.712 24.84s3.68-1.544 1.299-12.616c-1.577-7.337-3.849-8.43-5.317-8.495 0 0-1.796-2.706-8.026-1.41-4.267.887-7.671 3.48-9.17 8.277-1.564 5.007 1.565 15.74 5.685 16.807l15.529-2.562" transform="translate(-966.000000, -753.000000) translate(840.000000, 741.000000) translate(308.000000, 191.000000) rotate(-10.000000) translate(-308.000000, -191.000000) translate(151.000000, 37.000000) translate(146.876259, 56.850833)"/>
                        <path fill="#E88465" d="M26.582 17.358s2.32-3.23 3.195-.046c1.015 3.687-2.144 5.761-3.006 4.677-.863-1.084-.19-4.631-.19-4.631M7.18 20.76s-3.233-2.312-3.04.984c.222 3.818 3.88 4.768 4.348 3.464.47-1.303-1.308-4.447-1.308-4.447" transform="translate(-966.000000, -753.000000) translate(840.000000, 741.000000) translate(308.000000, 191.000000) rotate(-10.000000) translate(-308.000000, -191.000000) translate(151.000000, 37.000000) translate(146.876259, 56.850833)"/>
                        <path fill="#E88465" d="M19.399 32.507c6.158-1.017 8.97-5.614 6.98-17.685-1.027-6.226-4.823-9.522-11.72-8.384-6.899 1.14-9.174 5.437-8.147 11.663 2.138 12.97 6.525 15.456 12.887 14.406" transform="translate(-966.000000, -753.000000) translate(840.000000, 741.000000) translate(308.000000, 191.000000) rotate(-10.000000) translate(-308.000000, -191.000000) translate(151.000000, 37.000000) translate(146.876259, 56.850833)"/>
                        <path fill="#1E3F43" d="M22.65 24.112s-5.343 1.434-8.306.865c0 0 2.048 2.58 4.971 1.836 2.924-.744 3.334-2.7 3.334-2.7" transform="translate(-966.000000, -753.000000) translate(840.000000, 741.000000) translate(308.000000, 191.000000) rotate(-10.000000) translate(-308.000000, -191.000000) translate(151.000000, 37.000000) translate(146.876259, 56.850833)"/>
                        <path fill="#173137" d="M22.902 9.22s-6.951 5.037-15.677 5.42l.248 7.77S-.66 7.419 15.424 4.764c16.083-2.654 11.402 14.09 11.402 14.09s-.498-7.223-3.924-9.633" transform="translate(-966.000000, -753.000000) translate(840.000000, 741.000000) translate(308.000000, 191.000000) rotate(-10.000000) translate(-308.000000, -191.000000) translate(151.000000, 37.000000) translate(146.876259, 56.850833)"/>
                        <path fill="#BC3648" d="M26.673 9.24C14.98 4.163 3.946 14.689 3.946 14.689S2.66 6.16 4.913 4.163c.585-.523 1.215-.985 1.872-1.393C11.947-.487 18.813-.425 21.962.693c.648.231 1.144.506 1.429.799 1.862 1.935 3.282 7.748 3.282 7.748" transform="translate(-966.000000, -753.000000) translate(840.000000, 741.000000) translate(308.000000, 191.000000) rotate(-10.000000) translate(-308.000000, -191.000000) translate(151.000000, 37.000000) translate(146.876259, 56.850833)"/>
                        <path fill="#CCD4D3" d="M25.253 7.34s-9.82-1.943-18.974 4.118c0 0-.586-5.502.506-8.688C11.947-.487 18.813-.425 21.962.693c1.836 2.095 3.291 6.648 3.291 6.648" transform="translate(-966.000000, -753.000000) translate(840.000000, 741.000000) translate(308.000000, 191.000000) rotate(-10.000000) translate(-308.000000, -191.000000) translate(151.000000, 37.000000) translate(146.876259, 56.850833)"/>
                        <path fill="#8F2E3F" d="M4.913 13.686S6.469 7.07 8.567 5.208c3.489-3.1 13.291-4.163 18.444-2.3 5.152 1.863 0 7.496 0 7.496s-8.212-5.886-22.098 3.282" transform="translate(-966.000000, -753.000000) translate(840.000000, 741.000000) translate(308.000000, 191.000000) rotate(-10.000000) translate(-308.000000, -191.000000) translate(151.000000, 37.000000) translate(146.876259, 56.850833)"/>
                        <path fill="#E88465" d="M20.076 57.64s4.013 6.218 10.847 9.877c0 0 8.55-7.425 19.636-6.757 0 0-9.188 16.585-17.078 18.422-4.145.964-19.137-8.967-19.137-8.967s2.993-10.556 5.732-12.576" transform="translate(-966.000000, -753.000000) translate(840.000000, 741.000000) translate(308.000000, 191.000000) rotate(-10.000000) translate(-308.000000, -191.000000) translate(151.000000, 37.000000) translate(146.876259, 56.850833)"/>
                        <path fill="#A8B7B8" d="M5.297 46.365c3.672-5.982 12.145 2.86 15.029 9.175 2.883 6.316 4.987 7.655 4.987 7.655s-8.465 3.538-8.405 9.886c0 0-19.625-13.664-11.61-26.716" transform="translate(-966.000000, -753.000000) translate(840.000000, 741.000000) translate(308.000000, 191.000000) rotate(-10.000000) translate(-308.000000, -191.000000) translate(151.000000, 37.000000) translate(146.876259, 56.850833)"/>
                    </g>
                </g>
            </g>
        </g>
    </g>
</svg>
