<svg xmlns="http://www.w3.org/2000/svg" width="45" height="45" viewBox="0 0 45 45">
    <g fill="none" fill-rule="evenodd">
        <g>
            <g transform="translate(-130.000000, -1214.000000) translate(130.000000, 1214.000000)">
                <rect width="45" height="45" fill="#009AE1" fill-opacity=".15" rx="22.5"/>
                <path fill="#7F5CC8" fill-rule="nonzero" d="M29.55 19.643c.68 0 1.23-.592 1.23-1.321 0-.73-.55-1.322-1.23-1.322-.68 0-1.231.592-1.231 1.322 0 .73.55 1.32 1.23 1.32zm-9.432.713c-.055.15-.455 1.363-1.422 2.62V17.6l-2.577.547v9.741h2.577v-3.01c.746 1.2 1.115 3.01 1.115 3.01h3.086c-.305-1.362-1.64-3.875-1.64-3.875 1.198-1.631 1.725-3.37 1.808-3.658h-2.947zm6.775-.102c-2.308.08-3.48 1.192-3.48 3.402v4.233h2.519v-3.452c0-1.323.161-1.89 1.624-1.945v-2.199c-.246-.056-.663-.039-.663-.039zM11.797 21.43c-.316-.023-1.047-.073-1.047-.78 0-.852 1.052-.852 1.447-.852.694 0 1.593.22 2.234.426 0 0 .358.136.663.275l.028.008v-2.334l-.039-.012c-.757-.285-1.638-.559-3.27-.559-2.816 0-3.813 1.761-3.813 3.27 0 .869.347 2.915 3.571 3.15.274.019.999.064.999.794 0 .602-.594.957-1.593.957-1.094 0-2.156-.3-2.801-.583v2.404c.965.271 2.054.407 3.33.407 2.752 0 3.985-1.666 3.985-3.317 0-1.872-1.38-3.088-3.694-3.254zm16.504 6.46h2.498v-7.524H28.3v7.524zm7.2-9.808v9.808H38V17.601l-2.498.48zm-3.644 0l2.495-.48V27.89h-2.495v-9.808z"/>
            </g>
        </g>
    </g>
</svg>
