<svg xmlns="http://www.w3.org/2000/svg" width="45" height="45" viewBox="0 0 45 45">
    <g fill="none" fill-rule="evenodd">
        <g>
            <g transform="translate(-130.000000, -694.000000) translate(130.000000, 694.000000)">
                <rect width="45" height="45" fill="#009AE1" fill-opacity=".15" rx="22.5"/>
                <path fill="#FF936A" fill-rule="nonzero" d="M18.184 13v2.235H16v14.53h2.184V32h2.183v-2.235h2.184V32h2.184v-2.34c.29-.04.606-.057.887-.105.657-.223 1.194-.467 1.74-.803.435-.336.866-.769 1.194-1.327.329-.56.444-1.14.444-1.921 0-.895-.35-1.668-.785-2.34-.546-.673-1.203-1.105-2.184-1.328.764-.336 1.31-.777 1.638-1.222.329-.445.546-1.035.546-1.816 0-.673-.09-1.231-.307-1.677-.217-.445-.554-.895-.99-1.117-.434-.223-.878-.446-1.535-.56l-.648-.104V13H22.55v2.235h-2.184V13h-2.183zm1.092 4.47h3.173c.328 0 .635-.008.853.105.328 0 .567.131.785.245.217.113.435.196.546.419.11.223.204.467.204.803 0 .673-.11 1.105-.546 1.327-.435.337-.878.455-1.535.455h-3.48V17.47zm0 5.589h3.821c.764 0 1.433.222 1.98.559.545.336.75 1 .75 1.78 0 .337-.094.791-.205 1.014-.217.336-.465.55-.682.663-.218.114-.525.236-.853.35-.329.113-.764.104-1.092.104h-3.72v-4.47z"/>
            </g>
        </g>
    </g>
</svg>
