<svg xmlns="http://www.w3.org/2000/svg" width="45" height="45" viewBox="0 0 45 45">
    <g fill="none" fill-rule="evenodd">
        <g>
            <g transform="translate(-130.000000, -902.000000) translate(130.000000, 902.000000)">
                <rect width="45" height="45" fill="#009AE1" fill-opacity=".15" rx="22.5"/>
                <g fill-rule="nonzero">
                    <path fill="#ED8117" d="M4.01 19.362c1.186.828 3.36-.204 4.902-2.302.022-.028.045-.054.066-.083.847-1.192.555-2.839-.652-3.68-1.207-.843-2.872-.56-3.719.631l-.057.09c-1.477 2.144-1.725 4.518-.54 5.344" transform="translate(13.299031, 12.013082)"/>
                    <path fill="#EEBB18" d="M5.224 17.776c.825.561 2.349-.154 3.434-1.598.016-.019.032-.037.047-.057.287-.39.402-.877.319-1.35-.083-.475-.357-.896-.76-1.17-.84-.572-2.005-.372-2.602.448-.015.02-.027.041-.04.061-1.041 1.475-1.224 3.103-.398 3.666" transform="translate(13.299031, 12.013082)"/>
                    <g fill="#5B6A72">
                        <path d="M.099 3.307c-.124.158-.186.395.152.291.965-.295 3.152-.639 5.69 1.093C9.372 7.029 9.093.968 9.093.968 8.278.414 4.182-1.838.1 3.308m13.034 9.136c.015.342.22.208.328.042 3.53-5.423.016-8.411-.785-8.969 0 0-5.858 1.754-2.486 4.103 2.497 1.74 2.901 3.847 2.943 4.824" transform="translate(13.299031, 12.013082) translate(0.000000, 7.649504)"/>
                    </g>
                    <path fill="#DCF2F9" d="M9.572 16.19c.67.486 1.074.565 1.56-.026.487-.59 3.046-3.542 5.603-6.795 2.556-3.254.997-8.852.69-9.075l-.004.005.003-.006C17.117.07 11.478.44 9.368 4.018c-2.11 3.578-3.943 7.056-4.319 7.727-.375.671-.167 1.039.503 1.525l2.01 1.46 2.01 1.46" transform="translate(13.299031, 12.013082)"/>
                    <path fill="#5B6A72" d="M10.326 16.908H10.3c-.306-.008-.625-.142-1.066-.45l-2.035-1.416-.05-.036-1.356-.942-.732-.51c-.44-.306-.676-.557-.786-.838-.172-.44.014-.843.168-1.108.08-.139.23-.401.434-.764.754-1.336 2.322-4.114 4.055-6.929.623-1.013 1.577-1.863 2.834-2.527.664-.351 1.774-.835 3.286-1.144.597-.122 1.21-.205 1.724-.233.79-.044.93.054.997.1l.006.005c.069.049.208.16.427.892.147.49.274 1.09.359 1.69.232 1.644.353 4.728-1.44 6.913-2.1 2.56-4.22 4.955-5.24 6.105-.277.313-.478.54-.583.661-.153.178-.303.307-.459.394-.157.09-.335.137-.516.137M17.15.654c-.552 0-1.76.112-3.12.522-1.476.444-3.46 1.338-4.53 3.078-1.727 2.803-3.29 5.575-4.043 6.907-.206.366-.355.63-.438.773-.18.307-.16.454-.125.547.058.148.233.32.55.54l.732.509 1.355.943.051.035 2.035 1.417c.654.455.848.412 1.176.03.109-.125.31-.353.59-.668 1.016-1.148 3.131-3.536 5.222-6.085 1.299-1.582 1.483-3.73 1.41-5.253-.08-1.649-.48-2.961-.64-3.285-.074-.008-.15-.01-.225-.01" transform="translate(13.299031, 12.013082)"/>
                    <path fill="#FEFEFE" d="M11.636 8.166c1.068.74 2.545.488 3.296-.562.75-1.05.496-2.502-.573-3.242-1.068-.74-2.543-.49-3.295.561-.751 1.051-.496 2.502.572 3.243" transform="translate(13.299031, 12.013082)"/>
                    <path fill="#5B6A72" d="M12.993 8.92c-1.007-.004-1.929-.557-2.391-1.437-.463-.88-.39-1.939.19-2.749.412-.575 1.04-.966 1.745-1.087.705-.12 1.43.04 2.016.446 1.217.844 1.51 2.504.652 3.7-.41.577-1.039.968-1.745 1.086-.154.027-.31.04-.467.04m.009-4.655c-.118 0-.236.01-.352.03-.531.09-1.004.384-1.313.818-.644.9-.424 2.15.492 2.785.44.306.986.427 1.517.336.53-.09 1.003-.385 1.313-.818.646-.9.425-2.15-.491-2.785-.341-.238-.749-.366-1.166-.366" transform="translate(13.299031, 12.013082)"/>
                </g>
            </g>
        </g>
    </g>
</svg>
