<svg xmlns="http://www.w3.org/2000/svg" width="30" height="30" viewBox="0 0 30 30">
    <g fill="none" fill-rule="evenodd">
        <g>
            <g transform="translate(-488.000000, -375.000000) translate(488.000000, 375.000000)">
                <rect width="30" height="30" fill="#009AE1" fill-opacity=".15" rx="15"/>
                <path fill="#FF6D87" fill-rule="nonzero" d="M10.271 16.045v1.268h.638c.269 0 .46.051.573.154.114.103.17.274.17.513 0 .244-.057.419-.173.526-.115.107-.305.16-.57.16H8.766c-.273 0-.468-.053-.585-.16-.118-.107-.177-.282-.177-.526 0-.218.056-.384.167-.497.112-.114.275-.17.49-.17h.105V16.08c-.285 0-.48-.05-.582-.151-.227-.223-.18-.534-.18-.652 0-.108-.004-.342.18-.509.113-.103.307-.139.582-.107V12.7h-.105c-.21 0-.373-.059-.487-.176-.113-.118-.17-.286-.17-.504 0-.24.06-.414.18-.523.12-.109.314-.164.582-.164h2.558c1.012 0 1.777.194 2.295.582.519.387.778.958.778 1.712 0 .796-.258 1.398-.774 1.806-.517.408-1.283.612-2.299.612h-1.053zm0-3.345v1.954h.88c.487 0 .854-.083 1.1-.248.245-.164.368-.412.368-.742 0-.309-.127-.547-.38-.714-.255-.167-.617-.25-1.088-.25h-.88zm8.462 2.8l1.183-3.505c.075-.23.178-.399.31-.504.132-.105.308-.158.527-.158h.966c.28 0 .482.054.604.161.122.107.183.282.183.526 0 .222-.06.391-.177.507-.118.115-.288.173-.511.173h-.1l.174 4.613h.106c.223 0 .39.056.501.17.112.113.168.279.168.497 0 .244-.06.419-.177.526-.118.107-.317.16-.598.16H20.5c-.281 0-.48-.052-.598-.157-.118-.105-.177-.281-.177-.529 0-.218.057-.384.17-.497.114-.114.282-.17.505-.17h.1l-.087-3.772-.905 2.807c-.066.21-.16.362-.281.454-.122.093-.29.14-.505.14-.215 0-.385-.047-.511-.14-.126-.092-.222-.244-.288-.454l-.899-2.807-.086 3.772h.099c.223 0 .391.056.505.17.113.113.17.279.17.497 0 .244-.06.419-.18.526-.12.107-.318.16-.594.16h-1.4c-.277 0-.475-.053-.595-.16-.12-.107-.18-.282-.18-.526 0-.218.057-.384.17-.497.114-.114.283-.17.506-.17h.099l.18-4.613h-.1c-.223 0-.393-.058-.51-.173-.119-.116-.177-.285-.177-.507 0-.244.06-.419.182-.526.122-.107.324-.16.604-.16h.967c.214 0 .387.05.517.154.13.103.236.272.319.507l1.214 3.506z"/>
            </g>
        </g>
    </g>
</svg>
