<svg xmlns="http://www.w3.org/2000/svg" width="45" height="45" viewBox="0 0 45 45">
    <g fill="none" fill-rule="evenodd">
        <g>
            <g transform="translate(-130.000000, -1006.000000) translate(130.000000, 1006.000000)">
                <rect width="45" height="45" fill="#009AE1" fill-opacity=".15" rx="22.5"/>
                <path fill="#FF6D87" fill-rule="nonzero" d="M15.407 24.067v1.902h.957c.403 0 .69.077.86.232.17.154.255.41.255.77 0 .364-.087.627-.26.788-.174.16-.459.241-.855.241h-3.215c-.409 0-.702-.08-.878-.241-.177-.16-.265-.424-.265-.789 0-.327.084-.576.25-.746.168-.17.413-.255.735-.255h.158v-1.847c-.428 0-.72-.076-.873-.227-.34-.335-.27-.801-.27-.977 0-.162-.005-.514.27-.764.17-.155.46-.208.873-.16V19.05h-.158c-.316 0-.56-.088-.73-.265-.17-.176-.255-.428-.255-.755 0-.36.09-.62.27-.784.18-.164.47-.246.873-.246h3.838c1.517 0 2.665.29 3.442.872.778.581 1.166 1.437 1.166 2.569 0 1.193-.387 2.096-1.161 2.708-.775.612-1.924.918-3.447.918h-1.58zm0-5.017v2.93h1.32c.73 0 1.28-.123 1.649-.37.368-.248.553-.619.553-1.113 0-.464-.19-.821-.572-1.072-.38-.25-.924-.375-1.63-.375h-1.32zM28.1 23.25l1.774-5.259c.112-.346.267-.598.465-.755.198-.158.461-.237.79-.237h1.45c.42 0 .723.08.905.241.183.16.274.424.274.789 0 .333-.088.587-.264.76-.177.173-.432.26-.767.26h-.149l.26 6.919h.158c.335 0 .586.085.753.255.167.17.251.419.251.746 0 .365-.088.628-.265.789-.176.16-.475.241-.896.241h-2.091c-.421 0-.72-.079-.897-.237-.176-.157-.265-.422-.265-.793 0-.327.086-.576.256-.746.17-.17.423-.255.757-.255h.149l-.13-5.658-1.357 4.21c-.099.316-.24.544-.423.683-.182.139-.435.208-.757.208s-.578-.07-.767-.208c-.188-.14-.332-.367-.432-.682l-1.347-4.21-.13 5.657h.149c.334 0 .587.085.757.255.17.17.255.419.255.746 0 .365-.09.628-.269.789-.18.16-.477.241-.892.241h-2.1c-.415 0-.712-.08-.892-.241-.18-.16-.27-.424-.27-.789 0-.327.086-.576.256-.746.17-.17.423-.255.757-.255h.149l.27-6.92h-.15c-.334 0-.59-.086-.766-.259-.176-.173-.265-.427-.265-.76 0-.365.092-.628.275-.789.182-.16.484-.241.905-.241h1.45c.322 0 .58.077.776.232.195.154.355.408.478.76l1.822 5.26z"/>
            </g>
        </g>
    </g>
</svg>
