<svg xmlns="http://www.w3.org/2000/svg" width="30" height="30" viewBox="0 0 30 30">
    <g fill="none" fill-rule="evenodd">
        <g>
            <g transform="translate(-120.000000, -375.000000) translate(120.000000, 375.000000)">
                <rect width="30" height="30" fill="#009AE1" fill-opacity=".15" rx="15"/>
                <path fill="#FF936A" fill-rule="nonzero" d="M12.122 8.667v1.49h-1.455v9.686h1.455v1.49h1.456v-1.49h1.456v1.49h1.456v-1.56c.193-.026.404-.038.591-.07.438-.148.797-.311 1.16-.535.29-.224.578-.512.797-.885.219-.372.295-.76.295-1.28 0-.597-.233-1.112-.523-1.56-.364-.449-.802-.737-1.456-.885.51-.225.873-.518 1.092-.815.22-.297.364-.69.364-1.211 0-.448-.06-.82-.205-1.118-.145-.297-.37-.596-.66-.745-.29-.148-.585-.297-1.023-.372l-.432-.07v-1.56h-1.456v1.49h-1.456v-1.49h-1.456zm.728 2.98h2.116c.219 0 .424-.006.569.07.218 0 .378.087.523.163.145.076.29.13.364.28.074.148.136.31.136.535 0 .448-.074.736-.364.885-.29.224-.586.302-1.023.302h-2.32v-2.235zm0 3.726h2.548c.509 0 .955.148 1.32.372.363.224.5.667.5 1.188 0 .224-.063.526-.137.675-.145.224-.31.367-.455.442-.145.076-.35.157-.568.233-.22.076-.51.07-.728.07h-2.48v-2.98z"/>
            </g>
        </g>
    </g>
</svg>
