<svg xmlns="http://www.w3.org/2000/svg" width="45" height="45" viewBox="0 0 45 45">
    <g fill="none" fill-rule="evenodd">
        <g>
            <g transform="translate(-130.000000, -1110.000000) translate(130.000000, 1110.000000)">
                <rect width="45" height="45" fill="#009AE1" fill-opacity=".15" rx="22.5"/>
                <g fill-rule="nonzero">
                    <path fill="#1565C0" d="M3.784 0c-.413 0-.782.284-.865.697 0 0-2.436 11.155-2.89 13.385-.083.455.03.7.154.865.165.207.418.336.749.336h3.097l2.44-11.23c.082-.413.457-1.162 1.613-1.162h6.687C14.19.991 12.334 0 10.599 0H3.784z" transform="translate(13.000000, 13.000000)"/>
                    <path fill="#283593" d="M8.16 3.756l-.658.13c-.125.081-.204.25-.246.374l-.994 4.62c.29-.124.573-.167.904-.167h2.982c2.642 0 4.125-1.068 4.62-3.382.083-.413.13-.74.13-1.071l-.052-.465v-.039H8.16z" transform="translate(13.000000, 13.000000)"/>
                    <path fill="#039BE5" d="M15.633 3.846l.04.284c.041.413-.035.783-.117 1.278-.578 2.685-2.444 4.053-5.46 4.053H7.127c-.661 0-1.115.29-1.239.826-.164.744-1.61 7.556-1.652 7.68-.042.207.003.49.168.697.124.165.322.336.735.336h3.305c.413 0 .795-.294.878-.749.37-1.57.861-3.954.903-4.078 0-.042.039-.13.039-.13h2.194c3.222 0 5.657-1.936 6.234-5.033.414-1.901-.12-3.108-.658-3.77-.744-.95-2.112-1.394-2.4-1.394z" transform="translate(13.000000, 13.000000)"/>
                </g>
            </g>
        </g>
    </g>
</svg>
