<svg xmlns="http://www.w3.org/2000/svg" width="31" height="35" viewBox="0 0 31 35">
    <g fill="none" fill-rule="evenodd">
        <g fill="#009AE1" fill-rule="nonzero">
            <g>
                <path d="M15.5 0c-2.854 0-5.167 2.303-5.167 5.144 0 2.84 2.313 5.143 5.167 5.143 2.854 0 5.167-2.303 5.167-5.143C20.667 2.303 18.354 0 15.5 0zm0 3.429c.949 0 1.722.77 1.722 1.715 0 .944-.773 1.714-1.722 1.714s-1.722-.77-1.722-1.714c0-.945.773-1.715 1.722-1.715zM0 10.287L.003 29.14l1.716.007c.077 0 7.979.077 12.563 4.64L15.5 35l1.218-1.212c4.584-4.564 12.482-4.641 12.563-4.641L31 29.14V10.287h-1.722c-.355 0-8.176.055-13.778 4.558-5.602-4.503-13.423-4.558-13.778-4.558H0zm3.444 3.55c2.473.275 7.072 1.192 10.334 4.085v11.15c-3.757-2.315-8.012-3.036-10.334-3.257V13.837zm24.112.003v11.975c-2.322.222-6.577.943-10.334 3.258V17.925c3.262-2.893 7.86-3.811 10.334-4.085z" transform="translate(-104.000000, -926.000000) translate(104.000000, 926.000000)"/>
            </g>
        </g>
    </g>
</svg>
