<svg xmlns="http://www.w3.org/2000/svg" width="33" height="30" viewBox="0 0 33 30">
    <g fill="none" fill-rule="evenodd">
        <g fill="#009AE1" fill-rule="nonzero">
            <g>
                <path d="M0 1.976V25c0 2.742 2.236 5 4.95 5h23.1c2.714 0 4.95-2.258 4.95-5V8.317c0-.912-.739-1.65-1.65-1.65-.911 0-1.65.738-1.65 1.65V25c0 .942-.718 1.667-1.65 1.667-.932 0-1.65-.725-1.65-1.667V1.976C26.4.885 25.515 0 24.424 0H1.976C.885 0 0 .885 0 1.976zm3.3 1.357h19.8V25c0 .647.46 1.097.686 1.667H4.95c-.932 0-1.65-.725-1.65-1.667V3.333zm3.3 3.334v5h13.2v-5H6.6zM6.6 15v3.333h13.2V15H6.6zm0 6.667V25h13.2v-3.333H6.6z" transform="translate(-106.000000, -1907.000000) translate(106.000000, 1907.000000)"/>
            </g>
        </g>
    </g>
</svg>
