<?xml version="1.0" encoding="iso-8859-1"?>
<!-- Generator: Adobe Illustrator 19.0.0, SVG Export Plug-In . SVG Version: 6.00 Build 0)  -->

	 <svg id="Capa_1" enable-background="new 0 0 423.108 423.108" height="512" viewBox="0 0 423.108 423.108" width="512" xmlns="http://www.w3.org/2000/svg"><g><path d="m172.563 167.733h77.952v84.122h-77.952z" fill="#f7be56"/><path d="m179.178 423.103h62.826c17.39-57.101 34.116-181.659 34.116-181.659l-26.106-29.501-38.461 22.89-21.695-6.135-32.911-9.39s-2.84 13.62 0 64.126c1.201 21.362 11.151 110.089 22.231 139.669z" fill="#d5d6db"/><g fill="#fcd462"><path d="m146.903 102.862c5.73-.925 11.925 7.9 13.84 19.72s-1.175 22.16-6.905 23.085-11.925-7.9-13.845-19.72 1.18-22.155 6.91-23.085z"/><path d="m276.18 102.862c-5.73-.925-11.93 7.9-13.845 19.72s1.175 22.16 6.905 23.085 11.93-7.9 13.845-19.72-1.175-22.155-6.905-23.085z"/><path d="m210.844 15.02c-34.166 0-64.416 30.376-61.866 98.242 1.785 47.546 27.701 86.147 61.866 86.147s61.866-38.571 61.866-86.147-27.7-98.242-61.866-98.242z"/></g><path d="m275.49 35.215c-6-7.085-2.78-30.766-34.571-32.681-23.53-1.42-63.266-12.275-92.092 25.291-5 6.5-7.915 23.5-8.76 31.721-2.187 22.089 1.316 44.369 10.175 64.721s9.185-47.766 9.54-56.746c1.53-38.656 80.972-11.395 84.862-16.475l1.305-.17s19.79 17.5 19.805 41.671 6.685 31.721 6.685 31.721c.001-.001 26.357-61.532 3.051-89.053z" fill="#2f4859"/><path d="m270.63 224.739-20.115-34.016-38.896 43.511-39.056-43.526-20.11 34.031 28.295 43.296 30.791-33.201 30.796 33.201z" fill="#ebf0f3"/><path d="m215.904 423.103c-10.815-43.396-43.256-140.133-47.001-169.243-1.64-13.13-2.775-24.115-3.535-32.196-.885-9.59-1.5-15.165-1.5-16.175-5.43 9.595-16.53 16.68-26.381 23.245-13.053 7.996-27.102 14.236-41.786 18.56-25.301 5.059-44.287 26.118-46.706 51.806-1.915 20.595-3.895 101.417-5.755 124.002h172.664z" fill="#3a556a"/><path d="m379.867 423.103c-1.86-22.57-3.84-103.392-5.755-124.002-2.408-25.682-21.375-46.745-46.666-51.821-14.684-4.324-28.733-10.564-41.786-18.56-10-6.565-20.775-13.085-26.081-22.68 0 0-.685 5.135-1.57 15-.755 8.08-1.895 19.065-3.66 32.446-3.705 29.046-27.501 126.003-38.446 169.623z" fill="#3a556a"/><path d="m294.321 290.475-.03-1.275c-.415-18.83-8.675-46.781-16.61-65.741 5.83 20.5 12.695 45.676 12.63 64.381-5.05 1.925-10.055 3.935-15.055 5.975l-1.975.805.705 2.045 8.365 24.19c-11.44 16.54-22.425 33.391-33.606 50.116-11.13 17.25-22.28 34.501-32.841 52.131 12.5-16.315 24.425-33.036 36.366-49.741 11.66-16.89 23.53-33.646 34.901-50.736l.71-1.065-.425-1.165-8.5-23.245c4.715-2 9.42-4 14.085-6.11z" fill="#3e6b82"/><path d="m145.323 320.856 8.365-24.19.71-2.045-2-.805c-5-2.035-10-4.05-15.05-5.97 0-18.85 7.915-47.041 9.475-65.471-4.855 18.855-13.045 48.001-13.465 66.826l-.03 1.275 1.26.565c4.665 2.11 9.37 4.115 14.08 6.11l-8.5 23.245-.425 1.165.715 1.065c11.37 17.09 23.235 33.846 34.901 50.736 11.935 16.705 23.855 33.426 36.366 49.741-10.56-17.64-21.71-34.881-32.846-52.131-11.126-16.725-22.111-33.576-33.556-50.116z" fill="#3e6b82"/><path d="m232.764 235.099c-6.285 1.5-23.06 6.305-23.06 14.085s16.69 13.23 23.06 14.08c27.361 3.66 11.6-6.305 11.6-14.08s13.191-20.06-11.6-14.085z" fill="#fe7058"/><path d="m188.774 235.099c6.285 1.5 23.065 6.305 23.065 14.085s-16.695 13.23-23.065 14.08c-27.361 3.66-11.6-6.305-11.6-14.08s-13.181-20.06 11.6-14.085z" fill="#fe7058"/><ellipse cx="210.77" cy="248.788" fill="#ea6453" rx="13.73" ry="13.73" transform="matrix(.973 -.23 .23 .973 -51.523 55.083)"/></g></svg>