<svg xmlns="http://www.w3.org/2000/svg" width="338" height="250" viewBox="0 0 338 250">
    <g fill="none" fill-rule="evenodd">
        <g>
            <g>
                <path fill="#009AE1" fill-opacity=".2" d="M291.729 249.852c-2.065 0-4.14-.073-6.24-.252-8.02-.681-16.148-1.021-24.127-1.994-18.311-2.232-36.632-2.364-55.076-2.364-7.323 0-14.646-.062-21.967-.062-10.663 0-21.32.132-31.962.78-16.599 1.012-33.227 1.173-49.856 1.173-2.508 0-5.017-.004-7.524-.009h-.48c-9.21 0-18.382.516-27.577.881-9.233.366-18.212.968-27.39.968-.83 0-1.662-.005-2.495-.015-9.174-.115-23.142-2.548-29.687-8.75-3.886-3.684-3.359-12.55.533-16.102 1.7-1.552 4.44-2.767 6.679-3.507 6.377-2.106 12.867-2.112 19.53-2.155l.246-.001c4.598 0 9.38.844 13.786 2.016 4.01 1.067 8.106 1.44 12.184 2.104 3.337.544 6.908.804 10.439.804 2.297 0 4.578-.11 6.767-.324 5.92-.58 11.884-.849 17.822-1.305 7.374-.567 14.59-1.795 21.938-2.454 3.68-.33 7.272-1.147 10.943-1.52 9.734-.985 19.486-1.198 29.237-1.224.8-.003 1.597-.004 2.396-.004 4.634 0 9.27.032 13.901.032 3.776 0 7.55-.01 11.324-.01 12.905 0 25.8.12 38.67 1.186 3.989.33 7.952.13 11.885.916 3.95.79 7.936 1.509 11.982 1.65 3.46.12 6.931.16 10.406.16 6.184 0 12.38-.126 18.543-.146.617-.002 1.475-.006 2.54-.006 13.79 0 61.845.576 58.401 12.25-1.326 4.487-9.026 10.325-13.346 12.204-5.456 2.374-11.423 3.779-17.43 4.252-5.061.4-9.997.828-14.995.828" transform="translate(-122.000000, -2516.000000) translate(122.257422, 2516.031384)"/>
                <path fill="#292949" d="M322.272 165.571L320.649 195.772 317.619 236.543 313.085 236.865 307.577 199.836 299.957 168.501 322.272 165.571" transform="translate(-122.000000, -2516.000000) translate(122.257422, 2516.031384)"/>
                <path fill="#353A85" d="M313.247 238.775L318.324 240.879 320.601 238.252 317.976 235.975 313.073 236.323 313.247 238.775" transform="translate(-122.000000, -2516.000000) translate(122.257422, 2516.031384)"/>
                <path fill="#292949" d="M287.522 163.309L286.527 181.434 289.48 235.325 294.019 235.552 300.822 200.206 306.822 161.445 287.522 163.309" transform="translate(-122.000000, -2516.000000) translate(122.257422, 2516.031384)"/>
                <path fill="#353A85" d="M293.897 236.402L288.865 238.612 286.533 237.097 289.111 234.765 294.019 235.01 293.897 236.402" transform="translate(-122.000000, -2516.000000) translate(122.257422, 2516.031384)"/>
                <path fill="#006492" d="M312.18 107.648l-14.216-.933s-7.84 1.166-12.41 20.09c-2.544 10.528-2.772 26.96-2.474 39.468.407 1.769 2.671 9.499 10.828 7.835 14.007-2.857 21.419-5.441 27.606-4.557 5.279.922 4.54-6.264 3.738-11.738l-2.786-16.924-10.286-33.241" transform="translate(-122.000000, -2516.000000) translate(122.257422, 2516.031384)"/>
                <path fill="#B97262" d="M308.72 90.138c-3.6-.64-7.3-1.192-10.843-.338-.775.188-1.604.494-2 1.187-.154.269-.228.574-.296.876-.763 3.388-1.701 8.402.631 11.398.445.571 1.029 1.015 1.651 1.37.832.473 1.745.782 2.682.927-.158.84-.392 1.667-.699 2.466.868 1.198 4.683 1.189 5.34-.021l-.01-3.07c.457-.207.896-.453 1.305-.748 1.584-1.14 2.59-2.812 3.137-4.658.597-2.011 1.474-3.935 2.01-5.982.196-.745.34-1.593-.075-2.243-.441-.691-1.341-.896-2.148-1.04l-.685-.124" transform="translate(-122.000000, -2516.000000) translate(122.257422, 2516.031384)"/>
                <path fill="#292949" d="M296.925 92.544c1.717-1.207 4.341-1.804 6.004-1.753 5.028.157 7.016 3.763 7.473 8.362 1.309-1.813 3.81-4.128 3.873-6.393.051-1.855-.308-4.365-1.41-5.92-1.03-1.453-3.542-2.172-5.05-2.977l-4.269-2.276c-.296-.158-.6-.319-.932-.362-.394-.052-.787.064-1.167.18l-9.744 2.952c-.624.189-1.332.456-1.54 1.075-.126.376-.026.786.075 1.17.443 1.689 1.23 3.402 1.479 5.122.242.994 1.052 6.112 2.803 5.445.487-.874.521-1.928.89-2.858.272-.688.819-1.277 1.515-1.767" transform="translate(-122.000000, -2516.000000) translate(122.257422, 2516.031384)"/>
                <path fill="#006492" d="M297.964 106.715L292.798 108.523 274.519 129.331 273.654 135.975 283.409 150.683 285.647 145.052 281.321 134.064 287.284 129.488 294.712 110.723 297.964 106.715M309.227 108.982L318.523 98.068 315.056 69.67 319.253 67.616 326.26 96.279 324.778 103.556 314.492 119.055 309.227 108.982" transform="translate(-122.000000, -2516.000000) translate(122.257422, 2516.031384)"/>
                <path fill="#B97262" d="M318.355 68.056L318.247 65.448 315.08 61.596 313.1 63.516 314.591 66.993 313.79 68.244 315.056 69.67 318.355 68.056" transform="translate(-122.000000, -2516.000000) translate(122.257422, 2516.031384)"/>
                <path fill="#EFBFA5" d="M65.446 102.337L70.138 99.056 69.47 96.063 64.715 97.704 62.419 99.2 62.419 100.859 65.446 102.337" transform="translate(-122.000000, -2516.000000) translate(122.257422, 2516.031384)"/>
                <path fill="#292949" d="M20.868 228.885c-.485-.533-1.05-.824-1.688-.723-.614.096-1.165.511-1.418 1.068-.172.379-.209.802-.243 1.215-.177 2.141-.16 7.224 2.69 7.956 1.198.307 2.19-1.607 2.509-2.683.482-1.622-.231-5.05-1.85-6.833" transform="translate(-122.000000, -2516.000000) translate(122.257422, 2516.031384)"/>
                <path fill="#EFBFA5" d="M21.882 196.588l-.15 13.059c.174 5.8-.731 11.633-.558 17.433.04 1.334.387 2.74.052 4.063-.329 1.293-1.38 1.521-2.458.867-1.444-.878-1.212-2.927-1.452-4.422-.661-4.107-1.437-8.195-2.127-12.297-.338-2.012.36-4.83.207-6.866l-2.109-10.944 8.595-.893" transform="translate(-122.000000, -2516.000000) translate(122.257422, 2516.031384)"/>
                <path fill="#292949" d="M6.966 175.489L12.648 200.735 13.854 224.576 22.864 224.373 25.314 157.687 7.849 158.004 6.966 175.489" transform="translate(-122.000000, -2516.000000) translate(122.257422, 2516.031384)"/>
                <path fill="#EFBFA5" d="M29.005 198.422l.765 13.037c.062 3.623.545 7.218.92 10.816.348 3.343-.194 6.824 1.553 9.864.547.954 1.654 1.589 2.428.43.596-.892.242-2.381.356-3.394.467-4.134 1.049-8.253 1.545-12.384.243-2.024-.586-4.807-.53-6.848l1.59-11.03-8.627-.491" transform="translate(-122.000000, -2516.000000) translate(122.257422, 2516.031384)"/>
                <path fill="#292949" d="M40.406 173.945L41.14 198.452 37.295 223.234 28.13 223.509 28.535 196.688 23.685 174.446 22.057 159.887 36.599 158.171 40.406 173.945" transform="translate(-122.000000, -2516.000000) translate(122.257422, 2516.031384)"/>
                <path fill="#006492" d="M28.903 108.017L13.237 107.643 4.154 124.541 7.382 140.367 7.957 159.307 30.304 159.613 37.657 158.418 35.705 138.181 36.727 113.487 28.903 108.017" transform="translate(-122.000000, -2516.000000) translate(122.257422, 2516.031384)"/>
                <path fill="#5D66D3" d="M12.717 108.808L0 128.184 1.911 138.977 21.607 152.624 25.314 149.383 12.146 132.733 12.657 122.212 12.717 108.808" transform="translate(-122.000000, -2516.000000) translate(122.257422, 2516.031384)"/>
                <path fill="#006492" d="M27.954 118.956L43.007 124.386 51.718 122.241 66.77 102.486 61.528 100.202 45.718 113.782 31.409 109.493 27.954 118.956" transform="translate(-122.000000, -2516.000000) translate(122.257422, 2516.031384)"/>
                <path fill="#D67086" d="M17.871 107.928L22.731 114.798 25.016 114.611 28.824 107.643 17.871 107.928" transform="translate(-122.000000, -2516.000000) translate(122.257422, 2516.031384)"/>
                <path fill="#EFBFA5" d="M21.722 150.207L21.637 152.85 26.301 154.548 28.989 152.511 28.991 149.434 26.395 149.289 26.314 148.613 25.464 148.066 21.722 150.207M23.612 94.135c1.016-.897 2.178-1.06 3.474-1.07.613-.004.817.154 1.133.099.142-.025.306-.093.54-.239.464-.288.877-1.044 1.094-1.66 1.202.76 2.076 2.133 2.317 4.223.262 2.273.258 4.671-.52 6.945-.78 2.274-2.442 4.413-4.598 5.256-.125.05-.25.093-.374.133-.924.302-1.801.364-2.615.234l-2.718-1.296c-.136-.115-.267-.236-.394-.363-.893-3.869.075-9.982 2.66-12.262" transform="translate(-122.000000, -2516.000000) translate(122.257422, 2516.031384)"/>
                <path fill="#292949" d="M22.685 91.993c.32-.213.65-.403.983-.572-.334.169-.662.36-.983.572zM1.032 140.95c.206 1.209.829 2.302 1.684 3.188.068-.417.14-.83.214-1.241-.075.41-.146.824-.214 1.241.552.572 1.2 1.06 1.9 1.434 1.78.951 3.843 1.25 5.861 1.248 1.616-.003 3.254-.187 4.832.16 1.578.345 3.14 1.373 3.54 2.939.22.864.148 1.95.895 2.437.35.229.793.247 1.21.26 1.279.036 2.73.003 3.589-.945 1.328-1.468.552-4.411 2.347-5.246.526-.244 1.134-.206 1.705-.303 2.429-.411 3.617-3.16 3.383-5.682-.048-.523-.156-1.037-.328-1.517-1.003-2.8-3.329-4.878-5.09-7.275-3.438-4.68-5.762-10.933-3.648-16.471.199-.521.422-1.044.56-1.582.077-.296.128-.596.134-.902.03-1.652-1.198-3.012-1.992-4.46-.074-.136-.144-.279-.21-.428-.16-.365-.294-.773-.405-1.21-.017-.065-.033-.131-.048-.198-2.438-2.433-3.416-6.952-1.81-10.33.09-.191.187-.38.29-.563-.103.184-.2.372-.29.564-1.606 3.377-.628 7.896 1.81 10.329-.893-3.869.075-9.982 2.66-12.262 1.017-.897 2.18-1.06 3.475-1.07.613-.004.817.154 1.133.099.142-.025.306-.093.54-.239.464-.288.877-1.044 1.094-1.66 1.202.76 2.076 2.133 2.317 4.223.262 2.273.258 4.671-.52 6.945-.78 2.274-2.442 4.413-4.598 5.256-.125.05-.25.093-.374.133.107.194.243.388.418.581 1.181 1.3 3.075 1.601 4.816 1.826.211.027.433.053.631-.024.327-.127.495-.505.498-.855.002-.351-.124-.688-.22-1.024-1.012-3.524.78-7.549 1.08-11.101.298-3.545-.434-7.403-3.279-9.8-.483.133-.951.314-1.399.538-.044-.059-.09-.117-.138-.174-4.117-4.946-9.932-.718-13.06 3.06-2.578 3.113-4.727 6.688-5.712 10.639-.922 3.695-1.23 9.125-.84 12.902.227 2.205 1.1 4.369 1.56 6.528.287 1.344.415 2.686.128 4.036-.596 2.81-2.818 4.87-4.989 6.82-.198.508-.394 1.021-.59 1.543-.195.521-.39 1.05-.583 1.586-.124.346-.245.698-.361 1.055.116-.357.237-.71.361-1.055.193-.536.388-1.065.583-1.586.196-.522.392-1.035.59-1.542-.3.27-.6.537-.893.805-2.418 2.2-4.796 5.147-4.247 8.37z" transform="translate(-122.000000, -2516.000000) translate(122.257422, 2516.031384)"/>
                <path fill="#D67086" d="M245.291 56.14L311.353 56.14 311.353 4.562 245.291 4.562z" transform="translate(-122.000000, -2516.000000) translate(122.257422, 2516.031384)"/>
                <path fill="#006492" d="M242.242 31.962l.312 43.464 63.253-.456c4.784-.034 8.632-4.208 8.595-9.323l-.246-34.203-35.796 22.683-36.118-22.165" transform="translate(-122.000000, -2516.000000) translate(122.257422, 2516.031384)"/>
                <path fill="#F7F7F7" d="M257.243 15.213L306.146 15.213 306.146 14.16 257.243 14.16zM250.498 23.462L306.146 23.462 306.146 22.369 250.498 22.369zM250.498 31.692L306.146 31.692 306.146 30.598 250.498 30.598z" transform="translate(-122.000000, -2516.000000) translate(122.257422, 2516.031384)"/>
                <path fill="#353A85" d="M65.777 63.71L56.667 82.699 56.643 55.831 146.038 0 65.777 63.71" transform="translate(-122.000000, -2516.000000) translate(122.257422, 2516.031384)"/>
                <path fill="#ECECEC" d="M65.521 64.244L65.777 63.71 96.198 39.562 65.521 64.244" transform="translate(-122.000000, -2516.000000) translate(122.257422, 2516.031384)"/>
                <path fill="#3C4182" d="M56.737 82.402L56.666 56.035 110.358 28.17 96.198 39.562 65.777 63.71 65.521 64.244 56.737 82.402" transform="translate(-122.000000, -2516.000000) translate(122.257422, 2516.031384)"/>
                <path fill="#292949" d="M56.667 82.699L65.502 64.002 145.841 0.277 56.667 82.699" transform="translate(-122.000000, -2516.000000) translate(122.257422, 2516.031384)"/>
                <path fill="#707F78" d="M145.841 0.277L146.038 0 144.996 0.807 145.841 0.277" transform="translate(-122.000000, -2516.000000) translate(122.257422, 2516.031384)"/>
                <path fill="#EFD0D0" d="M145.841.277L144.996.807 65.525 63.884 65.433 63.939 91.047 86.951 145.841.277M146.038 0L34.661 36.292 56.515 55.927 144.996.807 146.038 0" transform="translate(-122.000000, -2516.000000) translate(122.257422, 2516.031384)"/>
                <path fill="#353A85" d="M101.593 233.582L101.234 236.367 106.445 238.805 109.587 237.441 107.161 234.298 101.95 230.797 101.593 233.582" transform="translate(-122.000000, -2516.000000) translate(122.257422, 2516.031384)"/>
                <path fill="#A5A8AA" d="M101.416 232.647L105.435 197.128 100.6 157.365 101.687 148.907 123.282 148.086 124.062 161.853 120.436 197.183 106.797 234.462 101.416 232.647" transform="translate(-122.000000, -2516.000000) translate(122.257422, 2516.031384)"/>
                <path fill="#8CABEF" d="M125.31 108.786L136.172 111.746 148.735 134.012 142.784 139.524 134.408 129.603 125.31 108.786" transform="translate(-122.000000, -2516.000000) translate(122.257422, 2516.031384)"/>
                <path fill="#A5A8AA" d="M139.128 152.066L139.185 187.909 131.972 234.051 126.78 234 123.927 191.329 117.247 148.62 139.128 152.066" transform="translate(-122.000000, -2516.000000) translate(122.257422, 2516.031384)"/>
                <path fill="#353A85" d="M126.789 236.189L132.375 237.99 135.21 236.274 132.431 233.438 126.816 233.382 126.789 236.189" transform="translate(-122.000000, -2516.000000) translate(122.257422, 2516.031384)"/>
                <path fill="#8CABEF" d="M98.365 164.257c.05-1.553.136-2.85.148-3.313.111-4.167.482-8.324 1.004-12.46.467-3.708 1.057-12.912 1.691-16.596.524-3.042 2.35-10.636 3.668-13.458 3.279-7.016 2.266-7.665 16.67-9.748 6.313-.913 7.805 3.022 12.966 7.547.509.446.48 3.104.599 3.808.208 1.239.43 2.476.686 3.707.2.968.422 1.933.67 2.892 0 0 4.333 19.722 7.198 23.91 2.865 4.189 8.785 10.045-1.117 13.62-1.755.568-3.52 1.108-5.347 1.396 0 0-8.098-.9-12.262-.87-3.836.03-7.687.418-11.458 1.068-2.521.422-5.095 1.034-7.35 2.213-2.152 1.124-3.705 2.778-5.889 3.943-.206.11-.433.224-.668.191-1.255-.174-1.313-4.581-1.21-7.85" transform="translate(-122.000000, -2516.000000) translate(122.257422, 2516.031384)"/>
                <path fill="#B97262" d="M121.562 110.66c-.727.36-2.442.488-4.231-.213-.36-.141-.604-.489-.6-.876.015-1.087.103-2.174.262-3.249-1.342-.472-2.893-1.18-3.127-2.583-.073-.443.003-.894.08-1.336l.946-5.478c.109-.631.225-1.281.569-1.822.602-.95 1.771-1.365 2.879-1.557 2.827-.491 5.907.12 8.098 1.973.584.493 1.111 1.085 1.368 1.804.397 1.11.1 2.332-.199 3.471l-.828 3.154c-.317 1.21-.776 2.584-1.94 3.037-.619.241-1.348.17-1.909.527-.987.628-.854 2.097-1.368 3.148" transform="translate(-122.000000, -2516.000000) translate(122.257422, 2516.031384)"/>
                <path fill="#292949" d="M137.877 92.451c.277-.456.576-.896.91-1.308.726-.894 1.619-1.66 2.202-2.653.583-.991.788-2.337.089-3.25-.452-.59-1.185-.884-1.897-1.094-2.348-.691-4.88-.738-7.252-.134-2.259.575-4.28 1.527-6.553.678-2.137-.798-3.68-.473-5.912.324-2.416.862-5.66 1.066-7.847 2.283-.913.508-1.641 1.303-2.21 2.18-1.968 3.04-1.978 7.232-.026 10.283.438.684.962 1.31 1.513 1.907 1.14 1.236 2.503 2.764 4.07 3.222.038-1.403-1.24-5.827-.163-6.977 1.71-1.825 5.575-1.188 7.696-.739 2.313.49 4.375 2.128 6.669 2.479 1.65.251 3.756-.558 5.16-1.411 1.731-1.054 2.537-4.125 3.55-5.79" transform="translate(-122.000000, -2516.000000) translate(122.257422, 2516.031384)"/>
                <path fill="#8CABEF" d="M109.587 111.378L100.6 119.255 90.574 140.331 103.237 155.4 105.416 146.973 109.587 111.378" transform="translate(-122.000000, -2516.000000) translate(122.257422, 2516.031384)"/>
                <path fill="#006492" d="M171.18 119.265L60.082 127.631 118.238 158.09 171.18 119.265" transform="translate(-122.000000, -2516.000000) translate(122.257422, 2516.031384)"/>
                <path fill="#006492" d="M56.599 130.186l5.386 71.563 104.144-7.842c7.878-.594 13.749-7.901 13.115-16.323l-4.238-56.315-56.425 41.38L56.6 130.186" transform="translate(-122.000000, -2516.000000) translate(122.257422, 2516.031384)"/>
                <path fill="#292949" d="M151.245 120.766c-.072.955-.074 1.927 0 2.91.229 3.033 1.153 5.847 2.603 8.3l17.332-12.71-19.935 1.5M171.774 141.335c1.627-.123 3.192-.446 4.671-.943l-1.44-19.123-18.855 13.829c3.83 4.223 9.499 6.698 15.624 6.237" transform="translate(-122.000000, -2516.000000) translate(122.257422, 2516.031384)"/>
                <path fill="#D67086" d="M155.782 120.95c-.793-10.547 7.11-19.74 17.654-20.535 10.544-.793 19.735 7.113 20.529 17.66.794 10.546-7.11 19.74-17.654 20.533-10.544.794-19.735-7.112-20.529-17.659" transform="translate(-122.000000, -2516.000000) translate(122.257422, 2516.031384)"/>
                <path fill="#FFF" d="M178.858 129.981L174.374 130.249 173.495 115.487 170.692 115.654 170.425 111.169 177.711 110.735 178.858 129.981" transform="translate(-122.000000, -2516.000000) translate(122.257422, 2516.031384)"/>
                <path fill="#292949" d="M242.192 231.646c.483-.532 1.047-.823 1.684-.722.612.096 1.162.51 1.414 1.066.173.378.209.8.243 1.213-.053-.64.39 7.149-2.684 7.938-1.196.306-2.184-.543-2.504-1.617-.48-1.618.231-6.1 1.847-7.878" transform="translate(-122.000000, -2516.000000) translate(122.257422, 2516.031384)"/>
                <path fill="#EFBFA5" d="M241.18 199.42l.15 13.03c-.174 5.787.73 11.607.556 17.395-.04 1.33-.387 2.734-.051 4.053.328 1.29 1.376 1.519 2.452.865 1.441-.875 1.209-2.92 1.449-4.411.66-4.098 1.433-8.178 2.122-12.27.338-2.007-.358-4.82-.207-6.85l2.104-10.92-8.575-.891" transform="translate(-122.000000, -2516.000000) translate(122.257422, 2516.031384)"/>
                <path fill="#006492" d="M256.063 178.368L250.394 203.558 249.189 227.346 240.2 227.144 237.756 160.605 255.182 160.922 256.063 178.368" transform="translate(-122.000000, -2516.000000) translate(122.257422, 2516.031384)"/>
                <path fill="#292949" d="M229.334 231.172c.504-.504 1.079-.76 1.709-.623.606.133 1.137.58 1.364 1.15.156.39.174.813.19 1.229-.026-.665-.037 7.2-3.014 7.786-1.205.236-2.154-.673-2.426-1.766-.41-1.647.49-6.09 2.177-7.776" transform="translate(-122.000000, -2516.000000) translate(122.257422, 2516.031384)"/>
                <path fill="#EFBFA5" d="M234.072 201.25l-.763 13.008c-.062 3.615-.544 7.202-.918 10.793-.347 3.335.194 6.809-1.55 9.842-.545.952-1.65 1.585-2.422.429-.595-.89-.242-2.376-.355-3.387-.466-4.124-1.047-8.235-1.542-12.356-.242-2.02.585-4.797.53-6.833l-1.588-11.005 8.608-.491" transform="translate(-122.000000, -2516.000000) translate(122.257422, 2516.031384)"/>
                <path fill="#006492" d="M222.696 176.828L221.964 201.28 225.801 226.007 234.945 226.281 234.542 199.52 239.38 177.327 241.005 162.8 226.495 161.088 222.696 176.828" transform="translate(-122.000000, -2516.000000) translate(122.257422, 2516.031384)"/>
                <path fill="#C25970" d="M233.392 121.261L225.25 137.543 216.471 139.288 194.597 129.735 198.37 125.454 218.318 129.106 226.271 114.169 233.392 121.261" transform="translate(-122.000000, -2516.000000) translate(122.257422, 2516.031384)"/>
                <path fill="#D67086" d="M234.174 111.045L249.806 110.672 258.869 127.532 255.647 143.324 255.074 162.222 232.776 162.527 225.44 161.335 227.387 141.143 226.271 114.169 234.174 111.045" transform="translate(-122.000000, -2516.000000) translate(122.257422, 2516.031384)"/>
                <path fill="#D67086" d="M250.324 111.835L263.013 131.167 261.106 141.937 241.454 155.554 237.756 152.32 250.894 135.707 250.384 125.208 250.324 111.835" transform="translate(-122.000000, -2516.000000) translate(122.257422, 2516.031384)"/>
                <path fill="#EFBFA5" d="M235.153 97.945c2.357-6.853 11.4-4.285 13.266 1.817 1.216 3.98-1.857 9.146-5.98 10.289-.019.157-.032.303-.033.427-.003.64-.081 1.27-.176 1.908-.035.237-3.644-.456-4.046-.535-.141-.028-.298-.066-.374-.184-.145-.227.091-.895.118-1.146l.094-.892c-2.035-.993-3.318-3.108-3.676-5.261-.36-2.163.099-4.364.807-6.423" transform="translate(-122.000000, -2516.000000) translate(122.257422, 2516.031384)"/>
                <path fill="#292949" d="M241.054 91.753c.485.492.675 1.18.815 1.839.084.394.155.801.071 1.191-.336 1.556-1.878 1.475-3.071 1.976-1.471.618-2.74 1.757-3.564 3.068-1.29 2.053-.71 4.695-.186 6.96.184.798.555 1.984-.064 2.696-.628.723-2.082.612-2.835.24-.688-.34-1.253-.97-2.009-1.096-.8-.134-1.88.218-2.252-.516-.104-.204-.113-.454-.244-.641-.442-.632-1.54.108-2.163-.337-.383-.274-.38-.858-.251-1.32.129-.463.347-.931.257-1.401-.077-.404-.37-.723-.549-1.091-.356-.726-.233-1.672.297-2.285.985-1.14 2.89-.923 3.945-1.995.55-.559.763-1.364.968-2.127.205-.762.45-1.567 1.038-2.083.726-.638 1.774-.53 2.49-1.287.421-.445.702-1.024 1.174-1.41.622-.511 1.84-.903 2.613-1.164 1.229-.412 2.602-.15 3.52.783" transform="translate(-122.000000, -2516.000000) translate(122.257422, 2516.031384)"/>
                <path fill="#292949" d="M246.775 102.689c.042 2.255-1.078 4.694-.04 6.679 1.049 2.004 3.662 2.365 5.89 2.47.366.017 5.066.423 5.086.334.352-1.571.716-3.174 1.537-4.553.82-1.38 2.193-2.523 3.765-2.62-.453-.08-.682-.635-.63-1.103.053-.468.295-.89.435-1.34.345-1.106.01-2.396-.824-3.173-1.662-1.55-4.677-.906-6.102-2.686-.884-1.105-.779-2.706-1.242-4.054-.895-2.606-3.748-3.152-5.88-4.328-2.251-1.243-4.37-1.924-6.968-1.49-3.22.536-5.615 3.816-4.373 6.901 1.593 3.959 7.962 3.617 9.154 7.636.128.432.183.876.192 1.327" transform="translate(-122.000000, -2516.000000) translate(122.257422, 2516.031384)"/>
                <path fill="#474EBB" d="M245.182 110.956L240.332 117.812 238.053 117.625 234.253 110.672 245.182 110.956" transform="translate(-122.000000, -2516.000000) translate(122.257422, 2516.031384)"/>
                <path fill="#FFF" d="M208.407 147.226c.396 0 .784.156 1.037.416l11.184 11.467 7.102-6.931-11.161-11.445c-.294-.3-.437-.685-.405-1.084.034-.429.268-.834.642-1.11l8.062-5.986-38.05-15.22 14.27 38.427 6.3-8.066c.232-.297.603-.468 1.019-.468zm12.182 15.306c-.382 0-.734-.145-.993-.41l-11.044-11.325-6.86 8.784c-.244.313-.591.485-.977.485-.6 0-1.214-.434-1.428-1.01l-16.264-43.797c-.196-.528-.08-1.048.308-1.407.237-.304.582-.476.957-.476.17 0 .345.034.52.104l43.367 17.347c.532.213.89.653.958 1.178.067.518-.164 1.028-.619 1.366l-8.791 6.526 11.02 11.301c.544.557.543 1.477-.002 2.01l-9.136 8.915c-.267.26-.637.41-1.016.41z" transform="translate(-122.000000, -2516.000000) translate(122.257422, 2516.031384)"/>
                <path fill="#FFF" d="M230.368 152.824l-9.136 8.916c-.174.169-.41.258-.643.258-.223 0-.445-.081-.61-.25l-1.494-1.532-9.978-10.231-7.237 9.267c-.153.197-.353.279-.555.279-.389 0-.792-.299-.926-.66l-2-5.384-8.736-23.526-5.529-14.888c-.137-.37-.022-.67.203-.858.128-.182.32-.305.561-.305.1 0 .207.02.32.067l5.33 2.132 23.296 9.318 14.742 5.896c.73.293.865 1.14.22 1.618l-9.283 6.892.778.798 10.67 10.94c.33.338.354.914.007 1.253zm.76-2l-10.595-10.862 8.3-6.162c.613-.455.923-1.152.83-1.864-.093-.72-.575-1.32-1.29-1.605l-43.367-17.347c-.237-.095-.479-.143-.718-.143-.529 0-1.014.234-1.352.649-.52.504-.68 1.24-.414 1.956l16.264 43.797c.292.787 1.103 1.357 1.929 1.357.554 0 1.05-.244 1.399-.69l6.483-8.302 10.617 10.887c.36.37.848.572 1.375.572.517 0 1.023-.204 1.39-.561l9.135-8.916c.766-.747.771-1.988.013-2.765z" transform="translate(-122.000000, -2516.000000) translate(122.257422, 2516.031384)"/>
                <path fill="#FFF" d="M220.637 158.352l-10.81-11.084c-.357-.366-.875-.577-1.42-.577-.581 0-1.106.246-1.44.673l-5.71 7.312-13.517-36.399 34.046 13.62 1.932.772.063.025-7.294 5.415c-.498.369-.81.915-.856 1.498-.044.555.153 1.087.555 1.5l10.67 10.94.118.122-6.337 6.183zm-3.686-17.992c-.43-.441-.285-1.053.173-1.392l8.831-6.556-3.771-1.509-23.296-9.318-12.99-5.196 1.331 3.585 8.737 23.526 4.955 13.343 6.888-8.82c.142-.181.368-.262.598-.262.246 0 .497.092.655.254l1.493 1.532c3.355 3.44 6.71 6.878 10.063 10.318l7.868-7.678-.865-.887-10.67-10.94z" transform="translate(-122.000000, -2516.000000) translate(122.257422, 2516.031384)"/>
                <path fill="#00A1EB" d="M184.378 114.832L200.642 158.629 208.439 148.646 220.602 161.117 229.738 152.201 217.575 139.73 227.745 132.179 184.378 114.832" transform="translate(-122.000000, -2516.000000) translate(122.257422, 2516.031384)"/>
                <path fill="#EFBFA5" d="M233.419 154.021L233.503 156.658 228.85 158.352 226.168 156.32 226.166 153.25 228.755 153.105 228.837 152.43 229.685 151.884 233.419 154.021" transform="translate(-122.000000, -2516.000000) translate(122.257422, 2516.031384)"/>
                <path fill="#B97262" d="M92.393 126.586L95.026 123.071 100.369 122.033 103.246 124.905 98.152 130.21 92.393 126.586M134.922 121.504L137.554 117.988 142.897 116.95 145.774 119.822 140.68 125.128 134.922 121.504" transform="translate(-122.000000, -2516.000000) translate(122.257422, 2516.031384)"/>
            </g>
        </g>
    </g>
</svg>
