<svg xmlns="http://www.w3.org/2000/svg" width="125" height="22" viewBox="0 0 125 22">
    <defs>
        <linearGradient id="2uhibbskja" x1="-14.893%" x2="123.522%" y1="51.93%" y2="48.678%">
            <stop offset="0%" stop-color="#647A6D"/>
            <stop offset="100%" stop-color="#75E0A2"/>
        </linearGradient>
    </defs>
    <g fill="none" fill-rule="evenodd" stroke-linecap="round">
        <g stroke="url(#2uhibbskja)" stroke-width="2" transform="translate(-664.000000, -390.000000)">
            <path d="M665 408.92c3.877 1.914 6.416 2.48 7.616 1.7 4.577-2.978 7.37-8.294 13.16-7.271 12.103 2.138 11.212-.126 17.304-3.684 6.093-3.559 7.617-11.544 13.3-5.618 5.683 5.927 7.989 6.977 12.024.581 4.035-6.396 4.271 5.946 9.191 12.288 4.92 6.343 7.576-1.492 10.617 0 3.041 1.493 12.356 5.5 16.94 3.568 4.583-1.932 7.162-14.172 11.829-16.437 4.667-2.264 4.667-2.264 11.019-3.047"/>
        </g>
    </g>
</svg>
