<svg xmlns="http://www.w3.org/2000/svg" width="16" height="16" viewBox="0 0 16 16">
    <g fill="none" fill-rule="evenodd">
        <g fill="#009AE1" fill-rule="nonzero">
            <path d="M151.663 608c-3.672 0-6.663 2.99-6.663 6.663 0 3.671 2.99 6.662 6.663 6.662 1.596 0 3.063-.567 4.212-1.508l3.978 3.978c.167.174.415.244.649.183.233-.06.416-.243.476-.476.061-.234-.009-.482-.183-.649l-3.978-3.978c.941-1.15 1.508-2.616 1.508-4.212 0-3.672-2.99-6.663-6.662-6.663zm0 1.333c2.951 0 5.33 2.378 5.33 5.33 0 2.951-2.379 5.33-5.33 5.33-2.952 0-5.33-2.379-5.33-5.33 0-2.952 2.378-5.33 5.33-5.33z" transform="translate(-145.000000, -608.000000)"/>
        </g>
    </g>
</svg>
